<?xml version="1.0" standalone="no"?>
<!DOCTYPE svg PUBLIC "-//W3C//DTD SVG 20010904//EN"
 "http://www.w3.org/TR/2001/REC-SVG-20010904/DTD/svg10.dtd">
<svg version="1.0" xmlns="http://www.w3.org/2000/svg"
 width="890.000000pt" height="890.000000pt" viewBox="0 0 890.000000 890.000000"
 preserveAspectRatio="xMidYMid meet">
<metadata>
Created by potrace 1.13, written by Peter Selinger 2001-2015
</metadata>
<g transform="translate(0.000000,890.000000) scale(0.100000,-0.100000)"
fill="#000000" stroke="none">
<path d="M3877 8612 l-117 -288 0 -237 0 -237 -154 0 -153 0 -5 83 c-5 103
-25 143 -88 175 -45 22 -45 22 -480 20 l-435 -3 -3 -862 -2 -862 -828 -4
c-894 -4 -859 -2 -1012 -58 -294 -109 -517 -371 -581 -686 -19 -89 -19 -171
-17 -2485 l3 -2393 22 -77 c99 -346 353 -590 703 -674 71 -17 201 -18 2385
-22 1555 -2 2348 1 2427 8 136 12 250 44 356 101 273 146 463 424 488 714 3
39 6 909 7 1935 l2 1865 300 1 c288 2 608 10 745 19 36 3 232 12 435 21 204 9
482 21 619 27 l249 12 78 255 79 254 0 1552 0 1551 -61 194 c-34 107 -68 219
-77 249 -8 30 -16 56 -16 57 -1 1 -193 11 -786 38 -970 45 -975 45 -2490 45
l-1476 0 -117 -288z m3031 172 l22 -6 0 -2019 0 -2018 -32 -6 c-18 -3 -652 -4
-1408 -3 l-1375 3 -3 2015 c-1 1108 0 2021 3 2028 3 9 290 12 1387 12 761 0
1393 -3 1406 -6z m552 -14 c246 -9 517 -22 933 -44 187 -10 251 -16 261 -27 7
-8 35 -86 61 -174 26 -88 56 -184 66 -213 18 -51 19 -110 19 -1541 l0 -1489
-71 -233 c-39 -129 -72 -235 -72 -235 -6 -6 -1168 -62 -1434 -70 l-213 -7 0
2028 0 2028 108 -7 c59 -4 213 -11 342 -16z m-3451 -2012 c0 -2039 2 -1926
-40 -1823 -68 168 -93 227 -109 263 -20 42 -20 71 -20 1563 0 1303 2 1525 14
1552 13 29 29 67 121 290 15 37 30 67 32 67 1 0 3 -861 2 -1912z m-721 1252
c20 -13 41 -38 53 -65 19 -43 19 -72 17 -1189 -3 -1138 -3 -1145 -24 -1172
-11 -15 -33 -37 -48 -48 -26 -20 -42 -21 -364 -24 -185 -2 -347 0 -359 3 -13
3 -23 12 -23 20 0 12 52 15 346 17 329 3 346 4 360 22 18 25 18 37 0 62 -14
18 -31 19 -352 22 -251 2 -340 6 -346 15 -4 7 -8 31 -8 54 l0 42 346 3 c329 3
346 4 360 22 18 25 18 37 0 62 -14 18 -33 19 -358 24 l-343 5 -3 73 -3 72 339
0 c314 0 341 1 362 18 30 24 21 68 -16 82 -14 6 -167 10 -355 10 l-329 0 0
105 0 105 329 0 c188 0 341 4 355 10 37 14 46 58 16 82 -21 17 -48 18 -361 18
l-340 0 3 128 3 127 350 5 350 5 10 29 c8 24 6 31 -14 47 -22 18 -44 19 -362
19 l-340 0 3 128 3 127 348 5 c294 4 349 7 357 20 14 22 12 41 -7 62 -15 17
-40 18 -360 18 l-344 0 3 108 3 107 339 3 c299 2 342 4 358 19 22 20 23 41 1
65 -15 17 -40 18 -360 18 l-344 0 3 78 3 77 339 3 c299 2 342 4 358 19 22 20
23 41 1 65 -15 17 -40 18 -360 18 l-343 0 0 44 c0 82 -28 76 348 76 298 0 337
2 354 17 22 20 23 41 1 65 -15 17 -40 18 -360 18 l-343 0 0 25 0 25 358 0
c341 0 359 -1 390 -20z m462 -1240 l0 -980 -145 0 -145 0 0 175 0 174 93 3 92
3 0 50 0 50 -92 3 -93 3 0 519 0 519 93 3 92 3 0 45 0 45 -92 3 -93 3 0 179 0
180 145 0 145 0 0 -980z m-1308 -932 l3 -413 452 0 c440 0 452 1 480 21 46 33
73 98 73 176 l0 68 155 0 155 0 0 -245 0 -246 111 -272 c61 -150 114 -278 118
-285 5 -10 238 -13 1131 -15 l1125 -2 0 -1900 0 -1900 -23 -78 c-88 -306 -339
-535 -642 -587 -46 -8 -742 -10 -2425 -8 l-2360 3 -70 24 c-287 97 -477 293
-557 577 l-23 79 -3 2300 c-2 1568 0 2329 8 2392 34 300 220 551 492 665 135
57 125 56 995 57 l803 1 2 -412z"/>
<path d="M5972 7483 c4 -33 37 -43 57 -19 20 24 6 46 -29 46 -28 0 -31 -3 -28
-27z"/>
<path d="M6062 7483 c4 -33 37 -43 57 -19 20 24 6 46 -29 46 -28 0 -31 -3 -28
-27z"/>
<path d="M6154 7495 c-9 -23 3 -45 24 -45 25 0 46 25 38 45 -7 19 -55 20 -62
0z"/>
<path d="M5890 7450 c-14 -27 4 -52 34 -48 31 4 30 62 -1 66 -14 2 -26 -4 -33
-18z"/>
<path d="M6239 7448 c-10 -19 -8 -24 12 -41 23 -19 24 -19 41 3 13 17 15 26 8
41 -14 26 -47 24 -61 -3z"/>
<path d="M5890 7360 c-14 -27 4 -52 34 -48 31 4 30 62 -1 66 -14 2 -26 -4 -33
-18z"/>
<path d="M6240 7359 c-9 -15 -8 -24 1 -35 27 -33 79 1 58 39 -14 23 -46 21
-59 -4z"/>
<path d="M5896 7274 c-19 -18 -17 -33 6 -47 26 -17 50 -1 46 30 -4 33 -29 41
-52 17z"/>
<path d="M6240 7269 c-9 -15 -8 -24 1 -35 27 -33 79 1 58 39 -14 23 -46 21
-59 -4z"/>
<path d="M5896 7184 c-21 -20 -20 -27 4 -49 16 -15 22 -15 35 -5 18 15 19 42
3 58 -16 16 -23 15 -42 -4z"/>
<path d="M6245 7180 c-18 -20 -18 -21 3 -43 l22 -21 22 21 c21 22 21 23 3 43
-10 11 -21 20 -25 20 -4 0 -15 -9 -25 -20z"/>
<path d="M5974 7126 c-11 -28 1 -51 25 -51 32 0 49 28 32 49 -17 20 -50 21
-57 2z"/>
<path d="M6064 7126 c-11 -28 1 -51 25 -51 32 0 49 28 32 49 -17 20 -50 21
-57 2z"/>
<path d="M6155 7119 c-5 -13 -1 -27 8 -36 19 -19 57 -8 57 16 0 40 -54 57 -65
20z"/>
<path d="M4625 7038 l-50 -61 -80 -1 -80 -1 -3 -62 -3 -63 31 0 31 0 -51 -62
c-27 -35 -50 -65 -50 -68 1 -3 22 -31 48 -63 26 -32 94 -116 152 -187 58 -71
109 -129 113 -129 4 -1 20 10 34 24 25 22 26 26 11 42 -8 10 -70 84 -137 166
l-122 147 122 148 c67 81 129 155 137 165 14 16 13 20 -8 42 -13 14 -28 25
-34 24 -6 0 -33 -28 -61 -61z"/>
<path d="M4616 6860 l-116 -140 116 -140 116 -140 139 0 139 0 0 110 0 110
-100 0 -101 0 3 63 3 62 95 1 95 2 3 106 3 106 -140 0 -139 0 -116 -140z"/>
<path d="M5974 6986 c-11 -28 1 -51 25 -51 32 0 49 28 32 49 -17 20 -50 21
-57 2z"/>
<path d="M6070 6985 c-18 -22 -8 -50 19 -50 32 0 49 28 32 49 -17 20 -35 20
-51 1z"/>
<path d="M6162 6988 c-15 -15 -16 -45 -1 -53 18 -12 59 4 59 23 0 20 -18 42
-35 42 -6 0 -16 -5 -23 -12z"/>
<path d="M5891 6922 c-13 -25 8 -56 35 -50 29 5 27 62 -3 66 -13 2 -26 -4 -32
-16z"/>
<path d="M6239 6924 c-9 -11 -10 -20 -2 -32 25 -41 86 -14 63 27 -13 25 -42
27 -61 5z"/>
<path d="M6594 6926 c-11 -29 0 -51 26 -51 21 0 25 5 25 30 0 24 -5 31 -23 33
-13 2 -24 -3 -28 -12z"/>
<path d="M5891 6832 c-13 -25 8 -56 35 -50 29 5 27 62 -3 66 -13 2 -26 -4 -32
-16z"/>
<path d="M6241 6836 c-16 -19 3 -56 28 -56 29 0 45 25 31 49 -12 24 -42 27
-59 7z"/>
<path d="M6594 6836 c-11 -29 0 -51 26 -51 21 0 25 5 25 30 0 24 -5 31 -23 33
-13 2 -24 -3 -28 -12z"/>
<path d="M5890 6739 c-9 -15 -8 -24 1 -35 18 -22 53 -13 57 15 6 40 -39 56
-58 20z"/>
<path d="M6239 6744 c-9 -11 -10 -20 -2 -32 25 -41 86 -14 63 27 -13 25 -42
27 -61 5z"/>
<path d="M6602 6751 c-8 -4 -12 -19 -10 -32 2 -18 9 -24 28 -24 21 0 25 5 25
30 0 31 -19 42 -43 26z"/>
<path d="M5895 6654 c-9 -9 -14 -21 -12 -27 6 -18 33 -31 51 -24 21 8 21 53 0
61 -21 8 -20 8 -39 -10z"/>
<path d="M6246 6654 c-19 -19 -20 -26 -4 -42 30 -30 78 0 58 37 -13 25 -33 27
-54 5z"/>
<path d="M6602 6661 c-8 -4 -12 -19 -10 -32 2 -18 9 -24 28 -24 21 0 25 5 25
30 0 31 -19 42 -43 26z"/>
<path d="M6329 6594 c-17 -21 0 -49 32 -49 27 0 37 28 19 50 -16 19 -34 19
-51 -1z"/>
<path d="M6419 6594 c-17 -21 0 -49 32 -49 18 0 25 6 27 24 6 38 -34 55 -59
25z"/>
<path d="M6510 6595 c-18 -22 -1 -50 31 -50 20 0 24 5 24 30 0 23 -5 31 -21
33 -11 2 -27 -4 -34 -13z"/>
<path d="M5980 6465 c-18 -22 -8 -50 19 -50 32 0 49 28 32 49 -17 20 -35 20
-51 1z"/>
<path d="M6070 6465 c-18 -22 -8 -50 19 -50 32 0 49 28 32 49 -17 20 -35 20
-51 1z"/>
<path d="M6160 6465 c-20 -25 -8 -50 25 -50 21 0 31 5 33 18 4 21 -14 47 -33
47 -7 0 -18 -7 -25 -15z"/>
<path d="M5895 6404 c-9 -9 -14 -21 -12 -27 6 -18 33 -31 51 -24 21 8 21 53 0
61 -21 8 -20 8 -39 -10z"/>
<path d="M6245 6400 c-15 -16 -15 -22 -5 -35 15 -18 42 -19 58 -3 16 16 15 23
-4 42 -20 21 -27 20 -49 -4z"/>
<path d="M6602 6411 c-8 -4 -12 -19 -10 -32 2 -18 9 -24 28 -24 19 0 26 6 28
24 3 20 -11 41 -28 41 -3 0 -11 -4 -18 -9z"/>
<path d="M5890 6309 c-9 -15 -8 -24 1 -35 18 -22 53 -13 57 15 6 40 -39 56
-58 20z"/>
<path d="M6246 6314 c-19 -19 -20 -26 -4 -42 30 -30 78 0 58 37 -13 25 -33 27
-54 5z"/>
<path d="M6602 6321 c-8 -4 -12 -19 -10 -32 2 -18 9 -24 28 -24 21 0 25 5 25
30 0 31 -19 42 -43 26z"/>
<path d="M5895 6224 c-9 -9 -14 -21 -12 -27 6 -18 33 -31 51 -24 21 8 21 53 0
61 -21 8 -20 8 -39 -10z"/>
<path d="M6245 6220 c-15 -16 -15 -22 -5 -35 15 -18 42 -19 58 -3 16 16 15 23
-4 42 -20 21 -27 20 -49 -4z"/>
<path d="M6600 6225 c-19 -23 -8 -50 20 -50 19 0 26 6 28 24 5 35 -26 53 -48
26z"/>
<path d="M5896 6134 c-10 -9 -15 -23 -12 -31 3 -8 6 -17 6 -19 0 -2 11 -4 25
-4 29 0 43 25 28 48 -14 23 -29 25 -47 6z"/>
<path d="M6245 6130 c-15 -16 -15 -22 -5 -35 17 -20 56 -19 64 1 6 16 -18 54
-34 54 -4 0 -15 -9 -25 -20z"/>
<path d="M6600 6135 c-19 -23 -8 -50 23 -53 24 -3 27 0 27 26 0 18 -6 32 -16
36 -21 8 -20 8 -34 -9z"/>
<path d="M6335 6076 c-27 -20 -15 -51 20 -51 23 0 31 5 33 22 4 29 -28 47 -53
29z"/>
<path d="M6426 6077 c-26 -19 -17 -51 17 -55 31 -4 47 20 30 46 -13 22 -26 24
-47 9z"/>
<path d="M6517 6072 c-22 -25 -12 -52 19 -52 28 0 42 25 27 48 -14 24 -28 25
-46 4z"/>
<path d="M1335 4145 c-30 -30 -31 -54 -4 -89 14 -17 30 -26 50 -26 65 0 93 80
43 119 -35 27 -59 26 -89 -4z"/>
<path d="M1535 4145 c-30 -30 -31 -54 -4 -89 14 -17 30 -26 50 -26 65 0 93 80
43 119 -35 27 -59 26 -89 -4z"/>
<path d="M1735 4145 c-30 -30 -31 -54 -4 -89 14 -17 30 -26 50 -26 65 0 93 80
43 119 -35 27 -59 26 -89 -4z"/>
<path d="M1935 4145 c-30 -30 -31 -54 -4 -89 14 -17 30 -26 50 -26 65 0 93 80
43 119 -35 27 -59 26 -89 -4z"/>
<path d="M2135 4145 c-30 -30 -31 -54 -4 -89 14 -17 30 -26 50 -26 65 0 93 80
43 119 -35 27 -59 26 -89 -4z"/>
<path d="M2745 4145 c-30 -30 -31 -54 -4 -89 14 -17 30 -26 50 -26 65 0 93 80
43 119 -35 27 -59 26 -89 -4z"/>
<path d="M2945 4145 c-30 -30 -31 -54 -4 -89 14 -17 30 -26 50 -26 65 0 93 80
43 119 -35 27 -59 26 -89 -4z"/>
<path d="M3145 4145 c-30 -30 -31 -54 -4 -89 14 -17 30 -26 50 -26 65 0 93 80
43 119 -35 27 -59 26 -89 -4z"/>
<path d="M3355 4145 c-30 -30 -31 -54 -4 -89 14 -17 30 -26 50 -26 65 0 93 80
43 119 -35 27 -59 26 -89 -4z"/>
<path d="M3555 4145 c-30 -30 -31 -54 -4 -89 14 -17 30 -26 50 -26 65 0 93 80
43 119 -35 27 -59 26 -89 -4z"/>
<path d="M4765 4145 c-30 -30 -31 -54 -4 -89 14 -17 30 -26 50 -26 65 0 93 80
43 119 -35 27 -59 26 -89 -4z"/>
<path d="M4965 4145 c-30 -30 -31 -54 -4 -89 14 -17 30 -26 50 -26 65 0 93 80
43 119 -35 27 -59 26 -89 -4z"/>
<path d="M1335 3945 c-30 -30 -31 -54 -4 -89 14 -17 30 -26 50 -26 65 0 93 80
43 119 -35 27 -59 26 -89 -4z"/>
<path d="M1535 3945 c-30 -30 -31 -54 -4 -89 14 -17 30 -26 50 -26 65 0 93 80
43 119 -35 27 -59 26 -89 -4z"/>
<path d="M1735 3945 c-30 -30 -31 -54 -4 -89 14 -17 30 -26 50 -26 65 0 93 80
43 119 -35 27 -59 26 -89 -4z"/>
<path d="M1935 3945 c-30 -30 -31 -54 -4 -89 14 -17 30 -26 50 -26 65 0 93 80
43 119 -35 27 -59 26 -89 -4z"/>
<path d="M2135 3945 c-30 -30 -31 -54 -4 -89 14 -17 30 -26 50 -26 65 0 93 80
43 119 -35 27 -59 26 -89 -4z"/>
<path d="M2335 3945 c-30 -30 -31 -54 -4 -89 14 -17 30 -26 50 -26 65 0 93 80
43 119 -35 27 -59 26 -89 -4z"/>
<path d="M2745 3945 c-30 -30 -31 -54 -4 -89 14 -17 30 -26 50 -26 65 0 93 80
43 119 -35 27 -59 26 -89 -4z"/>
<path d="M2945 3945 c-30 -30 -31 -54 -4 -89 14 -17 30 -26 50 -26 65 0 93 80
43 119 -35 27 -59 26 -89 -4z"/>
<path d="M3145 3945 c-30 -30 -31 -54 -4 -89 14 -17 30 -26 50 -26 65 0 93 80
43 119 -35 27 -59 26 -89 -4z"/>
<path d="M3355 3945 c-30 -30 -31 -54 -4 -89 14 -17 30 -26 50 -26 65 0 93 80
43 119 -35 27 -59 26 -89 -4z"/>
<path d="M3555 3945 c-30 -30 -31 -54 -4 -89 14 -17 30 -26 50 -26 65 0 93 80
43 119 -35 27 -59 26 -89 -4z"/>
<path d="M3765 3945 c-30 -30 -31 -54 -4 -89 14 -17 30 -26 50 -26 65 0 93 80
43 119 -35 27 -59 26 -89 -4z"/>
<path d="M4765 3945 c-30 -30 -31 -54 -4 -89 14 -17 30 -26 50 -26 65 0 93 80
43 119 -35 27 -59 26 -89 -4z"/>
<path d="M4965 3945 c-30 -30 -31 -54 -4 -89 14 -17 30 -26 50 -26 65 0 93 80
43 119 -35 27 -59 26 -89 -4z"/>
<path d="M2135 3745 c-30 -30 -31 -54 -4 -89 14 -17 30 -26 50 -26 65 0 93 80
43 119 -35 27 -59 26 -89 -4z"/>
<path d="M2335 3745 c-30 -30 -31 -54 -4 -89 14 -17 30 -26 50 -26 65 0 93 80
43 119 -35 27 -59 26 -89 -4z"/>
<path d="M3555 3745 c-30 -30 -31 -54 -4 -89 14 -17 30 -26 50 -26 65 0 93 80
43 119 -35 27 -59 26 -89 -4z"/>
<path d="M3765 3745 c-30 -30 -31 -54 -4 -89 14 -17 30 -26 50 -26 65 0 93 80
43 119 -35 27 -59 26 -89 -4z"/>
<path d="M2135 3545 c-30 -30 -31 -54 -4 -89 14 -17 30 -26 50 -26 65 0 93 80
43 119 -35 27 -59 26 -89 -4z"/>
<path d="M2335 3545 c-30 -30 -31 -54 -4 -89 14 -17 30 -26 50 -26 65 0 93 80
43 119 -35 27 -59 26 -89 -4z"/>
<path d="M3555 3545 c-30 -30 -31 -54 -4 -89 14 -17 30 -26 50 -26 65 0 93 80
43 119 -35 27 -59 26 -89 -4z"/>
<path d="M3765 3545 c-30 -30 -31 -54 -4 -89 14 -17 30 -26 50 -26 65 0 93 80
43 119 -35 27 -59 26 -89 -4z"/>
<path d="M1535 3345 c-30 -30 -31 -54 -4 -89 14 -17 30 -26 50 -26 65 0 93 80
43 119 -35 27 -59 26 -89 -4z"/>
<path d="M1735 3345 c-30 -30 -31 -54 -4 -89 14 -17 30 -26 50 -26 65 0 93 80
43 119 -35 27 -59 26 -89 -4z"/>
<path d="M1935 3345 c-30 -30 -31 -54 -4 -89 14 -17 30 -26 50 -26 65 0 93 80
43 119 -35 27 -59 26 -89 -4z"/>
<path d="M2135 3345 c-30 -30 -31 -54 -4 -89 14 -17 30 -26 50 -26 65 0 93 80
43 119 -35 27 -59 26 -89 -4z"/>
<path d="M2335 3345 c-30 -30 -31 -54 -4 -89 14 -17 30 -26 50 -26 65 0 93 80
43 119 -35 27 -59 26 -89 -4z"/>
<path d="M2945 3345 c-30 -30 -31 -54 -4 -89 14 -17 30 -26 50 -26 65 0 93 80
43 119 -35 27 -59 26 -89 -4z"/>
<path d="M3145 3345 c-30 -30 -31 -54 -4 -89 14 -17 30 -26 50 -26 65 0 93 80
43 119 -35 27 -59 26 -89 -4z"/>
<path d="M3355 3345 c-30 -30 -31 -54 -4 -89 14 -17 30 -26 50 -26 65 0 93 80
43 119 -35 27 -59 26 -89 -4z"/>
<path d="M3555 3345 c-30 -30 -31 -54 -4 -89 14 -17 30 -26 50 -26 65 0 93 80
43 119 -35 27 -59 26 -89 -4z"/>
<path d="M3765 3345 c-30 -30 -31 -54 -4 -89 14 -17 30 -26 50 -26 65 0 93 80
43 119 -35 27 -59 26 -89 -4z"/>
<path d="M1335 3145 c-30 -30 -31 -54 -4 -89 14 -17 30 -26 50 -26 65 0 93 80
43 119 -35 27 -59 26 -89 -4z"/>
<path d="M1535 3145 c-30 -30 -31 -54 -4 -89 14 -17 30 -26 50 -26 65 0 93 80
43 119 -35 27 -59 26 -89 -4z"/>
<path d="M1735 3145 c-30 -30 -31 -54 -4 -89 14 -17 30 -26 50 -26 65 0 93 80
43 119 -35 27 -59 26 -89 -4z"/>
<path d="M1935 3145 c-30 -30 -31 -54 -4 -89 14 -17 30 -26 50 -26 65 0 93 80
43 119 -35 27 -59 26 -89 -4z"/>
<path d="M2135 3145 c-30 -30 -31 -54 -4 -89 14 -17 30 -26 50 -26 65 0 93 80
43 119 -35 27 -59 26 -89 -4z"/>
<path d="M2745 3145 c-30 -30 -31 -54 -4 -89 14 -17 30 -26 50 -26 65 0 93 80
43 119 -35 27 -59 26 -89 -4z"/>
<path d="M2945 3145 c-30 -30 -31 -54 -4 -89 14 -17 30 -26 50 -26 65 0 93 80
43 119 -35 27 -59 26 -89 -4z"/>
<path d="M3145 3145 c-30 -30 -31 -54 -4 -89 14 -17 30 -26 50 -26 65 0 93 80
43 119 -35 27 -59 26 -89 -4z"/>
<path d="M3355 3145 c-30 -30 -31 -54 -4 -89 14 -17 30 -26 50 -26 65 0 93 80
43 119 -35 27 -59 26 -89 -4z"/>
<path d="M3555 3145 c-30 -30 -31 -54 -4 -89 14 -17 30 -26 50 -26 65 0 93 80
43 119 -35 27 -59 26 -89 -4z"/>
<path d="M4565 3145 c-30 -30 -31 -54 -4 -89 14 -17 30 -26 50 -26 65 0 93 80
43 119 -35 27 -59 26 -89 -4z"/>
<path d="M4765 3145 c-30 -30 -31 -54 -4 -89 14 -17 30 -26 50 -26 65 0 93 80
43 119 -35 27 -59 26 -89 -4z"/>
<path d="M4965 3145 c-30 -30 -31 -54 -4 -89 14 -17 30 -26 50 -26 65 0 93 80
43 119 -35 27 -59 26 -89 -4z"/>
<path d="M1335 2945 c-30 -30 -31 -54 -4 -89 14 -17 30 -26 50 -26 65 0 93 80
43 119 -35 27 -59 26 -89 -4z"/>
<path d="M1535 2945 c-30 -30 -31 -54 -4 -89 14 -17 30 -26 50 -26 65 0 93 80
43 119 -35 27 -59 26 -89 -4z"/>
<path d="M2745 2945 c-30 -30 -31 -54 -4 -89 14 -17 30 -26 50 -26 65 0 93 80
43 119 -35 27 -59 26 -89 -4z"/>
<path d="M2945 2945 c-30 -30 -31 -54 -4 -89 14 -17 30 -26 50 -26 65 0 93 80
43 119 -35 27 -59 26 -89 -4z"/>
<path d="M4565 2945 c-30 -30 -31 -54 -4 -89 14 -17 30 -26 50 -26 65 0 93 80
43 119 -35 27 -59 26 -89 -4z"/>
<path d="M4965 2945 c-30 -30 -31 -54 -4 -89 14 -17 30 -26 50 -26 65 0 93 80
43 119 -35 27 -59 26 -89 -4z"/>
<path d="M1335 2745 c-30 -30 -31 -54 -4 -89 14 -17 30 -26 50 -26 65 0 93 80
43 119 -35 27 -59 26 -89 -4z"/>
<path d="M1535 2745 c-30 -30 -31 -54 -4 -89 14 -17 30 -26 50 -26 65 0 93 80
43 119 -35 27 -59 26 -89 -4z"/>
<path d="M2745 2745 c-30 -30 -31 -54 -4 -89 14 -17 30 -26 50 -26 65 0 93 80
43 119 -35 27 -59 26 -89 -4z"/>
<path d="M2945 2745 c-30 -30 -31 -54 -4 -89 14 -17 30 -26 50 -26 65 0 93 80
43 119 -35 27 -59 26 -89 -4z"/>
<path d="M4565 2745 c-30 -30 -31 -54 -4 -89 14 -17 30 -26 50 -26 65 0 93 80
43 119 -35 27 -59 26 -89 -4z"/>
<path d="M4965 2745 c-30 -30 -31 -54 -4 -89 14 -17 30 -26 50 -26 65 0 93 80
43 119 -35 27 -59 26 -89 -4z"/>
<path d="M1335 2545 c-30 -30 -31 -54 -4 -89 14 -17 30 -26 50 -26 65 0 93 80
43 119 -35 27 -59 26 -89 -4z"/>
<path d="M1535 2545 c-30 -30 -31 -54 -4 -89 14 -17 30 -26 50 -26 65 0 93 80
43 119 -35 27 -59 26 -89 -4z"/>
<path d="M1735 2545 c-30 -30 -31 -54 -4 -89 14 -17 30 -26 50 -26 65 0 93 80
43 119 -35 27 -59 26 -89 -4z"/>
<path d="M1935 2545 c-30 -30 -31 -54 -4 -89 14 -17 30 -26 50 -26 65 0 93 80
43 119 -35 27 -59 26 -89 -4z"/>
<path d="M2135 2545 c-30 -30 -31 -54 -4 -89 14 -17 30 -26 50 -26 65 0 93 80
43 119 -35 27 -59 26 -89 -4z"/>
<path d="M2335 2545 c-30 -30 -31 -54 -4 -89 14 -17 30 -26 50 -26 65 0 93 80
43 119 -35 27 -59 26 -89 -4z"/>
<path d="M2745 2545 c-30 -30 -31 -54 -4 -89 14 -17 30 -26 50 -26 65 0 93 80
43 119 -35 27 -59 26 -89 -4z"/>
<path d="M2945 2545 c-30 -30 -31 -54 -4 -89 14 -17 30 -26 50 -26 65 0 93 80
43 119 -35 27 -59 26 -89 -4z"/>
<path d="M3145 2545 c-30 -30 -31 -54 -4 -89 14 -17 30 -26 50 -26 65 0 93 80
43 119 -35 27 -59 26 -89 -4z"/>
<path d="M3355 2545 c-30 -30 -31 -54 -4 -89 14 -17 30 -26 50 -26 65 0 93 80
43 119 -35 27 -59 26 -89 -4z"/>
<path d="M3555 2545 c-30 -30 -31 -54 -4 -89 14 -17 30 -26 50 -26 65 0 93 80
43 119 -35 27 -59 26 -89 -4z"/>
<path d="M3765 2545 c-30 -30 -31 -54 -4 -89 14 -17 30 -26 50 -26 65 0 93 80
43 119 -35 27 -59 26 -89 -4z"/>
<path d="M4565 2545 c-30 -30 -31 -54 -4 -89 14 -17 30 -26 50 -26 65 0 93 80
43 119 -35 27 -59 26 -89 -4z"/>
<path d="M4965 2545 c-30 -30 -31 -54 -4 -89 14 -17 30 -26 50 -26 65 0 93 80
43 119 -35 27 -59 26 -89 -4z"/>
<path d="M1335 2345 c-30 -30 -31 -54 -4 -89 14 -17 30 -26 50 -26 65 0 93 80
43 119 -35 27 -59 26 -89 -4z"/>
<path d="M1535 2345 c-30 -30 -31 -54 -4 -89 14 -17 30 -26 50 -26 65 0 93 80
43 119 -35 27 -59 26 -89 -4z"/>
<path d="M1735 2345 c-30 -30 -31 -54 -4 -89 14 -17 30 -26 50 -26 65 0 93 80
43 119 -35 27 -59 26 -89 -4z"/>
<path d="M1935 2345 c-30 -30 -31 -54 -4 -89 14 -17 30 -26 50 -26 65 0 93 80
43 119 -35 27 -59 26 -89 -4z"/>
<path d="M2135 2345 c-30 -30 -31 -54 -4 -89 14 -17 30 -26 50 -26 65 0 93 80
43 119 -35 27 -59 26 -89 -4z"/>
<path d="M2335 2345 c-30 -30 -31 -54 -4 -89 14 -17 30 -26 50 -26 65 0 93 80
43 119 -35 27 -59 26 -89 -4z"/>
<path d="M2745 2345 c-30 -30 -31 -54 -4 -89 14 -17 30 -26 50 -26 65 0 93 80
43 119 -35 27 -59 26 -89 -4z"/>
<path d="M2945 2345 c-30 -30 -31 -54 -4 -89 14 -17 30 -26 50 -26 65 0 93 80
43 119 -35 27 -59 26 -89 -4z"/>
<path d="M3145 2345 c-30 -30 -31 -54 -4 -89 14 -17 30 -26 50 -26 65 0 93 80
43 119 -35 27 -59 26 -89 -4z"/>
<path d="M3355 2345 c-30 -30 -31 -54 -4 -89 14 -17 30 -26 50 -26 65 0 93 80
43 119 -35 27 -59 26 -89 -4z"/>
<path d="M3555 2345 c-30 -30 -31 -54 -4 -89 14 -17 30 -26 50 -26 65 0 93 80
43 119 -35 27 -59 26 -89 -4z"/>
<path d="M3765 2345 c-30 -30 -31 -54 -4 -89 14 -17 30 -26 50 -26 65 0 93 80
43 119 -35 27 -59 26 -89 -4z"/>
<path d="M4165 2345 c-30 -30 -31 -54 -4 -89 14 -17 30 -26 50 -26 65 0 93 80
43 119 -35 27 -59 26 -89 -4z"/>
<path d="M4565 2345 c-30 -30 -31 -54 -4 -89 14 -17 30 -26 50 -26 65 0 93 80
43 119 -35 27 -59 26 -89 -4z"/>
<path d="M4765 2345 c-30 -30 -31 -54 -4 -89 14 -17 30 -26 50 -26 65 0 93 80
43 119 -35 27 -59 26 -89 -4z"/>
<path d="M4965 2345 c-30 -30 -31 -54 -4 -89 14 -17 30 -26 50 -26 65 0 93 80
43 119 -35 27 -59 26 -89 -4z"/>
<path d="M5153 1615 c-86 -24 -154 -64 -224 -134 -105 -105 -149 -210 -149
-357 0 -143 46 -253 150 -355 160 -158 375 -193 577 -94 194 95 308 315 274
526 -31 196 -181 364 -372 414 -68 18 -188 18 -256 0z m218 -40 c107 -13 247
-114 312 -225 62 -106 73 -274 27 -390 -49 -125 -166 -233 -292 -271 -55 -17
-88 -21 -161 -17 -81 3 -102 8 -167 39 -318 152 -360 571 -78 784 78 59 207
98 288 89 14 -2 46 -6 71 -9z"/>
</g>
</svg>
