<?xml version="1.0" standalone="no"?>
<!DOCTYPE svg PUBLIC "-//W3C//DTD SVG 20010904//EN"
 "http://www.w3.org/TR/2001/REC-SVG-20010904/DTD/svg10.dtd">
<svg version="1.0" xmlns="http://www.w3.org/2000/svg"
 width="641.000000pt" height="641.000000pt" viewBox="0 0 641.000000 641.000000"
 preserveAspectRatio="xMidYMid meet">
<metadata>
Created by potrace 1.13, written by Peter Selinger 2001-2015
</metadata>
<g transform="translate(0.000000,641.000000) scale(0.100000,-0.100000)"
fill="#000000" stroke="none">
<path d="M840 6393 c-412 -41 -739 -336 -821 -740 -19 -89 -19 -171 -17 -2485
l3 -2393 22 -77 c99 -346 353 -590 703 -674 71 -17 201 -18 2385 -22 1555 -2
2348 1 2427 8 241 21 436 115 599 286 139 148 219 317 242 517 9 77 11 677 7
2467 l-5 2365 -23 73 c-65 211 -188 386 -357 508 -72 53 -218 120 -315 146
l-85 23 -2365 1 c-1301 0 -2381 -1 -2400 -3z m4835 -121 c259 -73 461 -250
556 -488 63 -158 59 16 57 -2616 l-3 -2403 -24 -70 c-114 -338 -374 -550 -718
-585 -76 -8 -801 -10 -2423 -8 l-2315 3 -80 22 c-292 82 -503 285 -592 568
l-28 90 -3 2375 c-2 1658 1 2395 8 2440 60 360 346 643 697 689 38 5 1104 8
2428 7 l2360 -1 80 -23z"/>
<path d="M1335 4145 c-30 -30 -31 -54 -4 -89 14 -17 30 -26 50 -26 65 0 93 80
43 119 -35 27 -59 26 -89 -4z"/>
<path d="M1535 4145 c-30 -30 -31 -54 -4 -89 14 -17 30 -26 50 -26 65 0 93 80
43 119 -35 27 -59 26 -89 -4z"/>
<path d="M1735 4145 c-30 -30 -31 -54 -4 -89 14 -17 30 -26 50 -26 65 0 93 80
43 119 -35 27 -59 26 -89 -4z"/>
<path d="M1935 4145 c-30 -30 -31 -54 -4 -89 14 -17 30 -26 50 -26 65 0 93 80
43 119 -35 27 -59 26 -89 -4z"/>
<path d="M2135 4145 c-30 -30 -31 -54 -4 -89 14 -17 30 -26 50 -26 65 0 93 80
43 119 -35 27 -59 26 -89 -4z"/>
<path d="M2745 4145 c-30 -30 -31 -54 -4 -89 14 -17 30 -26 50 -26 65 0 93 80
43 119 -35 27 -59 26 -89 -4z"/>
<path d="M2945 4145 c-30 -30 -31 -54 -4 -89 14 -17 30 -26 50 -26 65 0 93 80
43 119 -35 27 -59 26 -89 -4z"/>
<path d="M3145 4145 c-30 -30 -31 -54 -4 -89 14 -17 30 -26 50 -26 65 0 93 80
43 119 -35 27 -59 26 -89 -4z"/>
<path d="M3355 4145 c-30 -30 -31 -54 -4 -89 14 -17 30 -26 50 -26 65 0 93 80
43 119 -35 27 -59 26 -89 -4z"/>
<path d="M3555 4145 c-30 -30 -31 -54 -4 -89 14 -17 30 -26 50 -26 65 0 93 80
43 119 -35 27 -59 26 -89 -4z"/>
<path d="M4765 4145 c-30 -30 -31 -54 -4 -89 14 -17 30 -26 50 -26 65 0 93 80
43 119 -35 27 -59 26 -89 -4z"/>
<path d="M4965 4145 c-30 -30 -31 -54 -4 -89 14 -17 30 -26 50 -26 65 0 93 80
43 119 -35 27 -59 26 -89 -4z"/>
<path d="M1335 3945 c-30 -30 -31 -54 -4 -89 14 -17 30 -26 50 -26 65 0 93 80
43 119 -35 27 -59 26 -89 -4z"/>
<path d="M1535 3945 c-30 -30 -31 -54 -4 -89 14 -17 30 -26 50 -26 65 0 93 80
43 119 -35 27 -59 26 -89 -4z"/>
<path d="M1735 3945 c-30 -30 -31 -54 -4 -89 14 -17 30 -26 50 -26 65 0 93 80
43 119 -35 27 -59 26 -89 -4z"/>
<path d="M1935 3945 c-30 -30 -31 -54 -4 -89 14 -17 30 -26 50 -26 65 0 93 80
43 119 -35 27 -59 26 -89 -4z"/>
<path d="M2135 3945 c-30 -30 -31 -54 -4 -89 14 -17 30 -26 50 -26 65 0 93 80
43 119 -35 27 -59 26 -89 -4z"/>
<path d="M2335 3945 c-30 -30 -31 -54 -4 -89 14 -17 30 -26 50 -26 65 0 93 80
43 119 -35 27 -59 26 -89 -4z"/>
<path d="M2745 3945 c-30 -30 -31 -54 -4 -89 14 -17 30 -26 50 -26 65 0 93 80
43 119 -35 27 -59 26 -89 -4z"/>
<path d="M2945 3945 c-30 -30 -31 -54 -4 -89 14 -17 30 -26 50 -26 65 0 93 80
43 119 -35 27 -59 26 -89 -4z"/>
<path d="M3145 3945 c-30 -30 -31 -54 -4 -89 14 -17 30 -26 50 -26 65 0 93 80
43 119 -35 27 -59 26 -89 -4z"/>
<path d="M3355 3945 c-30 -30 -31 -54 -4 -89 14 -17 30 -26 50 -26 65 0 93 80
43 119 -35 27 -59 26 -89 -4z"/>
<path d="M3555 3945 c-30 -30 -31 -54 -4 -89 14 -17 30 -26 50 -26 65 0 93 80
43 119 -35 27 -59 26 -89 -4z"/>
<path d="M3765 3945 c-30 -30 -31 -54 -4 -89 14 -17 30 -26 50 -26 65 0 93 80
43 119 -35 27 -59 26 -89 -4z"/>
<path d="M4765 3945 c-30 -30 -31 -54 -4 -89 14 -17 30 -26 50 -26 65 0 93 80
43 119 -35 27 -59 26 -89 -4z"/>
<path d="M4965 3945 c-30 -30 -31 -54 -4 -89 14 -17 30 -26 50 -26 65 0 93 80
43 119 -35 27 -59 26 -89 -4z"/>
<path d="M2135 3745 c-30 -30 -31 -54 -4 -89 14 -17 30 -26 50 -26 65 0 93 80
43 119 -35 27 -59 26 -89 -4z"/>
<path d="M2335 3745 c-30 -30 -31 -54 -4 -89 14 -17 30 -26 50 -26 65 0 93 80
43 119 -35 27 -59 26 -89 -4z"/>
<path d="M3555 3745 c-30 -30 -31 -54 -4 -89 14 -17 30 -26 50 -26 65 0 93 80
43 119 -35 27 -59 26 -89 -4z"/>
<path d="M3765 3745 c-30 -30 -31 -54 -4 -89 14 -17 30 -26 50 -26 65 0 93 80
43 119 -35 27 -59 26 -89 -4z"/>
<path d="M2135 3545 c-30 -30 -31 -54 -4 -89 14 -17 30 -26 50 -26 65 0 93 80
43 119 -35 27 -59 26 -89 -4z"/>
<path d="M2335 3545 c-30 -30 -31 -54 -4 -89 14 -17 30 -26 50 -26 65 0 93 80
43 119 -35 27 -59 26 -89 -4z"/>
<path d="M3555 3545 c-30 -30 -31 -54 -4 -89 14 -17 30 -26 50 -26 65 0 93 80
43 119 -35 27 -59 26 -89 -4z"/>
<path d="M3765 3545 c-30 -30 -31 -54 -4 -89 14 -17 30 -26 50 -26 65 0 93 80
43 119 -35 27 -59 26 -89 -4z"/>
<path d="M1535 3345 c-30 -30 -31 -54 -4 -89 14 -17 30 -26 50 -26 65 0 93 80
43 119 -35 27 -59 26 -89 -4z"/>
<path d="M1735 3345 c-30 -30 -31 -54 -4 -89 14 -17 30 -26 50 -26 65 0 93 80
43 119 -35 27 -59 26 -89 -4z"/>
<path d="M1935 3345 c-30 -30 -31 -54 -4 -89 14 -17 30 -26 50 -26 65 0 93 80
43 119 -35 27 -59 26 -89 -4z"/>
<path d="M2135 3345 c-30 -30 -31 -54 -4 -89 14 -17 30 -26 50 -26 65 0 93 80
43 119 -35 27 -59 26 -89 -4z"/>
<path d="M2335 3345 c-30 -30 -31 -54 -4 -89 14 -17 30 -26 50 -26 65 0 93 80
43 119 -35 27 -59 26 -89 -4z"/>
<path d="M2945 3345 c-30 -30 -31 -54 -4 -89 14 -17 30 -26 50 -26 65 0 93 80
43 119 -35 27 -59 26 -89 -4z"/>
<path d="M3145 3345 c-30 -30 -31 -54 -4 -89 14 -17 30 -26 50 -26 65 0 93 80
43 119 -35 27 -59 26 -89 -4z"/>
<path d="M3355 3345 c-30 -30 -31 -54 -4 -89 14 -17 30 -26 50 -26 65 0 93 80
43 119 -35 27 -59 26 -89 -4z"/>
<path d="M3555 3345 c-30 -30 -31 -54 -4 -89 14 -17 30 -26 50 -26 65 0 93 80
43 119 -35 27 -59 26 -89 -4z"/>
<path d="M3765 3345 c-30 -30 -31 -54 -4 -89 14 -17 30 -26 50 -26 65 0 93 80
43 119 -35 27 -59 26 -89 -4z"/>
<path d="M1335 3145 c-30 -30 -31 -54 -4 -89 14 -17 30 -26 50 -26 65 0 93 80
43 119 -35 27 -59 26 -89 -4z"/>
<path d="M1535 3145 c-30 -30 -31 -54 -4 -89 14 -17 30 -26 50 -26 65 0 93 80
43 119 -35 27 -59 26 -89 -4z"/>
<path d="M1735 3145 c-30 -30 -31 -54 -4 -89 14 -17 30 -26 50 -26 65 0 93 80
43 119 -35 27 -59 26 -89 -4z"/>
<path d="M1935 3145 c-30 -30 -31 -54 -4 -89 14 -17 30 -26 50 -26 65 0 93 80
43 119 -35 27 -59 26 -89 -4z"/>
<path d="M2135 3145 c-30 -30 -31 -54 -4 -89 14 -17 30 -26 50 -26 65 0 93 80
43 119 -35 27 -59 26 -89 -4z"/>
<path d="M2745 3145 c-30 -30 -31 -54 -4 -89 14 -17 30 -26 50 -26 65 0 93 80
43 119 -35 27 -59 26 -89 -4z"/>
<path d="M2945 3145 c-30 -30 -31 -54 -4 -89 14 -17 30 -26 50 -26 65 0 93 80
43 119 -35 27 -59 26 -89 -4z"/>
<path d="M3145 3145 c-30 -30 -31 -54 -4 -89 14 -17 30 -26 50 -26 65 0 93 80
43 119 -35 27 -59 26 -89 -4z"/>
<path d="M3355 3145 c-30 -30 -31 -54 -4 -89 14 -17 30 -26 50 -26 65 0 93 80
43 119 -35 27 -59 26 -89 -4z"/>
<path d="M3555 3145 c-30 -30 -31 -54 -4 -89 14 -17 30 -26 50 -26 65 0 93 80
43 119 -35 27 -59 26 -89 -4z"/>
<path d="M4565 3145 c-30 -30 -31 -54 -4 -89 14 -17 30 -26 50 -26 65 0 93 80
43 119 -35 27 -59 26 -89 -4z"/>
<path d="M4765 3145 c-30 -30 -31 -54 -4 -89 14 -17 30 -26 50 -26 65 0 93 80
43 119 -35 27 -59 26 -89 -4z"/>
<path d="M4965 3145 c-30 -30 -31 -54 -4 -89 14 -17 30 -26 50 -26 65 0 93 80
43 119 -35 27 -59 26 -89 -4z"/>
<path d="M1335 2945 c-30 -30 -31 -54 -4 -89 14 -17 30 -26 50 -26 65 0 93 80
43 119 -35 27 -59 26 -89 -4z"/>
<path d="M1535 2945 c-30 -30 -31 -54 -4 -89 14 -17 30 -26 50 -26 65 0 93 80
43 119 -35 27 -59 26 -89 -4z"/>
<path d="M2745 2945 c-30 -30 -31 -54 -4 -89 14 -17 30 -26 50 -26 65 0 93 80
43 119 -35 27 -59 26 -89 -4z"/>
<path d="M2945 2945 c-30 -30 -31 -54 -4 -89 14 -17 30 -26 50 -26 65 0 93 80
43 119 -35 27 -59 26 -89 -4z"/>
<path d="M4565 2945 c-30 -30 -31 -54 -4 -89 14 -17 30 -26 50 -26 65 0 93 80
43 119 -35 27 -59 26 -89 -4z"/>
<path d="M4965 2945 c-30 -30 -31 -54 -4 -89 14 -17 30 -26 50 -26 65 0 93 80
43 119 -35 27 -59 26 -89 -4z"/>
<path d="M1335 2745 c-30 -30 -31 -54 -4 -89 14 -17 30 -26 50 -26 65 0 93 80
43 119 -35 27 -59 26 -89 -4z"/>
<path d="M1535 2745 c-30 -30 -31 -54 -4 -89 14 -17 30 -26 50 -26 65 0 93 80
43 119 -35 27 -59 26 -89 -4z"/>
<path d="M2745 2745 c-30 -30 -31 -54 -4 -89 14 -17 30 -26 50 -26 65 0 93 80
43 119 -35 27 -59 26 -89 -4z"/>
<path d="M2945 2745 c-30 -30 -31 -54 -4 -89 14 -17 30 -26 50 -26 65 0 93 80
43 119 -35 27 -59 26 -89 -4z"/>
<path d="M4565 2745 c-30 -30 -31 -54 -4 -89 14 -17 30 -26 50 -26 65 0 93 80
43 119 -35 27 -59 26 -89 -4z"/>
<path d="M4965 2745 c-30 -30 -31 -54 -4 -89 14 -17 30 -26 50 -26 65 0 93 80
43 119 -35 27 -59 26 -89 -4z"/>
<path d="M1335 2545 c-30 -30 -31 -54 -4 -89 14 -17 30 -26 50 -26 65 0 93 80
43 119 -35 27 -59 26 -89 -4z"/>
<path d="M1535 2545 c-30 -30 -31 -54 -4 -89 14 -17 30 -26 50 -26 65 0 93 80
43 119 -35 27 -59 26 -89 -4z"/>
<path d="M1735 2545 c-30 -30 -31 -54 -4 -89 14 -17 30 -26 50 -26 65 0 93 80
43 119 -35 27 -59 26 -89 -4z"/>
<path d="M1935 2545 c-30 -30 -31 -54 -4 -89 14 -17 30 -26 50 -26 65 0 93 80
43 119 -35 27 -59 26 -89 -4z"/>
<path d="M2135 2545 c-30 -30 -31 -54 -4 -89 14 -17 30 -26 50 -26 65 0 93 80
43 119 -35 27 -59 26 -89 -4z"/>
<path d="M2335 2545 c-30 -30 -31 -54 -4 -89 14 -17 30 -26 50 -26 65 0 93 80
43 119 -35 27 -59 26 -89 -4z"/>
<path d="M2745 2545 c-30 -30 -31 -54 -4 -89 14 -17 30 -26 50 -26 65 0 93 80
43 119 -35 27 -59 26 -89 -4z"/>
<path d="M2945 2545 c-30 -30 -31 -54 -4 -89 14 -17 30 -26 50 -26 65 0 93 80
43 119 -35 27 -59 26 -89 -4z"/>
<path d="M3145 2545 c-30 -30 -31 -54 -4 -89 14 -17 30 -26 50 -26 65 0 93 80
43 119 -35 27 -59 26 -89 -4z"/>
<path d="M3355 2545 c-30 -30 -31 -54 -4 -89 14 -17 30 -26 50 -26 65 0 93 80
43 119 -35 27 -59 26 -89 -4z"/>
<path d="M3555 2545 c-30 -30 -31 -54 -4 -89 14 -17 30 -26 50 -26 65 0 93 80
43 119 -35 27 -59 26 -89 -4z"/>
<path d="M3765 2545 c-30 -30 -31 -54 -4 -89 14 -17 30 -26 50 -26 65 0 93 80
43 119 -35 27 -59 26 -89 -4z"/>
<path d="M4565 2545 c-30 -30 -31 -54 -4 -89 14 -17 30 -26 50 -26 65 0 93 80
43 119 -35 27 -59 26 -89 -4z"/>
<path d="M4965 2545 c-30 -30 -31 -54 -4 -89 14 -17 30 -26 50 -26 65 0 93 80
43 119 -35 27 -59 26 -89 -4z"/>
<path d="M1335 2345 c-30 -30 -31 -54 -4 -89 14 -17 30 -26 50 -26 65 0 93 80
43 119 -35 27 -59 26 -89 -4z"/>
<path d="M1535 2345 c-30 -30 -31 -54 -4 -89 14 -17 30 -26 50 -26 65 0 93 80
43 119 -35 27 -59 26 -89 -4z"/>
<path d="M1735 2345 c-30 -30 -31 -54 -4 -89 14 -17 30 -26 50 -26 65 0 93 80
43 119 -35 27 -59 26 -89 -4z"/>
<path d="M1935 2345 c-30 -30 -31 -54 -4 -89 14 -17 30 -26 50 -26 65 0 93 80
43 119 -35 27 -59 26 -89 -4z"/>
<path d="M2135 2345 c-30 -30 -31 -54 -4 -89 14 -17 30 -26 50 -26 65 0 93 80
43 119 -35 27 -59 26 -89 -4z"/>
<path d="M2335 2345 c-30 -30 -31 -54 -4 -89 14 -17 30 -26 50 -26 65 0 93 80
43 119 -35 27 -59 26 -89 -4z"/>
<path d="M2745 2345 c-30 -30 -31 -54 -4 -89 14 -17 30 -26 50 -26 65 0 93 80
43 119 -35 27 -59 26 -89 -4z"/>
<path d="M2945 2345 c-30 -30 -31 -54 -4 -89 14 -17 30 -26 50 -26 65 0 93 80
43 119 -35 27 -59 26 -89 -4z"/>
<path d="M3145 2345 c-30 -30 -31 -54 -4 -89 14 -17 30 -26 50 -26 65 0 93 80
43 119 -35 27 -59 26 -89 -4z"/>
<path d="M3355 2345 c-30 -30 -31 -54 -4 -89 14 -17 30 -26 50 -26 65 0 93 80
43 119 -35 27 -59 26 -89 -4z"/>
<path d="M3555 2345 c-30 -30 -31 -54 -4 -89 14 -17 30 -26 50 -26 65 0 93 80
43 119 -35 27 -59 26 -89 -4z"/>
<path d="M3765 2345 c-30 -30 -31 -54 -4 -89 14 -17 30 -26 50 -26 65 0 93 80
43 119 -35 27 -59 26 -89 -4z"/>
<path d="M4165 2345 c-30 -30 -31 -54 -4 -89 14 -17 30 -26 50 -26 65 0 93 80
43 119 -35 27 -59 26 -89 -4z"/>
<path d="M4565 2345 c-30 -30 -31 -54 -4 -89 14 -17 30 -26 50 -26 65 0 93 80
43 119 -35 27 -59 26 -89 -4z"/>
<path d="M4765 2345 c-30 -30 -31 -54 -4 -89 14 -17 30 -26 50 -26 65 0 93 80
43 119 -35 27 -59 26 -89 -4z"/>
<path d="M4965 2345 c-30 -30 -31 -54 -4 -89 14 -17 30 -26 50 -26 65 0 93 80
43 119 -35 27 -59 26 -89 -4z"/>
<path d="M5153 1615 c-86 -24 -154 -64 -224 -134 -105 -105 -149 -210 -149
-357 0 -143 46 -253 150 -355 160 -158 375 -193 577 -94 194 95 308 315 274
526 -31 196 -181 364 -372 414 -68 18 -188 18 -256 0z m218 -40 c107 -13 247
-114 312 -225 62 -106 73 -274 27 -390 -49 -125 -166 -233 -292 -271 -55 -17
-88 -21 -161 -17 -81 3 -102 8 -167 39 -318 152 -360 571 -78 784 78 59 207
98 288 89 14 -2 46 -6 71 -9z"/>
</g>
</svg>
