<?xml version="1.0" standalone="no"?>
<!DOCTYPE svg PUBLIC "-//W3C//DTD SVG 20010904//EN"
 "http://www.w3.org/TR/2001/REC-SVG-20010904/DTD/svg10.dtd">
<svg version="1.0" xmlns="http://www.w3.org/2000/svg"
 width="646.000000pt" height="646.000000pt" viewBox="0 0 646.000000 646.000000"
 preserveAspectRatio="xMidYMid meet">
<metadata>
Created by potrace 1.13, written by Peter Selinger 2001-2015
</metadata>
<g transform="translate(0.000000,646.000000) scale(0.100000,-0.100000)"
fill="#000000" stroke="none">
<path d="M1894 6447 c-2 -7 -3 -212 -2 -454 3 -428 4 -442 24 -470 34 -46 98
-73 176 -73 l68 0 0 -155 0 -155 -245 0 -246 0 -272 -111 c-150 -61 -278 -114
-285 -118 -9 -5 -12 -335 -12 -1603 0 -877 2 -1602 4 -1609 2 -8 7 -90 10
-184 6 -155 12 -312 49 -1099 l12 -259 255 -78 254 -79 1552 0 1551 0 194 61
c107 34 219 68 249 77 30 8 56 16 57 16 1 1 11 193 38 786 45 970 45 975 45
2490 l0 1476 -288 117 -288 117 -237 0 -237 0 0 154 0 153 83 5 c103 5 143 25
175 88 22 45 22 45 20 480 l-3 435 -1348 3 c-1101 2 -1349 0 -1353 -11z m128
-428 c3 -334 4 -351 22 -365 11 -8 25 -14 31 -14 6 0 20 6 31 14 18 14 19 31
22 365 l3 351 54 0 54 0 3 -351 c3 -334 4 -351 22 -365 11 -8 25 -14 31 -14 6
0 20 6 31 14 18 14 19 31 22 365 l3 351 74 0 75 0 0 -344 c0 -318 1 -345 18
-366 24 -30 68 -21 82 16 6 14 10 169 10 360 l0 334 105 0 105 0 0 -334 c0
-191 4 -346 10 -360 14 -37 58 -46 82 -16 17 21 18 48 18 366 l0 344 130 0
130 0 2 -357 3 -358 29 -10 c24 -8 31 -6 47 14 18 22 19 44 19 367 l0 344 130
0 130 0 0 -349 c0 -304 2 -352 16 -365 20 -21 43 -20 66 1 17 15 18 40 18 365
l0 348 110 0 110 0 0 -347 c0 -308 2 -348 17 -365 20 -22 41 -23 65 -1 17 15
18 40 18 365 l0 348 80 0 80 0 0 -347 c0 -308 2 -348 17 -365 20 -22 41 -23
65 -1 17 15 18 40 18 365 l0 348 60 0 60 0 0 -347 c0 -308 2 -348 17 -365 20
-22 41 -23 65 -1 17 15 18 40 18 365 l0 348 35 0 35 0 0 -362 c0 -416 0 -415
-80 -455 l-44 -23 -1156 0 c-1289 0 -1198 -5 -1247 69 -23 34 -23 36 -23 402
l0 369 25 0 24 0 3 -351z m590 -671 l3 -93 50 0 50 0 3 93 3 92 519 0 519 0 3
-92 3 -93 45 0 45 0 3 93 3 92 189 0 190 0 0 -145 0 -145 -1000 0 -1000 0 0
145 0 145 185 0 184 0 3 -92z m2170 -302 c48 -21 87 -37 290 -121 38 -15 68
-30 68 -32 0 -1 -861 -3 -1912 -2 -2039 0 -1926 -2 -1823 40 125 51 230 94
275 114 l55 25 1497 0 1497 0 53 -24z m508 -1656 l0 -1420 -2060 0 -2060 0 0
1420 0 1420 2060 0 2060 0 0 -1420z m-3 -1562 c-4 -35 -9 -139 -12 -233 -3
-93 -12 -309 -20 -480 -8 -171 -19 -422 -25 -560 -6 -137 -13 -269 -17 -292
-6 -49 17 -38 -264 -127 l-205 -66 -1502 0 c-1636 0 -1507 -4 -1697 58 -49 16
-135 44 -191 61 l-101 31 -6 93 c-3 50 -11 198 -17 327 -6 129 -17 377 -25
550 -8 173 -17 402 -21 508 l-6 192 2057 0 2058 0 -6 -62z"/>
<path d="M3127 4482 c-32 -26 -116 -94 -187 -152 -71 -58 -129 -109 -129 -113
-1 -4 10 -20 24 -34 22 -25 26 -26 42 -11 10 8 84 70 166 137 l147 122 148
-122 c81 -67 155 -129 165 -137 16 -14 20 -13 42 8 14 13 25 28 24 34 0 6 -28
34 -61 61 l-61 50 -1 80 -1 80 -62 3 -63 3 0 -31 0 -31 -62 51 c-35 27 -65 50
-68 50 -3 -1 -31 -22 -63 -48z"/>
<path d="M3048 4283 l-138 -115 0 -139 0 -139 110 0 110 0 0 100 0 101 63 -3
62 -3 1 -95 2 -95 106 -3 106 -3 0 140 0 139 -140 116 c-77 64 -141 116 -142
115 -2 0 -65 -52 -140 -116z"/>
<path d="M2563 3013 c-19 -7 -16 -53 3 -60 18 -7 45 6 51 24 4 11 -23 44 -35
42 -4 0 -13 -3 -19 -6z"/>
<path d="M2650 3005 c-18 -21 -8 -50 19 -53 37 -6 52 26 25 52 -19 20 -28 20
-44 1z"/>
<path d="M2740 3005 c-19 -23 -8 -50 22 -53 34 -4 50 34 22 55 -23 17 -29 16
-44 -2z"/>
<path d="M2830 3005 c-18 -21 -8 -50 19 -53 37 -6 52 26 25 52 -19 20 -28 20
-44 1z"/>
<path d="M3080 3005 c-18 -21 -8 -50 19 -53 37 -6 52 26 25 52 -19 20 -28 20
-44 1z"/>
<path d="M3170 3005 c-19 -23 -8 -50 22 -53 34 -4 50 34 22 55 -23 17 -29 16
-44 -2z"/>
<path d="M3265 3006 c-27 -20 -15 -51 20 -51 23 0 31 5 33 22 4 29 -28 47 -53
29z"/>
<path d="M3355 3006 c-27 -20 -15 -51 20 -51 23 0 31 5 33 22 4 29 -28 47 -53
29z"/>
<path d="M3605 3000 c-15 -16 -15 -22 -5 -35 15 -18 42 -19 58 -3 16 16 15 23
-4 42 -20 21 -27 20 -49 -4z"/>
<path d="M3700 3005 c-20 -25 -8 -50 25 -50 35 0 45 24 20 49 -20 20 -29 20
-45 1z"/>
<path d="M3790 3005 c-20 -25 -8 -50 25 -50 36 0 47 31 19 52 -23 17 -29 16
-44 -2z"/>
<path d="M3880 3005 c-20 -25 -8 -50 25 -50 36 0 47 31 19 52 -23 17 -29 16
-44 -2z"/>
<path d="M2883 2914 c-15 -39 38 -67 60 -32 8 12 7 21 -2 32 -17 21 -50 20
-58 0z"/>
<path d="M3403 2914 c-8 -22 10 -49 32 -49 10 0 22 7 28 16 15 24 1 49 -28 49
-15 0 -28 -7 -32 -16z"/>
<path d="M3543 2914 c-8 -22 10 -49 32 -49 10 0 22 7 28 16 15 24 1 49 -28 49
-15 0 -28 -7 -32 -16z"/>
<path d="M3923 2914 c-8 -22 10 -49 33 -49 14 0 20 8 22 33 3 29 1 32 -23 32
-14 0 -28 -7 -32 -16z"/>
<path d="M2883 2824 c-15 -39 38 -67 60 -32 8 12 7 21 -2 32 -17 21 -50 20
-58 0z"/>
<path d="M3403 2824 c-15 -39 38 -67 60 -32 8 12 7 21 -2 32 -17 21 -50 20
-58 0z"/>
<path d="M3543 2824 c-8 -22 10 -49 32 -49 10 0 22 7 28 16 15 24 1 49 -28 49
-15 0 -28 -7 -32 -16z"/>
<path d="M3923 2824 c-8 -22 10 -49 33 -49 14 0 20 8 22 33 3 29 1 32 -23 32
-14 0 -28 -7 -32 -16z"/>
<path d="M2884 2736 c-11 -28 1 -51 25 -51 32 0 49 28 32 49 -17 20 -50 21
-57 2z"/>
<path d="M3405 2740 c-12 -20 4 -60 24 -60 28 0 47 28 34 48 -12 20 -48 28
-58 12z"/>
<path d="M3550 2735 c-15 -19 -3 -55 19 -55 36 0 57 52 25 64 -23 9 -30 8 -44
-9z"/>
<path d="M3923 2734 c-8 -22 9 -49 33 -49 30 0 27 59 -4 63 -14 2 -25 -3 -29
-14z"/>
<path d="M2562 2658 c-18 -18 -15 -55 5 -62 10 -4 24 1 37 13 19 20 19 21 1
41 -21 23 -27 24 -43 8z"/>
<path d="M2652 2658 c-26 -26 -2 -75 31 -62 24 9 29 35 11 55 -20 22 -26 23
-42 7z"/>
<path d="M2742 2658 c-30 -30 0 -78 37 -58 25 13 27 33 5 54 -19 19 -26 20
-42 4z"/>
<path d="M2832 2658 c-26 -26 -2 -75 31 -62 24 9 29 35 11 55 -20 22 -26 23
-42 7z"/>
<path d="M3082 2658 c-30 -30 0 -78 37 -58 25 13 27 33 5 54 -19 19 -26 20
-42 4z"/>
<path d="M3172 2658 c-30 -30 0 -78 37 -58 32 17 21 70 -14 70 -6 0 -16 -5
-23 -12z"/>
<path d="M3268 2659 c-39 -22 -8 -81 31 -59 23 12 27 40 9 58 -14 14 -18 14
-40 1z"/>
<path d="M3352 2658 c-30 -30 0 -78 37 -58 32 17 21 70 -14 70 -6 0 -16 -5
-23 -12z"/>
<path d="M3605 2650 c-18 -20 -18 -21 3 -43 l22 -21 22 21 c21 22 21 23 3 43
-10 11 -21 20 -25 20 -4 0 -15 -9 -25 -20z"/>
<path d="M3702 2658 c-30 -30 3 -77 40 -57 24 13 23 46 -1 59 -24 13 -24 13
-39 -2z"/>
<path d="M3792 2658 c-30 -30 3 -77 40 -57 24 13 23 46 -1 59 -24 13 -24 13
-39 -2z"/>
<path d="M3875 2648 c-15 -21 -14 -24 6 -40 16 -13 26 -15 40 -8 25 14 24 46
0 60 -26 14 -28 13 -46 -12z"/>
<path d="M2494 2566 c-10 -25 0 -51 20 -54 27 -6 48 25 35 49 -12 22 -47 25
-55 5z"/>
<path d="M3020 2565 c-18 -22 -8 -50 19 -50 32 0 49 28 32 49 -17 20 -35 20
-51 1z"/>
<path d="M2494 2476 c-10 -26 1 -51 22 -54 30 -4 48 21 34 47 -12 24 -48 28
-56 7z"/>
<path d="M3020 2475 c-19 -23 -8 -50 22 -53 19 -2 28 2 33 18 12 39 -29 66
-55 35z"/>
<path d="M2502 2391 c-8 -4 -12 -19 -10 -32 4 -29 39 -37 58 -14 11 13 10 19
-5 35 -20 22 -24 23 -43 11z"/>
<path d="M3020 2385 c-20 -25 -8 -50 25 -50 21 0 31 5 33 18 4 21 -14 47 -33
47 -7 0 -18 -7 -25 -15z"/>
<path d="M2557 2303 c-4 -3 -7 -17 -7 -30 0 -19 5 -23 29 -23 32 0 48 24 30
46 -12 15 -41 19 -52 7z"/>
<path d="M2644 2295 c-10 -25 4 -45 30 -45 27 0 42 26 25 46 -15 19 -48 18
-55 -1z"/>
<path d="M2734 2295 c-10 -25 4 -45 30 -45 30 0 40 13 31 40 -8 24 -53 28 -61
5z"/>
<path d="M2824 2295 c-10 -25 4 -45 30 -45 13 0 26 7 30 15 9 25 -5 45 -30 45
-14 0 -27 -7 -30 -15z"/>
<path d="M3074 2295 c-10 -25 4 -45 30 -45 30 0 40 13 31 40 -8 24 -53 28 -61
5z"/>
<path d="M3164 2295 c-10 -25 4 -45 30 -45 30 0 40 13 31 40 -8 24 -53 28 -61
5z"/>
<path d="M3254 2296 c-11 -28 4 -48 33 -44 22 2 28 8 28 28 0 20 -6 26 -28 28
-18 2 -29 -2 -33 -12z"/>
<path d="M3344 2296 c-11 -28 4 -48 33 -44 22 2 28 8 28 28 0 20 -6 26 -28 28
-18 2 -29 -2 -33 -12z"/>
</g>
</svg>
