<?xml version="1.0" encoding="utf-8"?>
<!-- Generator: Adobe Illustrator 16.0.3, SVG Export Plug-In . SVG Version: 6.00 Build 0)  -->
<!DOCTYPE svg PUBLIC "-//W3C//DTD SVG 1.1//EN" "http://www.w3.org/Graphics/SVG/1.1/DTD/svg11.dtd">
<svg version="1.1" id="Layer_1" xmlns="http://www.w3.org/2000/svg" xmlns:xlink="http://www.w3.org/1999/xlink" x="0px" y="0px"
	 width="206.787px" height="73.696px" viewBox="0 0 29.541 10.528" enable-background="new 0 0 29.541 10.528" xml:space="preserve">
<path d="M6.538,3.747H2.625v4.716c0,0.384,0.304,0.688,0.688,0.688h1.153l-0.003,1.149H3.088c-1.025,0-1.847-0.821-1.847-1.839
	V3.747H0.32v-1.15h0.937V0.751l1.368-0.456v2.302h3.913V3.747z"/>
<path d="M9.983,6.503H8.378c-0.465,0-1.386,0.355-1.386,1.385c0,1.147,0.934,1.376,1.386,1.376c1.15,0,1.605-0.681,1.605-1.29V6.503
	z M6.992,2.594h2.534c1.029,0,1.841,0.823,1.841,1.778v5.924H9.993V9.724c0,0-0.465,0.698-1.615,0.698
	c-1.387,0-2.766-0.958-2.766-2.544c0-1.595,1.379-2.532,2.766-2.532c0.741,0,1.605,0.003,1.605,0.003V4.402
	c0-0.314-0.242-0.654-0.668-0.654H6.992V2.594z"/>
<path d="M22.652,9.376c1.38,0,2.079-1.458,2.079-2.814c0-1.365-0.712-2.801-2.079-2.801c-1.383,0-2.075,1.436-2.075,2.81
	C20.577,7.961,21.283,9.376,22.652,9.376 M22.652,2.599c2.173,0,3.443,1.67,3.443,3.934c0,2.342-1.266,3.996-3.443,3.996
	c-2.197,0-3.451-1.667-3.451-3.996C19.201,4.264,20.455,2.599,22.652,2.599"/>
<path d="M15.287,9.381c-1.496,0-2.059-1.449-2.059-2.806c0-1.379,0.682-2.823,2.059-2.823c1.394,0,2.05,1.444,2.05,2.823
	C17.337,7.932,16.668,9.381,15.287,9.381 M18.725,6.575v-6.28l-1.377-0.003v2.987c-0.557-0.419-1.154-0.682-2.061-0.682
	c-2.201,0-3.448,1.66-3.448,3.978c0,2.179,1.247,3.952,3.448,3.952C17.461,10.527,18.72,8.75,18.725,6.575"/>
<path d="M27.699,3.512c-0.765,0-1.39-0.618-1.39-1.377c0-0.765,0.625-1.388,1.39-1.388c0.764,0,1.387,0.623,1.387,1.388
	C29.086,2.894,28.463,3.512,27.699,3.512 M27.699,0.287c-1.021,0-1.841,0.822-1.841,1.848c0,1.011,0.819,1.84,1.841,1.84
	s1.842-0.829,1.842-1.84C29.541,1.109,28.721,0.287,27.699,0.287"/>
</svg>
