<?xml version="1.0" standalone="no"?>
<!DOCTYPE svg PUBLIC "-//W3C//DTD SVG 20010904//EN"
 "http://www.w3.org/TR/2001/REC-SVG-20010904/DTD/svg10.dtd">
<svg version="1.0" xmlns="http://www.w3.org/2000/svg"
 width="814.000000pt" height="814.000000pt" viewBox="0 0 814.000000 814.000000"
 preserveAspectRatio="xMidYMid meet">
<metadata>
Created by potrace 1.13, written by Peter Selinger 2001-2015
</metadata>
<g transform="translate(0.000000,814.000000) scale(0.100000,-0.100000)"
fill="#000000" stroke="none">
<path d="M4760 5081 c0 -233 -4 -412 -9 -415 -5 -3 -33 10 -63 30 -168 115
-372 162 -613 142 -446 -37 -742 -331 -831 -823 -26 -149 -24 -416 5 -552 75
-356 249 -596 523 -722 106 -49 179 -68 300 -79 508 -47 885 238 1016 766 l26
107 3 978 4 977 -181 0 -180 0 0 -409z m-457 -556 c91 -24 136 -52 222 -139
165 -165 233 -381 222 -694 -9 -256 -81 -443 -225 -588 -140 -142 -353 -186
-548 -113 -213 80 -364 351 -381 684 -21 421 165 773 448 849 71 19 191 20
262 1z"/>
<path d="M7535 5480 c-204 -45 -348 -189 -391 -388 -18 -85 -17 -141 1 -220
60 -255 304 -422 561 -385 274 39 465 294 426 568 -36 245 -226 419 -472 430
-47 2 -103 0 -125 -5z m206 -116 c111 -33 203 -115 256 -230 24 -51 28 -72 28
-149 0 -80 -3 -97 -32 -157 -18 -39 -53 -89 -81 -117 -160 -160 -396 -159
-557 3 -72 72 -107 148 -113 246 -15 268 245 479 499 404z"/>
<path d="M438 5422 l-168 -56 -2 -256 -3 -255 -127 -3 -128 -3 0 -154 0 -154
128 -3 127 -3 5 -720 c5 -660 6 -724 23 -765 62 -155 164 -252 320 -305 72
-24 86 -25 306 -25 l231 0 0 150 0 150 -177 0 c-151 0 -184 3 -218 19 -51 23
-101 80 -115 130 -7 26 -9 263 -8 702 l3 664 543 3 542 2 0 155 0 155 -542 2
-543 3 -3 313 c-2 240 -5 312 -15 311 -6 0 -87 -26 -179 -57z"/>
<path d="M1870 4695 l0 -155 348 0 349 0 46 -31 c75 -50 87 -86 87 -271 l0
-156 -297 -5 c-342 -5 -378 -11 -542 -93 -76 -38 -110 -62 -176 -128 -89 -89
-131 -154 -167 -261 -20 -60 -23 -90 -23 -215 0 -116 4 -156 19 -200 81 -237
246 -387 511 -465 74 -22 111 -27 210 -28 178 -1 302 40 410 135 25 22 49 37
55 33 5 -3 10 -35 10 -71 l0 -64 180 0 180 0 0 848 c0 933 2 905 -62 1024 -65
122 -219 227 -363 248 -38 5 -229 10 -422 10 l-353 0 0 -155z m828 -1162 c2
-227 1 -245 -19 -299 -42 -112 -162 -207 -297 -235 -93 -19 -237 -8 -307 25
-80 37 -120 68 -160 129 -72 109 -84 266 -30 386 51 113 179 208 308 230 29 5
153 8 277 7 l225 -1 3 -242z"/>
<path d="M6140 4839 c-420 -29 -722 -297 -825 -734 -37 -157 -48 -419 -25
-575 58 -383 244 -663 526 -791 255 -116 603 -110 849 14 159 80 280 202 373
377 189 354 183 915 -12 1265 -177 315 -487 470 -886 444z m205 -314 c80 -21
133 -49 200 -104 275 -228 354 -750 170 -1123 -71 -143 -159 -235 -284 -296
-75 -37 -77 -37 -201 -37 -147 0 -200 17 -301 92 -354 266 -390 979 -67 1319
37 38 91 83 120 99 113 62 247 80 363 50z"/>
</g>
</svg>
