<?xml version="1.0" standalone="no"?>
<!DOCTYPE svg PUBLIC "-//W3C//DTD SVG 20010904//EN"
 "http://www.w3.org/TR/2001/REC-SVG-20010904/DTD/svg10.dtd">
<svg version="1.0" xmlns="http://www.w3.org/2000/svg"
 width="720.000000pt" height="501.000000pt" viewBox="0 0 720.000000 501.000000"
 preserveAspectRatio="xMidYMid meet">
<metadata>
Created by potrace 1.13, written by Peter Selinger 2001-2015
</metadata>
<g transform="translate(0.000000,501.000000) scale(0.100000,-0.100000)"
fill="#000000" stroke="none">
<path d="M3205 4994 c-291 -28 -515 -62 -720 -108 -778 -177 -1397 -530 -1720
-981 -120 -167 -215 -411 -215 -550 0 -47 -3 -54 -46 -95 -77 -75 -194 -219
-261 -322 -107 -162 -189 -361 -224 -543 -21 -106 -18 -388 5 -495 65 -299
212 -560 460 -818 479 -497 1289 -865 2216 -1006 348 -53 466 -61 900 -61 495
0 737 22 1155 106 530 107 1060 309 1443 549 258 162 537 407 677 595 145 194
243 399 293 608 23 98 26 133 26 287 0 154 -3 188 -26 287 -65 276 -208 531
-435 773 l-80 85 -6 70 c-14 164 -111 396 -234 560 -403 537 -1208 913 -2228
1041 -97 12 -233 17 -535 19 -223 1 -423 1 -445 -1z m940 -138 c738 -93 1322
-310 1760 -651 111 -87 280 -265 348 -367 74 -110 131 -235 164 -356 22 -84
26 -117 26 -242 0 -125 -4 -158 -26 -242 -55 -200 -158 -377 -322 -546 -117
-123 -210 -199 -360 -298 -416 -274 -950 -450 -1605 -531 -209 -26 -851 -26
-1060 0 -711 88 -1298 295 -1720 608 -119 89 -307 275 -381 378 -430 600 -211
1286 561 1760 414 254 986 433 1575 490 61 6 126 13 145 15 19 2 199 3 400 1
265 -2 401 -7 495 -19z m-3601 -2145 c5 -8 13 -89 17 -180 4 -102 15 -201 28
-258 160 -730 1005 -1337 2152 -1548 450 -83 1003 -98 1459 -39 1097 140 1974
631 2302 1289 90 181 126 328 137 566 4 91 12 172 17 180 5 8 11 65 14 127 l5
113 44 -67 c215 -328 282 -698 190 -1049 -203 -775 -1165 -1415 -2437 -1620
-266 -43 -428 -56 -767 -62 -220 -4 -395 -1 -495 6 -902 69 -1671 326 -2240
749 -144 107 -363 326 -452 452 -343 486 -359 1024 -44 1515 l51 80 5 -120 c3
-66 9 -126 14 -134z m541 -478 c450 -376 1128 -630 1945 -730 211 -26 930 -26
1140 0 573 70 1047 206 1462 419 282 145 551 345 693 516 28 34 53 61 57 61
10 1 -47 -133 -89 -209 -301 -549 -1050 -995 -1923 -1144 -303 -52 -413 -60
-770 -60 -357 0 -468 8 -770 60 -966 166 -1760 684 -2000 1304 l-21 55 103
-107 c57 -58 135 -133 173 -165z m182 -605 c382 -283 896 -496 1453 -602 303
-58 430 -69 821 -73 327 -4 387 -2 554 17 549 63 990 187 1409 397 246 123
434 252 648 443 l72 65 -44 -64 c-60 -86 -224 -257 -324 -337 -731 -590 -1942
-832 -3086 -618 -517 96 -985 289 -1350 557 -143 105 -372 340 -435 447 -5 8
35 -24 88 -73 53 -48 141 -119 194 -159z"/>
<path d="M4065 3798 c9 -172 19 -158 -90 -117 -83 31 -299 39 -410 14 -236
-52 -374 -211 -375 -432 -1 -261 224 -436 560 -437 186 0 323 48 431 151 76
72 112 150 117 256 4 69 -32 638 -43 692 -4 18 -13 20 -101 22 l-96 3 7 -152z
m-153 -236 c209 -103 237 -401 50 -536 -70 -52 -137 -69 -240 -64 -178 9 -286
101 -312 265 -10 62 2 149 30 203 35 69 116 134 200 161 14 5 66 7 115 6 80
-2 98 -6 157 -35z"/>
<path d="M5570 3943 c-84 -14 -129 -35 -164 -73 -59 -65 -47 -133 35 -204 67
-57 137 -79 249 -80 82 -1 102 2 144 24 122 61 123 174 4 260 -64 47 -203 85
-268 73z m167 -64 c58 -25 120 -82 128 -120 9 -38 -16 -82 -62 -111 -53 -33
-175 -32 -250 1 -69 31 -123 90 -123 135 0 39 33 80 82 101 51 22 167 19 225
-6z"/>
<path d="M1735 3921 c-45 -10 -86 -20 -91 -24 -6 -3 -21 -45 -34 -92 -13 -47
-28 -85 -34 -86 -6 0 -37 0 -68 -1 -32 0 -61 -5 -66 -12 -8 -10 -32 -85 -32
-100 0 -3 32 -6 71 -6 62 0 70 -2 65 -17 -3 -10 -37 -135 -76 -278 -78 -285
-81 -319 -35 -374 14 -15 48 -39 77 -52 48 -21 68 -23 213 -23 l160 -1 11 50
c22 91 29 85 -105 85 -105 0 -121 2 -145 21 -14 11 -26 29 -26 40 0 11 30 138
66 284 l66 265 304 0 304 0 9 23 c5 13 11 39 13 58 l3 34 -299 2 c-164 1 -300
3 -301 5 -2 2 8 44 21 93 25 94 29 126 17 124 -5 -1 -44 -9 -88 -18z"/>
<path d="M2472 3704 c-5 -11 -12 -37 -13 -59 l-4 -40 206 -5 c249 -6 249 -6
249 -105 0 -48 -4 -64 -16 -69 -9 -3 -93 -6 -188 -6 -190 0 -277 -15 -375 -65
-228 -115 -248 -350 -40 -456 155 -78 386 -79 517 -3 44 26 45 26 42 -18 l-2
-28 107 0 c75 0 107 4 110 13 9 25 54 697 48 714 -16 45 -50 78 -112 106 l-66
31 -227 4 c-213 4 -227 3 -236 -14z m413 -486 c-13 -157 -70 -217 -231 -240
-135 -19 -239 16 -277 94 -37 75 17 165 125 207 45 17 77 20 221 20 l168 1 -6
-82z"/>
<path d="M4697 3695 c-132 -34 -231 -106 -277 -202 -19 -39 -23 -66 -24 -143
-3 -256 139 -428 413 -502 102 -27 298 -30 391 -5 93 25 167 64 218 114 60 60
85 120 90 219 7 133 -36 247 -132 351 -65 70 -134 113 -241 149 -70 24 -98 28
-230 30 -107 3 -166 -1 -208 -11z m378 -134 c218 -107 291 -372 144 -520 -105
-106 -328 -107 -464 -3 -200 152 -208 430 -15 527 59 30 82 34 176 32 80 -2
99 -7 159 -36z"/>
</g>
</svg>
