<?xml version="1.0" standalone="no"?>
<!DOCTYPE svg PUBLIC "-//W3C//DTD SVG 20010904//EN"
 "http://www.w3.org/TR/2001/REC-SVG-20010904/DTD/svg10.dtd">
<svg version="1.0" xmlns="http://www.w3.org/2000/svg"
 width="900.000000pt" height="900.000000pt" viewBox="0 0 900.000000 900.000000"
 preserveAspectRatio="xMidYMid meet">
<metadata>
Created by potrace 1.13, written by Peter Selinger 2001-2015
</metadata>
<g transform="translate(0.000000,900.000000) scale(0.100000,-0.100000)"
fill="#000000" stroke="none">
<path d="M3977 8712 l-117 -288 0 -237 0 -237 -154 0 -153 0 -5 83 c-5 103
-25 143 -88 175 -45 22 -45 22 -480 20 l-435 -3 -3 -912 -2 -912 -878 -4
c-949 -4 -908 -1 -1062 -58 -294 -109 -517 -371 -581 -686 -19 -89 -19 -171
-17 -2485 l3 -2393 22 -77 c99 -346 353 -590 703 -674 71 -17 201 -18 2385
-22 1555 -2 2348 1 2427 8 136 12 250 44 356 101 273 146 463 424 488 714 3
39 6 932 7 1985 l2 1915 350 1 c332 2 652 9 795 19 36 3 232 12 435 21 204 9
482 21 619 27 l249 12 78 255 79 254 0 1552 0 1551 -61 194 c-34 107 -68 219
-77 249 -8 30 -16 56 -16 57 -1 1 -193 11 -786 38 -970 45 -975 45 -2490 45
l-1476 0 -117 -288z m3053 -1852 l0 -2060 -1420 0 -1420 0 0 2060 0 2060 1420
0 1420 0 0 -2060z m375 2045 c94 -3 310 -12 480 -20 171 -8 423 -19 560 -25
138 -6 269 -13 292 -17 49 -6 38 17 127 -264 l66 -205 0 -1502 c0 -1636 4
-1507 -58 -1697 -16 -49 -44 -135 -61 -191 l-31 -101 -93 -6 c-50 -3 -198 -11
-327 -17 -129 -6 -377 -17 -550 -25 -173 -8 -402 -17 -507 -21 l-193 -6 0
2057 0 2058 63 -6 c34 -4 139 -9 232 -12z m-3296 -2047 c0 -2039 2 -1926 -40
-1823 -45 112 -95 230 -115 276 l-24 57 0 1495 0 1496 24 53 c21 48 37 87 121
291 15 37 30 67 32 67 1 0 3 -861 2 -1912z m-719 1274 c23 -11 43 -33 58 -62
l22 -44 0 -1156 c0 -1289 5 -1198 -69 -1247 -34 -23 -36 -23 -402 -23 l-369 0
0 25 0 24 351 3 c334 3 351 4 365 22 8 11 14 25 14 31 0 6 -6 20 -14 31 -14
18 -31 19 -365 22 l-351 3 0 54 0 54 351 3 c334 3 351 4 365 22 8 11 14 25 14
31 0 6 -6 20 -14 31 -14 18 -31 19 -365 22 l-351 3 0 74 0 75 344 0 c318 0
345 1 366 18 30 24 21 68 -16 82 -14 6 -169 10 -360 10 l-334 0 0 105 0 105
334 0 c191 0 346 4 360 10 37 14 46 58 16 82 -21 17 -48 18 -366 18 l-344 0 0
130 0 130 357 2 358 3 10 29 c8 24 6 31 -14 47 -22 18 -44 19 -367 19 l-344 0
0 130 0 130 349 0 c304 0 352 2 365 16 21 20 20 43 -1 66 -15 17 -40 18 -365
18 l-348 0 0 110 0 110 347 0 c308 0 348 2 365 17 22 20 23 41 1 65 -15 17
-40 18 -365 18 l-348 0 0 80 0 80 347 0 c308 0 348 2 365 17 22 20 23 41 1 65
-15 17 -40 18 -365 18 l-348 0 0 60 0 60 347 0 c308 0 348 2 365 17 22 20 23
41 1 65 -15 17 -40 18 -365 18 l-348 0 0 35 0 35 363 0 c325 0 366 -2 397 -18z
m460 -1262 l0 -1000 -145 0 -145 0 0 185 0 184 93 3 92 3 0 50 0 50 -92 3 -93
3 0 519 0 519 93 3 92 3 0 45 0 45 -92 3 -93 3 0 189 0 190 145 0 145 0 0
-1000z m-1308 -957 l3 -388 452 0 c440 0 452 1 480 21 46 33 73 98 73 176 l0
68 155 0 155 0 0 -245 0 -246 111 -272 c61 -150 114 -278 118 -285 6 -10 229
-12 1104 -12 l1097 0 -2 -1982 -3 -1983 -24 -70 c-114 -338 -374 -550 -718
-585 -76 -8 -801 -10 -2423 -8 l-2315 3 -80 22 c-292 82 -503 285 -592 568
l-28 90 -3 2375 c-2 1658 1 2395 8 2440 60 360 346 644 697 689 37 5 443 9
900 10 l833 1 2 -387z"/>
<path d="M6072 7583 c4 -33 37 -43 57 -19 20 24 6 46 -29 46 -28 0 -31 -3 -28
-27z"/>
<path d="M6162 7583 c4 -33 37 -43 57 -19 20 24 6 46 -29 46 -28 0 -31 -3 -28
-27z"/>
<path d="M6254 7595 c-9 -23 3 -45 24 -45 25 0 46 25 38 45 -7 19 -55 20 -62
0z"/>
<path d="M5990 7550 c-14 -27 4 -52 34 -48 31 4 30 62 -1 66 -14 2 -26 -4 -33
-18z"/>
<path d="M6339 7548 c-10 -19 -8 -24 12 -41 23 -19 24 -19 41 3 13 17 15 26 8
41 -14 26 -47 24 -61 -3z"/>
<path d="M5990 7460 c-14 -27 4 -52 34 -48 31 4 30 62 -1 66 -14 2 -26 -4 -33
-18z"/>
<path d="M6340 7459 c-9 -15 -8 -24 1 -35 27 -33 79 1 58 39 -14 23 -46 21
-59 -4z"/>
<path d="M5996 7374 c-19 -18 -17 -33 6 -47 26 -17 50 -1 46 30 -4 33 -29 41
-52 17z"/>
<path d="M6340 7369 c-9 -15 -8 -24 1 -35 27 -33 79 1 58 39 -14 23 -46 21
-59 -4z"/>
<path d="M5996 7284 c-21 -20 -20 -27 4 -49 16 -15 22 -15 35 -5 18 15 19 42
3 58 -16 16 -23 15 -42 -4z"/>
<path d="M6345 7280 c-18 -20 -18 -21 3 -43 l22 -21 22 21 c21 22 21 23 3 43
-10 11 -21 20 -25 20 -4 0 -15 -9 -25 -20z"/>
<path d="M6074 7226 c-11 -28 1 -51 25 -51 32 0 49 28 32 49 -17 20 -50 21
-57 2z"/>
<path d="M6164 7226 c-11 -28 1 -51 25 -51 32 0 49 28 32 49 -17 20 -50 21
-57 2z"/>
<path d="M6255 7219 c-5 -13 -1 -27 8 -36 19 -19 57 -8 57 16 0 40 -54 57 -65
20z"/>
<path d="M4725 7138 l-50 -61 -80 -1 -80 -1 -3 -62 -3 -63 31 0 31 0 -51 -62
c-27 -35 -50 -65 -50 -68 1 -3 22 -31 48 -63 26 -32 94 -116 152 -187 58 -71
109 -129 113 -129 4 -1 20 10 34 24 25 22 26 26 11 42 -8 10 -70 84 -137 166
l-122 147 122 148 c67 81 129 155 137 165 14 16 13 20 -8 42 -13 14 -28 25
-34 24 -6 0 -33 -28 -61 -61z"/>
<path d="M4716 6960 l-116 -140 116 -140 116 -140 139 0 139 0 0 110 0 110
-100 0 -101 0 3 63 3 62 95 1 95 2 3 106 3 106 -140 0 -139 0 -116 -140z"/>
<path d="M6074 7086 c-11 -28 1 -51 25 -51 32 0 49 28 32 49 -17 20 -50 21
-57 2z"/>
<path d="M6170 7085 c-18 -22 -8 -50 19 -50 32 0 49 28 32 49 -17 20 -35 20
-51 1z"/>
<path d="M6262 7088 c-15 -15 -16 -45 -1 -53 18 -12 59 4 59 23 0 20 -18 42
-35 42 -6 0 -16 -5 -23 -12z"/>
<path d="M5991 7022 c-13 -25 8 -56 35 -50 29 5 27 62 -3 66 -13 2 -26 -4 -32
-16z"/>
<path d="M6339 7024 c-9 -11 -10 -20 -2 -32 25 -41 86 -14 63 27 -13 25 -42
27 -61 5z"/>
<path d="M6694 7026 c-11 -29 0 -51 26 -51 21 0 25 5 25 30 0 24 -5 31 -23 33
-13 2 -24 -3 -28 -12z"/>
<path d="M5991 6932 c-13 -25 8 -56 35 -50 29 5 27 62 -3 66 -13 2 -26 -4 -32
-16z"/>
<path d="M6341 6936 c-16 -19 3 -56 28 -56 29 0 45 25 31 49 -12 24 -42 27
-59 7z"/>
<path d="M6694 6936 c-11 -29 0 -51 26 -51 21 0 25 5 25 30 0 24 -5 31 -23 33
-13 2 -24 -3 -28 -12z"/>
<path d="M5990 6839 c-9 -15 -8 -24 1 -35 18 -22 53 -13 57 15 6 40 -39 56
-58 20z"/>
<path d="M6339 6844 c-9 -11 -10 -20 -2 -32 25 -41 86 -14 63 27 -13 25 -42
27 -61 5z"/>
<path d="M6702 6851 c-8 -4 -12 -19 -10 -32 2 -18 9 -24 28 -24 21 0 25 5 25
30 0 31 -19 42 -43 26z"/>
<path d="M5995 6754 c-9 -9 -14 -21 -12 -27 6 -18 33 -31 51 -24 21 8 21 53 0
61 -21 8 -20 8 -39 -10z"/>
<path d="M6346 6754 c-19 -19 -20 -26 -4 -42 30 -30 78 0 58 37 -13 25 -33 27
-54 5z"/>
<path d="M6702 6761 c-8 -4 -12 -19 -10 -32 2 -18 9 -24 28 -24 21 0 25 5 25
30 0 31 -19 42 -43 26z"/>
<path d="M6429 6694 c-17 -21 0 -49 32 -49 27 0 37 28 19 50 -16 19 -34 19
-51 -1z"/>
<path d="M6519 6694 c-17 -21 0 -49 32 -49 18 0 25 6 27 24 6 38 -34 55 -59
25z"/>
<path d="M6610 6695 c-18 -22 -1 -50 31 -50 20 0 24 5 24 30 0 23 -5 31 -21
33 -11 2 -27 -4 -34 -13z"/>
<path d="M6080 6565 c-18 -22 -8 -50 19 -50 32 0 49 28 32 49 -17 20 -35 20
-51 1z"/>
<path d="M6170 6565 c-18 -22 -8 -50 19 -50 32 0 49 28 32 49 -17 20 -35 20
-51 1z"/>
<path d="M6260 6565 c-20 -25 -8 -50 25 -50 21 0 31 5 33 18 4 21 -14 47 -33
47 -7 0 -18 -7 -25 -15z"/>
<path d="M5995 6504 c-9 -9 -14 -21 -12 -27 6 -18 33 -31 51 -24 21 8 21 53 0
61 -21 8 -20 8 -39 -10z"/>
<path d="M6345 6500 c-15 -16 -15 -22 -5 -35 15 -18 42 -19 58 -3 16 16 15 23
-4 42 -20 21 -27 20 -49 -4z"/>
<path d="M6702 6511 c-8 -4 -12 -19 -10 -32 2 -18 9 -24 28 -24 19 0 26 6 28
24 3 20 -11 41 -28 41 -3 0 -11 -4 -18 -9z"/>
<path d="M5990 6409 c-9 -15 -8 -24 1 -35 18 -22 53 -13 57 15 6 40 -39 56
-58 20z"/>
<path d="M6346 6414 c-19 -19 -20 -26 -4 -42 30 -30 78 0 58 37 -13 25 -33 27
-54 5z"/>
<path d="M6702 6421 c-8 -4 -12 -19 -10 -32 2 -18 9 -24 28 -24 21 0 25 5 25
30 0 31 -19 42 -43 26z"/>
<path d="M5995 6324 c-9 -9 -14 -21 -12 -27 6 -18 33 -31 51 -24 21 8 21 53 0
61 -21 8 -20 8 -39 -10z"/>
<path d="M6345 6320 c-15 -16 -15 -22 -5 -35 15 -18 42 -19 58 -3 16 16 15 23
-4 42 -20 21 -27 20 -49 -4z"/>
<path d="M6700 6325 c-19 -23 -8 -50 20 -50 19 0 26 6 28 24 5 35 -26 53 -48
26z"/>
<path d="M5996 6234 c-10 -9 -15 -23 -12 -31 3 -8 6 -17 6 -19 0 -2 11 -4 25
-4 29 0 43 25 28 48 -14 23 -29 25 -47 6z"/>
<path d="M6345 6230 c-15 -16 -15 -22 -5 -35 17 -20 56 -19 64 1 6 16 -18 54
-34 54 -4 0 -15 -9 -25 -20z"/>
<path d="M6700 6235 c-19 -23 -8 -50 23 -53 24 -3 27 0 27 26 0 18 -6 32 -16
36 -21 8 -20 8 -34 -9z"/>
<path d="M6435 6176 c-27 -20 -15 -51 20 -51 23 0 31 5 33 22 4 29 -28 47 -53
29z"/>
<path d="M6526 6177 c-26 -19 -17 -51 17 -55 31 -4 47 20 30 46 -13 22 -26 24
-47 9z"/>
<path d="M6617 6172 c-22 -25 -12 -52 19 -52 28 0 42 25 27 48 -14 24 -28 25
-46 4z"/>
<path d="M3162 4158 c-17 -17 -15 -63 2 -78 23 -18 59 -8 75 22 14 24 14 28
-3 47 -21 23 -56 27 -74 9z"/>
<path d="M3564 4145 c-15 -23 -15 -27 0 -50 29 -44 86 -28 86 25 0 53 -57 69
-86 25z"/>
<path d="M3771 4156 c-16 -19 -10 -66 10 -79 26 -16 68 0 75 29 12 47 -55 87
-85 50z"/>
<path d="M2973 3960 c-26 -11 -38 -43 -24 -68 14 -26 45 -33 71 -15 43 30 3
102 -47 83z"/>
<path d="M3171 3953 c-32 -22 -26 -78 9 -83 34 -5 51 1 61 24 22 47 -28 89
-70 59z"/>
<path d="M3380 3957 c-32 -16 -34 -63 -5 -83 31 -20 70 2 70 40 0 39 -31 60
-65 43z"/>
<path d="M3583 3959 c-42 -15 -38 -80 6 -92 51 -13 86 68 39 90 -13 6 -32 7
-45 2z"/>
<path d="M3781 3954 c-42 -30 -10 -100 40 -87 27 7 46 49 33 70 -16 26 -49 33
-73 17z"/>
<path d="M2750 3741 c-5 -11 -10 -26 -10 -35 0 -20 28 -46 50 -46 10 0 26 7
34 16 9 8 16 24 16 34 0 45 -69 69 -90 31z"/>
<path d="M2957 3742 c-22 -25 -21 -45 3 -67 29 -27 74 -10 78 28 6 53 -46 77
-81 39z"/>
<path d="M3162 3748 c-7 -7 -12 -24 -12 -38 0 -32 17 -50 46 -50 23 0 54 33
54 57 0 34 -62 57 -88 31z"/>
<path d="M3366 3744 c-9 -8 -16 -24 -16 -34 0 -10 7 -26 16 -34 32 -33 84 -8
84 39 0 40 -55 59 -84 29z"/>
<path d="M3564 3735 c-15 -23 -15 -27 0 -50 29 -44 86 -28 86 25 0 53 -57 69
-86 25z"/>
<path d="M3772 3748 c-7 -7 -12 -24 -12 -38 0 -32 17 -50 45 -50 25 0 55 29
55 53 0 38 -61 62 -88 35z"/>
<path d="M2558 3549 c-21 -12 -24 -59 -6 -77 13 -13 47 -16 64 -4 24 15 26 50
5 71 -23 23 -37 25 -63 10z"/>
<path d="M2762 3544 c-41 -29 -23 -84 28 -84 49 0 68 51 32 83 -23 21 -32 21
-60 1z"/>
<path d="M2959 3541 c-20 -16 -22 -23 -14 -47 11 -32 55 -45 81 -23 21 17 18
66 -5 79 -27 14 -35 13 -62 -9z"/>
<path d="M3166 3544 c-19 -18 -21 -55 -4 -72 17 -17 54 -15 72 4 21 21 20 40
-4 64 -24 24 -43 25 -64 4z"/>
<path d="M3372 3544 c-41 -29 -23 -84 28 -84 49 0 68 51 32 83 -23 21 -32 21
-60 1z"/>
<path d="M3570 3540 c-24 -24 -25 -43 -4 -64 18 -19 55 -21 72 -4 19 19 15 66
-7 78 -28 14 -38 13 -61 -10z"/>
<path d="M3775 3544 c-19 -20 -16 -63 6 -77 50 -31 105 38 59 75 -27 22 -44
23 -65 2z"/>
<path d="M2341 3331 c-16 -29 -14 -46 9 -66 41 -37 102 17 73 64 -16 25 -69
26 -82 2z"/>
<path d="M2547 3329 c-27 -38 9 -88 53 -74 38 12 47 66 16 87 -21 14 -55 8
-69 -13z"/>
<path d="M2752 3338 c-28 -28 -3 -88 37 -88 23 0 51 31 51 56 0 27 -19 44 -50
44 -14 0 -31 -5 -38 -12z"/>
<path d="M2956 3334 c-22 -21 -20 -47 4 -69 44 -40 107 25 69 71 -15 19 -54
18 -73 -2z"/>
<path d="M3162 3338 c-19 -19 -15 -66 7 -78 11 -5 24 -10 30 -10 16 0 51 38
51 54 0 37 -61 61 -88 34z"/>
<path d="M3360 3331 c-15 -28 -12 -46 8 -64 24 -22 45 -21 65 1 20 22 22 53 5
70 -19 19 -66 15 -78 -7z"/>
<path d="M3566 3331 c-34 -38 12 -94 59 -73 29 13 37 45 18 71 -18 26 -55 27
-77 2z"/>
<path d="M3772 3338 c-28 -28 -2 -88 38 -88 19 0 50 35 50 57 0 34 -62 57 -88
31z"/>
<path d="M3971 3331 c-16 -29 -14 -46 9 -66 41 -37 102 17 73 64 -16 25 -69
26 -82 2z"/>
<path d="M2145 3134 c-19 -20 -16 -63 6 -77 26 -16 68 0 75 29 12 48 -46 83
-81 48z"/>
<path d="M2345 3130 c-24 -27 -13 -68 22 -76 34 -9 57 6 61 42 6 49 -49 72
-83 34z"/>
<path d="M2552 3138 c-7 -7 -12 -24 -12 -38 0 -53 57 -69 86 -25 15 23 15 27
0 50 -18 27 -54 33 -74 13z"/>
<path d="M2755 3134 c-19 -20 -16 -63 6 -77 26 -16 68 0 75 29 12 48 -46 83
-81 48z"/>
<path d="M2955 3130 c-24 -27 -13 -68 22 -76 34 -9 57 6 61 42 6 49 -49 72
-83 34z"/>
<path d="M3166 3137 c-22 -16 -18 -65 5 -80 46 -29 100 34 63 74 -20 22 -43
24 -68 6z"/>
<path d="M3366 3134 c-19 -18 -20 -38 -6 -65 12 -22 59 -26 78 -7 28 28 2 88
-38 88 -10 0 -26 -7 -34 -16z"/>
<path d="M3564 3125 c-15 -23 -15 -27 0 -50 30 -45 86 -28 86 27 0 49 -59 65
-86 23z"/>
<path d="M3775 3134 c-19 -20 -16 -63 6 -77 26 -16 68 0 75 29 12 48 -46 83
-81 48z"/>
<path d="M3975 3130 c-24 -27 -13 -68 22 -76 34 -9 57 6 61 42 6 49 -49 72
-83 34z"/>
<path d="M4174 3125 c-15 -23 -15 -27 0 -50 10 -15 26 -25 41 -25 15 0 31 10
41 25 15 23 15 27 0 50 -10 15 -26 25 -41 25 -15 0 -31 -10 -41 -25z"/>
<path d="M2370 2943 c-43 -15 -52 -65 -15 -89 23 -15 27 -15 51 0 18 13 24 24
22 43 -3 29 -35 53 -58 46z"/>
<path d="M2973 2940 c-39 -16 -40 -70 -1 -91 29 -16 70 14 66 48 -4 33 -36 54
-65 43z"/>
<path d="M3583 2939 c-39 -14 -41 -69 -2 -89 23 -13 66 3 71 27 10 45 -26 78
-69 62z"/>
<path d="M2547 2919 c-19 -26 -11 -58 17 -68 30 -12 56 -1 67 26 11 31 12 29
-7 47 -22 22 -60 20 -77 -5z"/>
<path d="M2752 2928 c-20 -20 -14 -56 13 -74 23 -15 27 -15 50 0 44 29 28 86
-25 86 -14 0 -31 -5 -38 -12z"/>
<path d="M3162 2928 c-24 -24 -12 -69 21 -81 41 -15 78 33 57 73 -12 23 -58
28 -78 8z"/>
<path d="M3362 2928 c-20 -20 -14 -56 13 -74 23 -15 27 -15 50 0 44 29 28 86
-25 86 -14 0 -31 -5 -38 -12z"/>
<path d="M3772 2928 c-24 -24 -12 -69 21 -81 41 -15 78 33 57 73 -12 23 -58
28 -78 8z"/>
<path d="M3970 2921 c-16 -31 -12 -49 15 -67 23 -15 27 -15 50 0 27 18 33 54
13 74 -19 19 -66 15 -78 -7z"/>
<path d="M2346 2724 c-20 -20 -20 -48 0 -68 18 -19 38 -20 65 -6 22 12 26 59
7 78 -17 17 -54 15 -72 -4z"/>
<path d="M2552 2728 c-7 -7 -12 -24 -12 -38 0 -53 57 -69 86 -25 15 23 15 27
0 50 -18 27 -54 33 -74 13z"/>
<path d="M2756 2724 c-19 -18 -20 -38 -6 -65 21 -38 90 -14 90 31 0 10 -7 26
-16 34 -8 9 -24 16 -34 16 -10 0 -26 -7 -34 -16z"/>
<path d="M3564 2715 c-15 -23 -15 -27 0 -50 29 -44 86 -28 86 25 0 53 -57 69
-86 25z"/>
<path d="M3772 2728 c-7 -7 -12 -24 -12 -38 0 -32 17 -50 45 -50 25 0 55 29
55 53 0 38 -61 62 -88 35z"/>
<path d="M3976 2724 c-9 -8 -16 -24 -16 -34 0 -22 26 -50 46 -50 32 0 54 21
54 50 0 45 -52 66 -84 34z"/>
<path d="M2352 2524 c-41 -29 -23 -84 28 -84 32 0 50 17 50 46 0 20 -32 54
-50 54 -3 0 -16 -7 -28 -16z"/>
<path d="M2570 2533 c-36 -14 -41 -64 -9 -87 17 -11 27 -12 45 -4 13 6 24 15
24 19 0 4 3 14 6 22 3 9 -4 25 -15 36 -22 22 -26 23 -51 14z"/>
<path d="M2762 2524 c-41 -29 -23 -84 28 -84 32 0 50 17 50 46 0 20 -32 54
-50 54 -3 0 -16 -7 -28 -16z"/>
<path d="M3583 2530 c-47 -19 -36 -90 15 -90 16 0 33 5 40 12 19 19 15 66 -7
78 -22 11 -19 11 -48 0z"/>
<path d="M3782 2524 c-12 -8 -22 -26 -22 -38 0 -54 77 -64 95 -12 8 24 6 31
-14 47 -28 23 -31 23 -59 3z"/>
<path d="M3982 2524 c-41 -29 -23 -84 28 -84 32 0 50 17 50 46 0 20 -32 54
-50 54 -3 0 -16 -7 -28 -16z"/>
<path d="M3990 2327 c-49 -24 -30 -97 24 -97 31 0 48 22 44 56 -4 38 -36 57
-68 41z"/>
<path d="M2346 2315 c-35 -35 0 -93 48 -81 29 7 45 49 29 75 -14 22 -57 25
-77 6z"/>
<path d="M2546 2309 c-19 -28 -7 -61 29 -74 23 -8 30 -6 46 14 20 24 18 59 -5
73 -21 14 -55 8 -70 -13z"/>
<path d="M2751 2316 c-16 -19 -10 -66 10 -79 26 -16 68 0 75 30 4 14 2 33 -3
42 -13 21 -66 26 -82 7z"/>
<path d="M3564 2305 c-15 -23 -15 -27 0 -50 18 -27 43 -32 68 -12 24 19 28 43
12 66 -21 29 -60 27 -80 -4z"/>
<path d="M3771 2316 c-22 -26 -9 -70 23 -81 24 -8 31 -6 47 14 23 28 24 45 3
65 -19 20 -58 21 -73 2z"/>
<path d="M5153 1615 c-86 -24 -154 -64 -224 -134 -105 -105 -149 -210 -149
-357 0 -143 46 -253 150 -355 160 -158 375 -193 577 -94 194 95 308 315 274
526 -31 196 -181 364 -372 414 -68 18 -188 18 -256 0z m218 -40 c107 -13 247
-114 312 -225 62 -106 73 -274 27 -390 -49 -125 -166 -233 -292 -271 -55 -17
-88 -21 -161 -17 -81 3 -102 8 -167 39 -318 152 -360 571 -78 784 78 59 207
98 288 89 14 -2 46 -6 71 -9z"/>
<path d="M1450 1229 c0 -55 -2 -60 -17 -53 -10 4 -41 9 -69 12 -46 3 -55 1
-88 -28 -42 -37 -61 -94 -52 -155 17 -112 122 -169 207 -112 60 40 69 72 69
245 l0 152 -25 0 c-24 0 -25 -3 -25 -61z m-47 -99 c51 -40 59 -129 16 -184
-16 -20 -29 -26 -59 -26 -55 0 -80 34 -80 109 0 61 17 96 54 111 32 13 41 12
69 -10z"/>
<path d="M1826 1269 c-52 -41 -23 -129 42 -129 36 0 72 37 72 74 0 31 -40 76
-68 76 -11 0 -31 -9 -46 -21z m70 -7 c6 -4 16 -17 23 -30 27 -52 -51 -99 -93
-56 -43 43 19 120 70 86z"/>
<path d="M803 1273 c-8 -2 -13 -22 -13 -44 0 -32 -3 -39 -20 -39 -13 0 -20 -7
-20 -20 0 -13 7 -20 20 -20 19 0 20 -7 20 -110 0 -104 1 -112 25 -135 32 -33
105 -36 105 -5 0 14 -7 20 -21 20 -11 0 -29 5 -40 10 -17 10 -19 22 -19 115
l0 105 80 0 c73 0 80 2 80 20 0 18 -7 20 -80 20 l-80 0 0 45 c0 44 -6 51 -37
38z"/>
<path d="M1025 1180 c-12 -19 7 -30 54 -30 52 0 71 -12 71 -47 0 -21 -5 -23
-46 -23 -25 0 -61 -7 -79 -15 -94 -45 -60 -185 45 -185 23 0 50 5 61 10 13 7
19 7 19 0 0 -5 11 -10 25 -10 l25 0 0 129 c0 115 -2 131 -21 155 -18 23 -27
26 -84 26 -35 0 -67 -4 -70 -10z m123 -182 c6 -70 -77 -109 -114 -53 -33 50 5
96 76 92 33 -2 35 -4 38 -39z"/>
<path d="M1574 1157 c-79 -72 -61 -234 31 -273 49 -20 87 -17 126 9 67 45 89
148 49 227 -24 48 -64 70 -125 70 -37 0 -52 -6 -81 -33z m136 -36 c34 -33 45
-68 36 -115 -13 -69 -63 -102 -121 -80 -42 16 -61 136 -29 182 16 23 46 40 72
41 8 1 26 -12 42 -28z"/>
</g>
</svg>
