<?xml version="1.0" standalone="no"?>
<!DOCTYPE svg PUBLIC "-//W3C//DTD SVG 20010904//EN"
 "http://www.w3.org/TR/2001/REC-SVG-20010904/DTD/svg10.dtd">
<svg version="1.0" xmlns="http://www.w3.org/2000/svg"
 width="614.000000pt" height="614.000000pt" viewBox="0 0 614.000000 614.000000"
 preserveAspectRatio="xMidYMid meet">
<metadata>
Created by potrace 1.13, written by Peter Selinger 2001-2015
</metadata>
<g transform="translate(0.000000,614.000000) scale(0.100000,-0.100000)"
fill="#000000" stroke="none">
<path d="M75 6010 c-11 -4 -31 -20 -45 -35 l-25 -27 0 -2879 0 -2879 33 -32
c32 -33 33 -33 130 -32 97 0 100 1 696 182 l598 182 1608 0 1608 0 593 -182
594 -182 101 0 c88 -1 105 2 124 19 53 47 50 -129 50 2917 0 1844 -4 2845 -10
2869 -6 19 -22 46 -36 60 -22 21 -37 24 -112 27 l-87 3 -585 -177 c-322 -97
-601 -180 -620 -185 -19 -5 -750 -9 -1625 -9 l-1590 0 -95 29 c-1039 316
-1128 341 -1207 340 -43 0 -87 -4 -98 -9z m838 -545 l287 -88 0 -822 0 -823
-37 4 c-71 8 -753 74 -768 74 -13 0 -15 107 -15 909 l0 909 123 -38 c67 -21
251 -77 410 -125z m4845 -1651 c-2 -1 -172 -18 -378 -38 -206 -20 -390 -38
-407 -40 l-33 -5 0 823 0 823 288 88 c158 48 341 104 407 124 l120 37 3 -905
c1 -497 1 -905 0 -907z m-1198 -744 l0 -2280 -1490 0 -1490 0 0 2280 0 2280
1490 0 1490 0 0 -2280z m-3540 362 l175 -17 3 -1327 2 -1327 -112 -35 c-62
-19 -241 -73 -398 -121 -157 -47 -291 -88 -297 -90 -10 -4 -13 299 -13 1488
l0 1493 233 -23 c127 -13 311 -31 407 -41z m4740 -1427 c0 -1191 -3 -1494 -12
-1490 -7 2 -141 43 -298 90 -157 48 -336 102 -398 121 l-112 35 2 1327 3 1327
405 41 c223 23 406 42 408 43 1 0 2 -672 2 -1494z"/>
</g>
</svg>
