<?xml version="1.0" standalone="no"?>
<!DOCTYPE svg PUBLIC "-//W3C//DTD SVG 20010904//EN"
 "http://www.w3.org/TR/2001/REC-SVG-20010904/DTD/svg10.dtd">
<svg version="1.0" xmlns="http://www.w3.org/2000/svg"
 width="612.000000pt" height="612.000000pt" viewBox="0 0 612.000000 612.000000"
 preserveAspectRatio="xMidYMid meet">
<metadata>
Created by potrace 1.13, written by Peter Selinger 2001-2015
</metadata>
<g transform="translate(0.000000,612.000000) scale(0.100000,-0.100000)"
fill="#000000" stroke="none">
<path d="M900 5773 c-173 -29 -348 -163 -415 -318 -52 -122 -49 -26 -52 -1593
l-3 -1452 -79 -79 c-169 -169 -283 -382 -327 -608 -21 -111 -18 -357 5 -463
49 -221 155 -413 316 -575 155 -156 356 -268 567 -317 135 -32 385 -31 513 0
444 110 758 418 877 862 26 96 36 334 18 452 -34 238 -154 470 -334 648 l-86
85 0 1445 c0 1593 4 1498 -63 1624 -38 74 -153 191 -224 229 -105 56 -180 67
-447 66 -133 -1 -252 -4 -266 -6z m590 -257 c104 -54 161 -131 179 -246 7 -43
11 -551 11 -1517 l0 -1451 37 -34 c197 -178 260 -263 333 -447 51 -130 67
-360 36 -509 -72 -339 -340 -620 -681 -714 -67 -18 -106 -22 -240 -22 -145 1
-168 3 -248 27 -270 83 -481 263 -597 510 -60 127 -83 237 -83 387 0 282 97
500 316 705 l102 96 5 1497 5 1497 29 63 c35 76 104 142 179 171 48 19 71 20
307 18 l255 -2 55 -29z"/>
<path d="M1031 5126 c-36 -20 -50 -54 -51 -122 0 -134 25 -154 199 -154 114 0
121 1 150 26 31 25 31 27 31 119 0 92 0 94 -31 119 -29 25 -36 26 -152 26 -82
-1 -130 -5 -146 -14z"/>
<path d="M1034 4519 c-36 -18 -54 -62 -54 -133 0 -127 25 -146 199 -146 114 0
121 1 150 26 30 25 31 28 31 116 0 86 -1 91 -29 119 l-29 29 -124 -1 c-68 0
-132 -5 -144 -10z"/>
<path d="M1019 3892 c-31 -27 -34 -35 -37 -101 -8 -139 19 -161 197 -161 114
0 121 1 150 26 30 25 31 28 31 114 0 79 -3 92 -24 117 -24 28 -26 28 -154 31
l-130 4 -33 -30z"/>
<path d="M1019 3282 c-31 -28 -34 -35 -37 -104 -4 -81 11 -128 47 -148 11 -5
76 -10 145 -10 119 0 126 1 155 26 30 25 31 28 31 114 0 79 -3 92 -24 117 -24
28 -26 28 -154 31 l-130 4 -33 -30z"/>
<path d="M930 2431 l0 -259 -42 -17 c-74 -29 -165 -94 -237 -170 -243 -256
-255 -659 -28 -934 221 -265 599 -332 905 -160 88 50 219 188 269 284 59 115
77 188 77 325 1 137 -16 208 -76 330 -60 120 -178 238 -300 301 l-88 44 0 258
0 257 -240 0 -240 0 0 -259z m95 -594 c26 -37 18 -72 -25 -122 -69 -80 -83
-117 -89 -238 -5 -93 -9 -111 -26 -123 -48 -36 -109 -22 -133 29 -22 45 -17
182 8 257 35 104 124 222 175 232 29 6 73 -11 90 -35z"/>
<path d="M3005 4716 c-40 -18 -79 -55 -101 -97 -15 -28 -19 -64 -22 -191 l-4
-158 -304 0 c-347 0 -359 -2 -411 -82 l-28 -42 -3 -824 -2 -824 81 -90 c80
-89 165 -210 208 -296 12 -23 37 -89 56 -145 l35 -102 0 769 c0 761 0 769 21
806 43 76 -98 70 1578 70 l1500 0 36 -31 c19 -17 40 -47 45 -67 8 -25 10 -404
8 -1204 -3 -1162 -3 -1167 -24 -1195 -11 -15 -36 -36 -55 -45 -32 -17 -125
-18 -1514 -18 -1389 0 -1482 1 -1514 18 -48 24 -73 62 -79 121 l-5 51 -34
-102 c-41 -122 -97 -230 -167 -323 -28 -37 -57 -76 -65 -86 -12 -17 -10 -20
14 -29 37 -14 3646 -14 3697 0 20 6 51 25 68 41 65 65 60 -66 58 1804 l-3
1701 -28 42 c-53 80 -61 82 -432 82 l-325 0 0 150 c0 160 -9 201 -53 248 -42
45 -94 64 -163 60 -75 -5 -128 -37 -165 -101 -22 -38 -24 -55 -27 -199 l-4
-158 -794 0 -794 0 0 150 c0 160 -9 201 -53 248 -53 58 -161 80 -232 48z"/>
<path d="M2962 2939 c-44 -13 -116 -86 -133 -135 -19 -53 -19 -324 0 -377 18
-52 67 -106 116 -128 34 -16 67 -19 220 -19 203 0 235 8 292 73 50 57 58 94
58 267 0 142 -2 159 -23 202 -29 58 -79 103 -129 117 -47 13 -356 13 -401 0z"/>
<path d="M3912 2939 c-44 -13 -116 -86 -133 -135 -19 -53 -19 -324 0 -377 18
-52 67 -106 116 -128 34 -16 67 -19 220 -19 203 0 235 8 292 73 50 57 58 94
58 267 0 142 -2 159 -23 202 -29 58 -79 103 -129 117 -47 13 -356 13 -401 0z"/>
<path d="M4842 2939 c-44 -13 -116 -86 -133 -135 -19 -53 -19 -324 0 -377 18
-52 67 -106 116 -128 34 -16 67 -19 220 -19 203 0 235 8 292 73 50 57 58 94
58 267 0 142 -2 159 -23 202 -29 58 -79 103 -129 117 -47 13 -356 13 -401 0z"/>
<path d="M2962 2039 c-44 -13 -116 -86 -133 -135 -19 -53 -19 -324 0 -377 18
-52 67 -106 116 -128 34 -16 67 -19 220 -19 203 0 235 8 292 73 50 57 58 94
58 267 0 142 -2 159 -23 202 -29 58 -79 103 -129 117 -47 13 -356 13 -401 0z"/>
<path d="M3912 2039 c-44 -13 -116 -86 -133 -135 -19 -53 -19 -324 0 -377 18
-52 67 -106 116 -128 34 -16 67 -19 220 -19 203 0 235 8 292 73 50 57 58 94
58 267 0 142 -2 159 -23 202 -29 58 -79 103 -129 117 -47 13 -356 13 -401 0z"/>
<path d="M4852 2039 c-44 -13 -116 -86 -133 -135 -19 -53 -19 -324 0 -377 18
-52 67 -106 116 -128 34 -16 67 -19 220 -19 203 0 235 8 292 73 50 57 58 94
58 267 0 142 -2 159 -23 202 -29 58 -79 103 -129 117 -47 13 -356 13 -401 0z"/>
</g>
</svg>
