<?xml version="1.0" standalone="no"?>
<!DOCTYPE svg PUBLIC "-//W3C//DTD SVG 20010904//EN"
 "http://www.w3.org/TR/2001/REC-SVG-20010904/DTD/svg10.dtd">
<svg version="1.0" xmlns="http://www.w3.org/2000/svg"
 width="612.000000pt" height="612.000000pt" viewBox="0 0 612.000000 612.000000"
 preserveAspectRatio="xMidYMid meet">
<metadata>
Created by potrace 1.13, written by Peter Selinger 2001-2015
</metadata>
<g transform="translate(0.000000,612.000000) scale(0.100000,-0.100000)"
fill="#000000" stroke="none">
<path d="M4884 6084 c-10 -14 -24 -31 -30 -38 -13 -13 -78 -87 -159 -181 -33
-37 -73 -82 -88 -99 -16 -17 -47 -53 -70 -80 -23 -27 -52 -60 -65 -74 -12 -14
-19 -29 -15 -32 8 -7 423 -160 434 -160 3 0 6 6 6 13 1 89 16 612 17 640 3 44
-4 47 -30 11z"/>
<path d="M3363 6034 c4 -16 9 -76 12 -134 3 -58 8 -127 10 -155 2 -27 7 -97
10 -155 8 -135 15 -234 18 -236 7 -6 422 195 422 204 0 12 -451 494 -468 501
-5 2 -7 -10 -4 -25z"/>
<path d="M4020 5225 c-293 -55 -500 -185 -684 -429 -33 -45 -106 -183 -106
-202 0 -8 -4 -14 -9 -14 -8 0 -26 -47 -23 -62 1 -4 -3 -20 -9 -35 -26 -69 -45
-202 -43 -308 2 -97 6 -135 29 -246 51 -252 275 -538 520 -663 86 -44 153 -71
205 -85 46 -12 51 -13 130 -30 25 -5 113 -8 195 -7 152 3 180 8 329 57 167 56
356 197 470 349 22 30 43 57 46 60 13 13 46 76 95 185 21 46 41 110 50 160 2
11 8 41 14 67 13 58 17 211 7 298 -7 61 -28 144 -62 250 -17 53 -91 184 -144
255 -45 60 -207 215 -225 215 -3 0 -15 9 -26 19 -11 10 -55 36 -97 56 -42 20
-94 46 -115 57 -21 11 -41 18 -44 15 -3 -3 -22 0 -42 8 -20 7 -54 17 -76 21
-22 4 -47 9 -55 11 -40 10 -272 9 -330 -2z"/>
<path d="M5914 5050 c-28 -4 -80 -10 -115 -14 -80 -9 -316 -36 -349 -41 -14
-2 -42 -4 -62 -4 -22 -1 -38 -6 -38 -13 0 -11 186 -417 195 -427 3 -2 14 6 24
18 16 18 266 281 401 421 14 14 34 36 44 48 l19 22 -34 -1 c-19 -1 -57 -5 -85
-9z"/>
<path d="M2327 4867 c21 -17 49 -42 63 -54 63 -55 88 -77 134 -116 27 -23 57
-49 65 -57 9 -8 48 -42 86 -75 38 -33 87 -77 109 -97 23 -21 42 -34 44 -30 22
55 159 438 158 439 -3 3 -246 12 -494 18 l-204 5 39 -33z"/>
<path d="M367 3882 l-367 -367 0 -430 0 -430 370 370 370 370 810 -810 810
-810 0 -735 c0 -559 -3 -739 -12 -748 -17 -17 -639 -17 -656 0 -9 9 -12 165
-12 640 l0 628 -300 0 -300 0 0 -628 c0 -475 -3 -631 -12 -640 -9 -9 -143 -12
-540 -12 l-528 0 0 -140 0 -140 1320 0 1320 0 0 723 c0 539 3 726 12 735 9 9
30 -6 88 -62 58 -55 90 -78 131 -92 107 -36 229 -15 307 51 45 39 122 183 122
229 0 15 -16 62 -36 104 -35 75 -52 93 -560 602 l-524 525 0 563 0 562 -300 0
-300 0 0 -262 0 -263 -418 418 c-229 229 -419 417 -422 417 -3 0 -170 -165
-373 -368z"/>
<path d="M5477 3742 c-41 -114 -79 -215 -83 -226 -7 -17 3 -18 267 -12 151 3
311 7 356 7 90 1 90 1 18 54 -22 17 -42 32 -45 35 -3 3 -36 30 -75 60 -38 30
-79 63 -90 72 -11 9 -58 47 -105 84 -47 36 -104 82 -126 100 l-41 33 -76 -207z"/>
<path d="M2814 3772 c-52 -48 -151 -142 -390 -369 -24 -22 -44 -44 -44 -47 0
-3 19 -4 43 -2 23 3 92 7 152 11 61 3 130 8 155 10 25 2 97 7 160 10 115 6
181 13 187 19 4 4 -191 425 -197 425 -3 0 -33 -25 -66 -57z"/>
<path d="M4925 3060 c-33 -16 -129 -62 -213 -101 l-153 -73 68 -65 c37 -35
152 -145 255 -244 103 -98 190 -182 194 -186 3 -3 4 8 1 24 -3 17 -9 57 -12
90 -3 33 -19 171 -35 307 -17 137 -30 255 -30 263 0 20 -4 19 -75 -15z"/>
<path d="M3515 2882 c3 -75 6 -235 7 -354 2 -120 6 -218 11 -218 4 0 7 4 7 9
0 5 6 16 13 23 7 7 89 109 182 227 94 117 182 227 197 245 15 17 28 33 28 36
0 3 -64 28 -142 57 -79 28 -180 65 -225 82 l-82 30 4 -137z"/>
<path d="M440 2260 l0 -300 300 0 300 0 0 300 0 300 -300 0 -300 0 0 -300z"/>
</g>
</svg>
