<?xml version="1.0" standalone="no"?>
<!DOCTYPE svg PUBLIC "-//W3C//DTD SVG 20010904//EN"
 "http://www.w3.org/TR/2001/REC-SVG-20010904/DTD/svg10.dtd">
<svg version="1.0" xmlns="http://www.w3.org/2000/svg"
 width="641.000000pt" height="641.000000pt" viewBox="0 0 641.000000 641.000000"
 preserveAspectRatio="xMidYMid meet">
<metadata>
Created by potrace 1.13, written by Peter Selinger 2001-2015
</metadata>
<g transform="translate(0.000000,641.000000) scale(0.100000,-0.100000)"
fill="#000000" stroke="none">
<path d="M840 6393 c-412 -41 -739 -336 -821 -740 -19 -89 -19 -171 -17 -2485
l3 -2393 22 -77 c99 -346 353 -590 703 -674 71 -17 201 -18 2385 -22 1555 -2
2348 1 2427 8 241 21 436 115 599 286 139 148 219 317 242 517 9 77 11 677 7
2467 l-5 2365 -23 73 c-65 211 -188 386 -357 508 -72 53 -218 120 -315 146
l-85 23 -2365 1 c-1301 0 -2381 -1 -2400 -3z m4835 -121 c259 -73 461 -250
556 -488 62 -155 59 -7 59 -2381 l0 -2173 -3095 0 -3095 0 0 2158 c0 1464 3
2177 11 2218 63 359 347 638 696 683 38 5 1104 8 2428 7 l2360 -1 80 -23z
m612 -5394 c-19 -407 -329 -726 -744 -768 -76 -8 -801 -10 -2423 -8 l-2315 3
-80 22 c-362 102 -602 395 -622 761 l-6 102 3098 0 3098 0 -6 -112z"/>
<path d="M3360 5509 c0 -55 -2 -60 -17 -53 -10 4 -41 9 -69 12 -46 3 -55 1
-88 -28 -42 -37 -61 -94 -52 -155 17 -112 122 -169 207 -112 60 40 69 72 69
245 l0 152 -25 0 c-24 0 -25 -3 -25 -61z m-47 -99 c51 -40 59 -129 16 -184
-16 -20 -29 -26 -59 -26 -55 0 -80 34 -80 109 0 61 17 96 54 111 32 13 41 12
69 -10z"/>
<path d="M3736 5549 c-52 -41 -23 -129 42 -129 36 0 72 37 72 74 0 31 -40 76
-68 76 -11 0 -31 -9 -46 -21z m70 -7 c6 -4 16 -17 23 -30 27 -52 -51 -99 -93
-56 -43 43 19 120 70 86z"/>
<path d="M2713 5553 c-8 -2 -13 -22 -13 -44 0 -32 -3 -39 -20 -39 -13 0 -20
-7 -20 -20 0 -13 7 -20 20 -20 19 0 20 -7 20 -110 0 -104 1 -112 25 -135 32
-33 105 -36 105 -5 0 14 -7 20 -21 20 -11 0 -29 5 -40 10 -17 10 -19 22 -19
115 l0 105 80 0 c73 0 80 2 80 20 0 18 -7 20 -80 20 l-80 0 0 45 c0 44 -6 51
-37 38z"/>
<path d="M2935 5460 c-12 -19 7 -30 54 -30 52 0 71 -12 71 -47 0 -21 -5 -23
-46 -23 -25 0 -61 -7 -79 -15 -94 -45 -60 -185 45 -185 23 0 50 5 61 10 13 7
19 7 19 0 0 -5 11 -10 25 -10 l25 0 0 129 c0 115 -2 131 -21 155 -18 23 -27
26 -84 26 -35 0 -67 -4 -70 -10z m123 -182 c6 -70 -77 -109 -114 -53 -33 50 5
96 76 92 33 -2 35 -4 38 -39z"/>
<path d="M3484 5437 c-79 -72 -61 -234 31 -273 49 -20 87 -17 126 9 67 45 89
148 49 227 -24 48 -64 70 -125 70 -37 0 -52 -6 -81 -33z m136 -36 c34 -33 45
-68 36 -115 -13 -69 -63 -102 -121 -80 -42 16 -61 136 -29 182 16 23 46 40 72
41 8 1 26 -12 42 -28z"/>
<path d="M2549 4185 c-14 -8 -32 -28 -39 -45 -26 -62 33 -130 101 -115 76 17
89 124 18 160 -34 18 -47 18 -80 0z"/>
<path d="M2749 4185 c-14 -8 -32 -28 -39 -45 -26 -62 33 -130 101 -115 76 17
89 124 18 160 -34 18 -47 18 -80 0z"/>
<path d="M3549 4185 c-14 -8 -32 -28 -39 -45 -26 -62 33 -130 101 -115 76 17
89 124 18 160 -34 18 -47 18 -80 0z"/>
<path d="M3749 4185 c-14 -8 -32 -28 -39 -45 -26 -62 33 -130 101 -115 76 17
89 124 18 160 -34 18 -47 18 -80 0z"/>
<path d="M3949 4185 c-14 -8 -32 -28 -39 -45 -26 -62 33 -130 101 -115 76 17
89 124 18 160 -34 18 -47 18 -80 0z"/>
<path d="M2349 3985 c-14 -8 -32 -28 -39 -45 -26 -62 33 -130 101 -115 76 17
89 124 18 160 -34 18 -47 18 -80 0z"/>
<path d="M2549 3985 c-14 -8 -32 -28 -39 -45 -26 -62 33 -130 101 -115 76 17
89 124 18 160 -34 18 -47 18 -80 0z"/>
<path d="M2749 3985 c-14 -8 -32 -28 -39 -45 -26 -62 33 -130 101 -115 76 17
89 124 18 160 -34 18 -47 18 -80 0z"/>
<path d="M2949 3985 c-14 -8 -32 -28 -39 -45 -26 -62 33 -130 101 -115 76 17
89 124 18 160 -34 18 -47 18 -80 0z"/>
<path d="M3349 3985 c-14 -8 -32 -28 -39 -45 -26 -62 33 -130 101 -115 76 17
89 124 18 160 -34 18 -47 18 -80 0z"/>
<path d="M3549 3985 c-14 -8 -32 -28 -39 -45 -26 -62 33 -130 101 -115 76 17
89 124 18 160 -34 18 -47 18 -80 0z"/>
<path d="M3749 3985 c-14 -8 -32 -28 -39 -45 -26 -62 33 -130 101 -115 76 17
89 124 18 160 -34 18 -47 18 -80 0z"/>
<path d="M3949 3985 c-14 -8 -32 -28 -39 -45 -26 -62 33 -130 101 -115 76 17
89 124 18 160 -34 18 -47 18 -80 0z"/>
<path d="M4149 3985 c-14 -8 -32 -28 -39 -45 -26 -62 33 -130 101 -115 76 17
89 124 18 160 -34 18 -47 18 -80 0z"/>
<path d="M2349 3785 c-14 -8 -32 -28 -39 -45 -26 -62 33 -130 101 -115 76 17
89 124 18 160 -34 18 -47 18 -80 0z"/>
<path d="M2549 3785 c-14 -8 -32 -28 -39 -45 -26 -62 33 -130 101 -115 76 17
89 124 18 160 -34 18 -47 18 -80 0z"/>
<path d="M2749 3785 c-14 -8 -32 -28 -39 -45 -26 -62 33 -130 101 -115 76 17
89 124 18 160 -34 18 -47 18 -80 0z"/>
<path d="M2949 3785 c-14 -8 -32 -28 -39 -45 -26 -62 33 -130 101 -115 76 17
89 124 18 160 -34 18 -47 18 -80 0z"/>
<path d="M3349 3785 c-14 -8 -32 -28 -39 -45 -26 -62 33 -130 101 -115 76 17
89 124 18 160 -34 18 -47 18 -80 0z"/>
<path d="M3549 3785 c-14 -8 -32 -28 -39 -45 -26 -62 33 -130 101 -115 76 17
89 124 18 160 -34 18 -47 18 -80 0z"/>
<path d="M3749 3785 c-14 -8 -32 -28 -39 -45 -26 -62 33 -130 101 -115 76 17
89 124 18 160 -34 18 -47 18 -80 0z"/>
<path d="M3949 3785 c-14 -8 -32 -28 -39 -45 -26 -62 33 -130 101 -115 76 17
89 124 18 160 -34 18 -47 18 -80 0z"/>
<path d="M4149 3785 c-14 -8 -32 -28 -39 -45 -26 -62 33 -130 101 -115 76 17
89 124 18 160 -34 18 -47 18 -80 0z"/>
<path d="M2349 3585 c-14 -8 -32 -28 -39 -45 -26 -62 33 -130 101 -115 76 17
89 124 18 160 -34 18 -47 18 -80 0z"/>
<path d="M2549 3585 c-14 -8 -32 -28 -39 -45 -26 -62 33 -130 101 -115 76 17
89 124 18 160 -34 18 -47 18 -80 0z"/>
<path d="M2749 3585 c-14 -8 -32 -28 -39 -45 -26 -62 33 -130 101 -115 76 17
89 124 18 160 -34 18 -47 18 -80 0z"/>
<path d="M2949 3585 c-14 -8 -32 -28 -39 -45 -26 -62 33 -130 101 -115 76 17
89 124 18 160 -34 18 -47 18 -80 0z"/>
<path d="M3349 3585 c-14 -8 -32 -28 -39 -45 -26 -62 33 -130 101 -115 76 17
89 124 18 160 -34 18 -47 18 -80 0z"/>
<path d="M3549 3585 c-14 -8 -32 -28 -39 -45 -26 -62 33 -130 101 -115 76 17
89 124 18 160 -34 18 -47 18 -80 0z"/>
<path d="M3749 3585 c-14 -8 -32 -28 -39 -45 -26 -62 33 -130 101 -115 76 17
89 124 18 160 -34 18 -47 18 -80 0z"/>
<path d="M3949 3585 c-14 -8 -32 -28 -39 -45 -26 -62 33 -130 101 -115 76 17
89 124 18 160 -34 18 -47 18 -80 0z"/>
<path d="M2549 3385 c-14 -8 -32 -28 -39 -45 -26 -62 33 -130 101 -115 76 17
89 124 18 160 -34 18 -47 18 -80 0z"/>
<path d="M2749 3385 c-14 -8 -32 -28 -39 -45 -26 -62 33 -130 101 -115 76 17
89 124 18 160 -34 18 -47 18 -80 0z"/>
<path d="M2949 3385 c-14 -8 -32 -28 -39 -45 -26 -62 33 -130 101 -115 76 17
89 124 18 160 -34 18 -47 18 -80 0z"/>
<path d="M3149 3385 c-14 -8 -32 -28 -39 -45 -26 -62 33 -130 101 -115 76 17
89 124 18 160 -34 18 -47 18 -80 0z"/>
<path d="M3349 3385 c-14 -8 -32 -28 -39 -45 -26 -62 33 -130 101 -115 76 17
89 124 18 160 -34 18 -47 18 -80 0z"/>
<path d="M3149 3185 c-14 -8 -32 -28 -39 -45 -26 -62 33 -130 101 -115 76 17
89 124 18 160 -34 18 -47 18 -80 0z"/>
<path d="M3349 3185 c-14 -8 -32 -28 -39 -45 -26 -62 33 -130 101 -115 76 17
89 124 18 160 -34 18 -47 18 -80 0z"/>
<path d="M3549 3185 c-14 -8 -32 -28 -39 -45 -26 -62 33 -130 101 -115 76 17
89 124 18 160 -34 18 -47 18 -80 0z"/>
<path d="M3749 3185 c-14 -8 -32 -28 -39 -45 -26 -62 33 -130 101 -115 76 17
89 124 18 160 -34 18 -47 18 -80 0z"/>
<path d="M3949 3185 c-14 -8 -32 -28 -39 -45 -26 -62 33 -130 101 -115 76 17
89 124 18 160 -34 18 -47 18 -80 0z"/>
<path d="M2549 2985 c-14 -8 -32 -28 -39 -45 -26 -62 33 -130 101 -115 76 17
89 124 18 160 -34 18 -47 18 -80 0z"/>
<path d="M2749 2985 c-14 -8 -32 -28 -39 -45 -26 -62 33 -130 101 -115 76 17
89 124 18 160 -34 18 -47 18 -80 0z"/>
<path d="M2949 2985 c-14 -8 -32 -28 -39 -45 -26 -62 33 -130 101 -115 76 17
89 124 18 160 -34 18 -47 18 -80 0z"/>
<path d="M3149 2985 c-14 -8 -32 -28 -39 -45 -26 -62 33 -130 101 -115 76 17
89 124 18 160 -34 18 -47 18 -80 0z"/>
<path d="M3549 2985 c-14 -8 -32 -28 -39 -45 -26 -62 33 -130 101 -115 76 17
89 124 18 160 -34 18 -47 18 -80 0z"/>
<path d="M3749 2985 c-14 -8 -32 -28 -39 -45 -26 -62 33 -130 101 -115 76 17
89 124 18 160 -34 18 -47 18 -80 0z"/>
<path d="M3949 2985 c-14 -8 -32 -28 -39 -45 -26 -62 33 -130 101 -115 76 17
89 124 18 160 -34 18 -47 18 -80 0z"/>
<path d="M4149 2985 c-14 -8 -32 -28 -39 -45 -26 -62 33 -130 101 -115 76 17
89 124 18 160 -34 18 -47 18 -80 0z"/>
<path d="M2349 2785 c-14 -8 -32 -28 -39 -45 -26 -62 33 -130 101 -115 76 17
89 124 18 160 -34 18 -47 18 -80 0z"/>
<path d="M2549 2785 c-14 -8 -32 -28 -39 -45 -26 -62 33 -130 101 -115 76 17
89 124 18 160 -34 18 -47 18 -80 0z"/>
<path d="M2749 2785 c-14 -8 -32 -28 -39 -45 -26 -62 33 -130 101 -115 76 17
89 124 18 160 -34 18 -47 18 -80 0z"/>
<path d="M2949 2785 c-14 -8 -32 -28 -39 -45 -26 -62 33 -130 101 -115 76 17
89 124 18 160 -34 18 -47 18 -80 0z"/>
<path d="M3149 2785 c-14 -8 -32 -28 -39 -45 -26 -62 33 -130 101 -115 76 17
89 124 18 160 -34 18 -47 18 -80 0z"/>
<path d="M3549 2785 c-14 -8 -32 -28 -39 -45 -26 -62 33 -130 101 -115 76 17
89 124 18 160 -34 18 -47 18 -80 0z"/>
<path d="M3749 2785 c-14 -8 -32 -28 -39 -45 -26 -62 33 -130 101 -115 76 17
89 124 18 160 -34 18 -47 18 -80 0z"/>
<path d="M3949 2785 c-14 -8 -32 -28 -39 -45 -26 -62 33 -130 101 -115 76 17
89 124 18 160 -34 18 -47 18 -80 0z"/>
<path d="M4149 2785 c-14 -8 -32 -28 -39 -45 -26 -62 33 -130 101 -115 76 17
89 124 18 160 -34 18 -47 18 -80 0z"/>
<path d="M2349 2585 c-14 -8 -32 -28 -39 -45 -26 -62 33 -130 101 -115 76 17
89 124 18 160 -34 18 -47 18 -80 0z"/>
<path d="M2549 2585 c-14 -8 -32 -28 -39 -45 -26 -62 33 -130 101 -115 76 17
89 124 18 160 -34 18 -47 18 -80 0z"/>
<path d="M2749 2585 c-14 -8 -32 -28 -39 -45 -26 -62 33 -130 101 -115 76 17
89 124 18 160 -34 18 -47 18 -80 0z"/>
<path d="M2949 2585 c-14 -8 -32 -28 -39 -45 -26 -62 33 -130 101 -115 76 17
89 124 18 160 -34 18 -47 18 -80 0z"/>
<path d="M3149 2585 c-14 -8 -32 -28 -39 -45 -26 -62 33 -130 101 -115 76 17
89 124 18 160 -34 18 -47 18 -80 0z"/>
<path d="M3549 2585 c-14 -8 -32 -28 -39 -45 -26 -62 33 -130 101 -115 76 17
89 124 18 160 -34 18 -47 18 -80 0z"/>
<path d="M3749 2585 c-14 -8 -32 -28 -39 -45 -26 -62 33 -130 101 -115 76 17
89 124 18 160 -34 18 -47 18 -80 0z"/>
<path d="M3949 2585 c-14 -8 -32 -28 -39 -45 -26 -62 33 -130 101 -115 76 17
89 124 18 160 -34 18 -47 18 -80 0z"/>
<path d="M4149 2585 c-14 -8 -32 -28 -39 -45 -26 -62 33 -130 101 -115 76 17
89 124 18 160 -34 18 -47 18 -80 0z"/>
<path d="M2549 2385 c-14 -8 -32 -28 -39 -45 -26 -62 33 -130 101 -115 76 17
89 124 18 160 -34 18 -47 18 -80 0z"/>
<path d="M2749 2385 c-14 -8 -32 -28 -39 -45 -26 -62 33 -130 101 -115 76 17
89 124 18 160 -34 18 -47 18 -80 0z"/>
<path d="M2949 2385 c-14 -8 -32 -28 -39 -45 -26 -62 33 -130 101 -115 76 17
89 124 18 160 -34 18 -47 18 -80 0z"/>
<path d="M3749 2385 c-14 -8 -32 -28 -39 -45 -26 -62 33 -130 101 -115 76 17
89 124 18 160 -34 18 -47 18 -80 0z"/>
<path d="M3949 2385 c-14 -8 -32 -28 -39 -45 -26 -62 33 -130 101 -115 76 17
89 124 18 160 -34 18 -47 18 -80 0z"/>
</g>
</svg>
