<?xml version="1.0" standalone="no"?>
<!DOCTYPE svg PUBLIC "-//W3C//DTD SVG 20010904//EN"
 "http://www.w3.org/TR/2001/REC-SVG-20010904/DTD/svg10.dtd">
<svg version="1.0" xmlns="http://www.w3.org/2000/svg"
 width="648.000000pt" height="648.000000pt" viewBox="0 0 648.000000 648.000000"
 preserveAspectRatio="xMidYMid meet">
<metadata>
Created by potrace 1.13, written by Peter Selinger 2001-2015
</metadata>
<g transform="translate(0.000000,648.000000) scale(0.100000,-0.100000)"
fill="#000000" stroke="none">
<path d="M1447 5092 l-117 -288 0 -237 0 -237 -154 0 -153 0 -5 83 c-5 103
-25 143 -88 175 -45 22 -45 22 -480 20 l-435 -3 0 -1350 0 -1350 452 0 c440 0
452 1 480 21 46 33 73 98 73 176 l0 68 155 0 155 0 0 -245 0 -246 111 -272
c61 -150 114 -278 118 -285 5 -9 335 -12 1603 -12 877 0 1602 2 1609 4 8 2 91
7 184 10 155 6 312 12 1099 49 l259 12 78 255 79 254 0 1552 0 1551 -61 194
c-34 107 -68 219 -77 249 -8 30 -16 56 -16 57 -1 1 -193 11 -786 38 -970 45
-975 45 -2490 45 l-1476 0 -117 -288z m3053 -1852 l0 -2060 -1420 0 -1420 0 0
2060 0 2060 1420 0 1420 0 0 -2060z m375 2045 c94 -3 310 -12 480 -20 171 -8
423 -19 560 -25 138 -6 269 -13 292 -17 49 -6 38 17 127 -264 l66 -205 0
-1502 c0 -1636 4 -1507 -58 -1697 -16 -49 -44 -135 -61 -191 l-31 -101 -93 -6
c-50 -3 -198 -11 -327 -17 -129 -6 -377 -17 -550 -25 -173 -8 -402 -17 -507
-21 l-193 -6 0 2057 0 2058 63 -6 c34 -4 139 -9 232 -12z m-3296 -2047 c0
-2039 2 -1926 -40 -1823 -45 112 -95 230 -115 276 l-24 57 0 1495 0 1496 24
53 c21 48 37 87 121 291 15 37 30 67 32 67 1 0 3 -861 2 -1912z m-719 1274
c23 -11 43 -33 57 -62 l23 -44 0 -1156 c0 -1289 5 -1198 -69 -1247 -34 -23
-36 -23 -402 -23 l-369 0 0 25 0 24 351 3 c334 3 351 4 365 22 8 11 14 25 14
31 0 6 -6 20 -14 31 -14 18 -31 19 -365 22 l-351 3 0 54 0 54 351 3 c334 3
351 4 365 22 18 25 18 37 0 62 -14 18 -31 19 -365 22 l-351 3 0 74 0 75 344 0
c318 0 345 1 366 18 30 24 21 68 -16 82 -14 6 -169 10 -360 10 l-334 0 0 105
0 105 334 0 c191 0 346 4 360 10 37 14 46 58 16 82 -21 17 -48 18 -366 18
l-344 0 0 130 0 130 357 2 358 3 10 29 c8 24 6 31 -14 47 -22 18 -44 19 -367
19 l-344 0 0 130 0 130 349 0 c304 0 352 2 365 16 21 20 20 43 -1 66 -15 17
-40 18 -365 18 l-348 0 0 110 0 110 347 0 c308 0 348 2 365 17 22 20 23 41 1
65 -15 17 -40 18 -365 18 l-348 0 0 80 0 80 347 0 c308 0 348 2 365 17 22 20
23 41 1 65 -15 17 -40 18 -365 18 l-348 0 0 60 0 60 347 0 c308 0 348 2 365
17 22 20 23 41 1 65 -15 17 -40 18 -365 18 l-348 0 0 35 0 35 363 0 c325 0
366 -2 397 -18z m460 -1262 l0 -1000 -145 0 -145 0 0 185 0 184 93 3 92 3 0
50 0 50 -92 3 -93 3 0 519 0 519 93 3 92 3 0 45 0 45 -92 3 -93 3 0 189 0 190
145 0 145 0 0 -1000z"/>
<path d="M3548 3989 c-33 -19 -13 -79 26 -79 10 0 36 32 36 45 0 14 -27 45
-38 45 -4 0 -15 -5 -24 -11z"/>
<path d="M3638 3989 c-33 -19 -13 -79 26 -79 10 0 36 32 36 45 0 14 -27 45
-38 45 -4 0 -15 -5 -24 -11z"/>
<path d="M3728 3989 c-33 -19 -13 -79 26 -79 10 0 36 32 36 45 0 14 -27 45
-38 45 -4 0 -15 -5 -24 -11z"/>
<path d="M3468 3939 c-10 -5 -18 -21 -18 -34 0 -13 8 -29 18 -35 16 -10 16
-10 0 -20 -10 -6 -18 -22 -18 -35 0 -13 8 -29 18 -35 16 -10 16 -10 0 -20 -10
-6 -18 -22 -18 -35 0 -13 8 -29 18 -35 16 -10 16 -10 0 -20 -24 -15 -23 -57 1
-70 11 -5 22 -10 25 -10 10 0 36 32 36 45 0 7 -7 21 -16 29 -14 15 -14 17 0
32 9 8 16 22 16 29 0 7 -7 21 -16 29 -14 15 -14 17 0 32 9 8 16 22 16 29 0 7
-7 21 -16 29 -14 15 -14 17 0 32 9 8 16 22 16 29 0 14 -27 45 -38 45 -4 0 -15
-5 -24 -11z"/>
<path d="M3808 3939 c-10 -5 -18 -21 -18 -34 0 -13 8 -29 18 -35 16 -10 16
-10 0 -20 -10 -6 -18 -22 -18 -35 0 -13 8 -29 18 -35 16 -10 16 -10 0 -20 -10
-6 -18 -22 -18 -35 0 -13 8 -29 18 -35 16 -10 16 -10 0 -20 -24 -15 -23 -57 1
-70 11 -5 22 -10 25 -10 10 0 36 32 36 45 0 7 -7 21 -16 29 -14 15 -14 17 0
32 9 8 16 22 16 29 0 7 -7 21 -16 29 -14 15 -14 17 0 32 9 8 16 22 16 29 0 7
-7 21 -16 29 -14 15 -14 17 0 32 9 8 16 22 16 29 0 14 -27 45 -38 45 -4 0 -15
-5 -24 -11z"/>
<path d="M3548 3619 c-33 -19 -13 -79 26 -79 10 0 36 32 36 45 0 14 -27 45
-38 45 -4 0 -15 -5 -24 -11z"/>
<path d="M3638 3619 c-33 -19 -13 -79 26 -79 10 0 36 32 36 45 0 14 -27 45
-38 45 -4 0 -15 -5 -24 -11z"/>
<path d="M3728 3619 c-33 -19 -13 -79 26 -79 10 0 36 32 36 45 0 14 -27 45
-38 45 -4 0 -15 -5 -24 -11z"/>
<path d="M2195 3518 l-50 -61 -80 -1 -80 -1 -3 -62 -3 -63 31 0 31 0 -51 -62
c-27 -35 -50 -65 -50 -68 1 -3 22 -31 48 -63 26 -32 94 -116 152 -187 58 -71
109 -129 113 -129 4 -1 20 10 34 24 25 22 26 26 11 42 -8 10 -70 84 -137 166
l-122 147 122 148 c67 81 129 155 137 165 14 16 13 20 -8 42 -13 14 -28 25
-34 24 -6 0 -33 -28 -61 -61z"/>
<path d="M3548 3479 c-33 -19 -13 -79 26 -79 10 0 36 32 36 45 0 14 -27 45
-38 45 -4 0 -15 -5 -24 -11z"/>
<path d="M3638 3479 c-33 -19 -13 -79 26 -79 10 0 36 32 36 45 0 14 -27 45
-38 45 -4 0 -15 -5 -24 -11z"/>
<path d="M3728 3479 c-33 -19 -13 -79 26 -79 10 0 36 32 36 45 0 14 -27 45
-38 45 -4 0 -15 -5 -24 -11z"/>
<path d="M2186 3340 l-116 -140 116 -140 116 -140 139 0 139 0 0 110 0 110
-100 0 -101 0 3 63 3 62 95 1 95 2 3 106 3 106 -140 0 -139 0 -116 -140z"/>
<path d="M3468 3429 c-10 -5 -18 -21 -18 -34 0 -13 8 -29 18 -35 16 -10 16
-10 0 -20 -10 -6 -18 -22 -18 -35 0 -13 8 -29 18 -35 16 -10 16 -10 0 -20 -10
-6 -18 -22 -18 -35 0 -13 8 -29 18 -35 16 -10 16 -10 0 -20 -24 -15 -23 -57 1
-70 11 -5 22 -10 25 -10 10 0 36 32 36 45 0 7 -7 21 -16 29 -14 15 -14 17 0
32 9 8 16 22 16 29 0 7 -7 21 -16 29 -14 15 -14 17 0 32 9 8 16 22 16 29 0 7
-7 21 -16 29 -14 15 -14 17 0 32 9 8 16 22 16 29 0 14 -27 45 -38 45 -4 0 -15
-5 -24 -11z"/>
<path d="M3808 3429 c-10 -5 -18 -21 -18 -34 0 -13 8 -29 18 -35 16 -10 16
-10 0 -20 -10 -6 -18 -22 -18 -35 0 -13 8 -29 18 -35 16 -10 16 -10 0 -20 -10
-6 -18 -22 -18 -35 0 -13 8 -29 18 -35 16 -10 16 -10 0 -20 -24 -15 -23 -57 1
-70 11 -5 22 -10 25 -10 10 0 36 32 36 45 0 7 -7 21 -16 29 -14 15 -14 17 0
32 9 8 16 22 16 29 0 7 -7 21 -16 29 -14 15 -14 17 0 32 9 8 16 22 16 29 0 7
-7 21 -16 29 -14 15 -14 17 0 32 9 8 16 22 16 29 0 14 -27 45 -38 45 -4 0 -15
-5 -24 -11z"/>
<path d="M4148 3429 c-10 -5 -18 -21 -18 -34 0 -13 8 -29 18 -35 16 -10 16
-10 0 -20 -10 -6 -18 -22 -18 -35 0 -13 8 -29 18 -35 16 -10 16 -10 0 -20 -10
-6 -18 -22 -18 -35 0 -13 8 -29 18 -35 16 -10 16 -10 0 -20 -24 -15 -23 -57 1
-70 11 -5 22 -10 25 -10 10 0 36 32 36 45 0 7 -7 21 -16 29 -14 15 -14 17 0
32 9 8 16 22 16 29 0 7 -7 21 -16 29 -14 15 -14 17 0 32 9 8 16 22 16 29 0 7
-7 21 -16 29 -14 15 -14 17 0 32 9 8 16 22 16 29 0 14 -27 45 -38 45 -4 0 -15
-5 -24 -11z"/>
<path d="M3888 3109 c-33 -19 -13 -79 26 -79 10 0 36 32 36 45 0 14 -27 45
-38 45 -4 0 -15 -5 -24 -11z"/>
<path d="M3978 3109 c-33 -19 -13 -79 26 -79 10 0 36 32 36 45 0 14 -27 45
-38 45 -4 0 -15 -5 -24 -11z"/>
<path d="M4068 3109 c-33 -19 -13 -79 26 -79 10 0 36 32 36 45 0 14 -27 45
-38 45 -4 0 -15 -5 -24 -11z"/>
<path d="M3548 2959 c-33 -19 -13 -79 26 -79 10 0 36 32 36 45 0 14 -27 45
-38 45 -4 0 -15 -5 -24 -11z"/>
<path d="M3638 2959 c-33 -19 -13 -79 26 -79 10 0 36 32 36 45 0 14 -27 45
-38 45 -4 0 -15 -5 -24 -11z"/>
<path d="M3728 2959 c-33 -19 -13 -79 26 -79 10 0 36 32 36 45 0 14 -27 45
-38 45 -4 0 -15 -5 -24 -11z"/>
<path d="M3468 2909 c-10 -5 -18 -21 -18 -34 0 -13 8 -29 18 -35 16 -10 16
-10 0 -20 -10 -6 -18 -22 -18 -35 0 -13 8 -29 18 -35 16 -10 16 -10 0 -20 -10
-6 -18 -22 -18 -35 0 -13 8 -29 18 -35 16 -10 16 -10 0 -20 -24 -15 -23 -57 1
-70 11 -5 22 -10 25 -10 10 0 36 32 36 45 0 7 -7 21 -16 29 -14 15 -14 17 0
32 9 8 16 22 16 29 0 7 -7 21 -16 29 -14 15 -14 17 0 32 9 8 16 22 16 29 0 7
-7 21 -16 29 -14 15 -14 17 0 32 9 8 16 22 16 29 0 14 -27 45 -38 45 -4 0 -15
-5 -24 -11z"/>
<path d="M3808 2909 c-10 -5 -18 -21 -18 -34 0 -13 8 -29 18 -35 16 -10 16
-10 0 -20 -10 -6 -18 -22 -18 -35 0 -13 8 -29 18 -35 16 -10 16 -10 0 -20 -10
-6 -18 -22 -18 -35 0 -13 8 -29 18 -35 16 -10 16 -10 0 -20 -24 -15 -23 -57 1
-70 11 -5 22 -10 25 -10 10 0 36 32 36 45 0 7 -7 21 -16 29 -14 15 -14 17 0
32 9 8 16 22 16 29 0 7 -7 21 -16 29 -14 15 -14 17 0 32 9 8 16 22 16 29 0 7
-7 21 -16 29 -14 15 -14 17 0 32 9 8 16 22 16 29 0 14 -27 45 -38 45 -4 0 -15
-5 -24 -11z"/>
<path d="M4148 2909 c-10 -5 -18 -21 -18 -34 0 -13 8 -29 18 -35 16 -10 16
-10 0 -20 -10 -6 -18 -22 -18 -35 0 -13 8 -29 18 -35 16 -10 16 -10 0 -20 -10
-6 -18 -22 -18 -35 0 -13 8 -29 18 -35 16 -10 16 -10 0 -20 -24 -15 -23 -57 1
-70 11 -5 22 -10 25 -10 10 0 36 32 36 45 0 7 -7 21 -16 29 -14 15 -14 17 0
32 9 8 16 22 16 29 0 7 -7 21 -16 29 -14 15 -14 17 0 32 9 8 16 22 16 29 0 7
-7 21 -16 29 -14 15 -14 17 0 32 9 8 16 22 16 29 0 14 -27 45 -38 45 -4 0 -15
-5 -24 -11z"/>
<path d="M3888 2589 c-33 -19 -13 -79 26 -79 10 0 36 32 36 45 0 14 -27 45
-38 45 -4 0 -15 -5 -24 -11z"/>
<path d="M3978 2589 c-33 -19 -13 -79 26 -79 10 0 36 32 36 45 0 14 -27 45
-38 45 -4 0 -15 -5 -24 -11z"/>
<path d="M4068 2589 c-33 -19 -13 -79 26 -79 10 0 36 32 36 45 0 14 -27 45
-38 45 -4 0 -15 -5 -24 -11z"/>
</g>
</svg>
