<?xml version="1.0" standalone="no"?>
<!DOCTYPE svg PUBLIC "-//W3C//DTD SVG 20010904//EN"
 "http://www.w3.org/TR/2001/REC-SVG-20010904/DTD/svg10.dtd">
<svg version="1.0" xmlns="http://www.w3.org/2000/svg"
 width="900.000000pt" height="900.000000pt" viewBox="0 0 900.000000 900.000000"
 preserveAspectRatio="xMidYMid meet">
<metadata>
Created by potrace 1.13, written by Peter Selinger 2001-2015
</metadata>
<g transform="translate(0.000000,900.000000) scale(0.100000,-0.100000)"
fill="#000000" stroke="none">
<path d="M3967 7612 l-117 -288 0 -237 0 -237 -154 0 -153 0 -5 83 c-5 103
-25 143 -88 175 -45 22 -45 22 -480 20 l-435 -3 -3 -1012 -2 -1013 -473 0
-473 0 -117 -288 -117 -288 0 -237 0 -237 -154 0 -153 0 -5 83 c-5 103 -25
143 -88 175 -45 22 -45 22 -480 20 l-435 -3 0 -1350 0 -1350 452 0 c440 0 452
1 480 21 46 33 73 98 73 176 l0 68 155 0 155 0 0 -245 0 -246 111 -272 c61
-150 114 -278 118 -285 5 -9 335 -12 1603 -12 877 0 1602 2 1609 4 8 2 91 7
184 10 155 6 312 12 1099 49 l259 12 78 255 79 254 0 1108 0 1108 378 0 c208
-1 400 1 427 4 28 3 113 8 190 10 135 5 566 25 1094 49 l254 12 78 255 79 254
0 1552 0 1551 -61 194 c-34 107 -68 219 -77 249 -8 30 -16 56 -16 57 -1 1
-193 11 -786 38 -970 45 -975 45 -2490 45 l-1476 0 -117 -288z m3031 172 l22
-6 0 -2019 0 -2018 -32 -6 c-18 -3 -652 -4 -1408 -3 l-1375 3 -3 2015 c-1
1108 0 2021 3 2028 3 9 290 12 1387 12 761 0 1393 -3 1406 -6z m552 -14 c246
-9 517 -22 933 -44 187 -10 251 -16 261 -27 7 -8 35 -86 61 -174 26 -88 56
-184 66 -213 18 -51 19 -110 19 -1541 l0 -1489 -71 -233 c-39 -129 -72 -235
-72 -235 -6 -6 -1168 -62 -1434 -70 l-213 -7 0 2028 0 2028 108 -7 c59 -4 213
-11 342 -16z m-3451 -2012 c0 -2039 2 -1926 -40 -1823 -68 168 -93 227 -109
263 -20 42 -20 71 -20 1563 0 1303 2 1525 14 1552 13 29 29 67 121 290 15 37
30 67 32 67 1 0 3 -861 2 -1912z m-721 1252 c20 -13 41 -38 53 -65 19 -43 19
-72 17 -1189 -3 -1138 -3 -1145 -24 -1172 -11 -15 -33 -37 -48 -48 -26 -20
-42 -21 -364 -24 -185 -2 -347 0 -359 3 -13 3 -23 12 -23 20 0 12 52 15 346
17 329 3 346 4 360 22 18 25 18 37 0 62 -14 18 -31 19 -352 22 -251 2 -340 6
-346 15 -4 7 -8 31 -8 54 l0 42 346 3 c329 3 346 4 360 22 18 25 18 37 0 62
-14 18 -33 19 -358 24 l-343 5 -3 73 -3 72 339 0 c314 0 341 1 362 18 30 24
21 68 -16 82 -14 6 -167 10 -355 10 l-329 0 0 105 0 105 329 0 c188 0 341 4
355 10 37 14 46 58 16 82 -21 17 -48 18 -361 18 l-340 0 3 128 3 127 350 5
350 5 10 29 c8 24 6 31 -14 47 -22 18 -44 19 -362 19 l-340 0 3 128 3 127 348
5 c294 4 349 7 357 20 14 22 12 41 -7 62 -15 17 -40 18 -360 18 l-344 0 3 108
3 107 339 3 c299 2 342 4 358 19 22 20 23 41 1 65 -15 17 -40 18 -360 18
l-344 0 3 78 3 77 339 3 c299 2 342 4 358 19 22 20 23 41 1 65 -15 17 -40 18
-360 18 l-343 0 0 44 c0 82 -28 76 348 76 298 0 337 2 354 17 22 20 23 41 1
65 -15 17 -40 18 -360 18 l-343 0 0 25 0 25 358 0 c341 0 359 -1 390 -20z
m462 -1240 l0 -980 -145 0 -145 0 0 175 0 174 93 3 92 3 0 50 0 50 -92 3 -93
3 0 519 0 519 93 3 92 3 0 45 0 45 -92 3 -93 3 0 179 0 180 145 0 145 0 0
-980z m-1308 -1062 l3 -283 452 0 c440 0 452 1 480 21 46 33 73 98 73 176 l0
68 155 0 155 0 0 -245 0 -246 111 -272 c61 -150 114 -278 118 -285 6 -10 57
-14 222 -15 l214 -2 3 -1342 2 -1342 -32 -6 c-18 -3 -652 -4 -1408 -3 l-1375
3 -3 2015 c-1 1108 0 2021 3 2028 3 9 96 12 415 12 l410 0 2 -282z m-933
-1750 c0 -2039 2 -1926 -40 -1823 -68 168 -93 227 -109 263 -20 42 -20 71 -20
1563 0 1303 2 1525 14 1552 13 29 29 67 121 290 15 37 30 67 32 67 1 0 3 -861
2 -1912z m-721 1252 c20 -13 41 -38 53 -65 19 -43 19 -72 17 -1189 -3 -1138
-3 -1145 -24 -1172 -11 -15 -33 -37 -48 -48 -26 -20 -42 -21 -364 -24 -185 -2
-347 0 -359 3 -13 3 -23 12 -23 20 0 12 52 15 346 17 329 3 346 4 360 22 18
25 18 37 0 62 -14 18 -31 19 -352 22 -251 2 -340 6 -346 15 -4 7 -8 31 -8 54
l0 42 346 3 c329 3 346 4 360 22 18 25 18 37 0 62 -14 18 -33 19 -358 24
l-343 5 -3 73 -3 72 339 0 c314 0 341 1 362 18 30 24 21 68 -16 82 -14 6 -167
10 -355 10 l-329 0 0 105 0 105 329 0 c188 0 341 4 355 10 37 14 46 58 16 82
-21 17 -48 18 -361 18 l-340 0 3 128 3 127 350 5 350 5 10 29 c8 24 6 31 -14
47 -22 18 -44 19 -362 19 l-340 0 3 128 3 127 348 5 c294 4 349 7 357 20 14
22 12 41 -7 62 -15 17 -40 18 -360 18 l-344 0 3 108 3 107 339 3 c299 2 342 4
358 19 22 20 23 41 1 65 -15 17 -40 18 -360 18 l-344 0 3 78 3 77 339 3 c299
2 342 4 358 19 22 20 23 41 1 65 -15 17 -40 18 -360 18 l-343 0 0 44 c0 82
-28 76 348 76 298 0 337 2 354 17 22 20 23 41 1 65 -15 17 -40 18 -360 18
l-343 0 0 25 0 25 358 0 c341 0 359 -1 390 -20z m462 -1240 l0 -980 -145 0
-145 0 0 175 0 174 93 3 92 3 0 50 0 50 -92 3 -93 3 0 519 0 519 93 3 92 3 0
45 0 45 -92 3 -93 3 0 179 0 180 145 0 145 0 0 -980z m5050 -414 l0 -1074 -71
-233 c-39 -129 -72 -235 -72 -235 -6 -6 -1168 -62 -1434 -70 l-213 -7 0 1347
0 1346 895 0 895 0 0 -1074z"/>
<path d="M6068 6509 c-33 -19 -13 -79 26 -79 10 0 36 32 36 45 0 14 -27 45
-38 45 -4 0 -15 -5 -24 -11z"/>
<path d="M6158 6509 c-33 -19 -13 -79 26 -79 10 0 36 32 36 45 0 14 -27 45
-38 45 -4 0 -15 -5 -24 -11z"/>
<path d="M6248 6509 c-33 -19 -13 -79 26 -79 10 0 36 32 36 45 0 14 -27 45
-38 45 -4 0 -15 -5 -24 -11z"/>
<path d="M5988 6459 c-10 -5 -18 -21 -18 -34 0 -13 8 -29 18 -35 16 -10 16
-10 0 -20 -10 -6 -18 -22 -18 -35 0 -13 8 -29 18 -35 16 -10 16 -10 0 -20 -10
-6 -18 -22 -18 -35 0 -13 8 -29 18 -35 16 -10 16 -10 0 -20 -24 -15 -23 -57 1
-70 25 -13 27 -13 45 6 20 20 20 38 0 58 -14 15 -14 17 0 32 20 20 20 38 0 58
-14 15 -14 17 0 32 9 8 16 22 16 29 0 7 -7 21 -16 29 -14 15 -14 17 0 32 9 8
16 22 16 29 0 14 -27 45 -38 45 -4 0 -15 -5 -24 -11z"/>
<path d="M6328 6459 c-10 -5 -18 -21 -18 -34 0 -13 8 -29 18 -35 16 -10 16
-10 0 -20 -10 -6 -18 -22 -18 -35 0 -13 8 -29 18 -35 16 -10 16 -10 0 -20 -10
-6 -18 -22 -18 -35 0 -13 8 -29 18 -35 16 -10 16 -10 0 -20 -24 -15 -23 -57 1
-70 25 -13 27 -13 45 6 20 20 20 38 0 58 -14 15 -14 17 0 32 20 20 20 38 0 58
-14 15 -14 17 0 32 9 8 16 22 16 29 0 7 -7 21 -16 29 -14 15 -14 17 0 32 9 8
16 22 16 29 0 14 -27 45 -38 45 -4 0 -15 -5 -24 -11z"/>
<path d="M6068 6139 c-33 -19 -13 -79 26 -79 10 0 36 32 36 45 0 14 -27 45
-38 45 -4 0 -15 -5 -24 -11z"/>
<path d="M6158 6139 c-33 -19 -13 -79 26 -79 10 0 36 32 36 45 0 14 -27 45
-38 45 -4 0 -15 -5 -24 -11z"/>
<path d="M6248 6139 c-33 -19 -13 -79 26 -79 10 0 36 32 36 45 0 14 -27 45
-38 45 -4 0 -15 -5 -24 -11z"/>
<path d="M4715 6038 l-50 -61 -80 -1 -80 -1 -3 -62 -3 -63 31 0 31 0 -51 -62
c-27 -35 -50 -65 -50 -68 1 -3 22 -31 48 -63 26 -32 94 -116 152 -187 58 -71
109 -129 113 -129 4 -1 20 10 34 24 25 22 26 26 11 42 -8 10 -70 84 -137 166
l-122 147 122 148 c67 81 129 155 137 165 14 16 13 20 -8 42 -13 14 -28 25
-34 24 -6 0 -33 -28 -61 -61z"/>
<path d="M6068 5999 c-33 -19 -13 -79 26 -79 10 0 36 32 36 45 0 14 -27 45
-38 45 -4 0 -15 -5 -24 -11z"/>
<path d="M6158 5999 c-33 -19 -13 -79 26 -79 10 0 36 32 36 45 0 14 -27 45
-38 45 -4 0 -15 -5 -24 -11z"/>
<path d="M6248 5999 c-33 -19 -13 -79 26 -79 10 0 36 32 36 45 0 14 -27 45
-38 45 -4 0 -15 -5 -24 -11z"/>
<path d="M4706 5860 l-116 -140 116 -140 116 -140 139 0 139 0 0 110 0 110
-100 0 -101 0 3 63 3 62 95 1 95 2 3 106 3 106 -140 0 -139 0 -116 -140z"/>
<path d="M5988 5949 c-10 -5 -18 -21 -18 -34 0 -13 8 -29 18 -35 16 -10 16
-10 0 -20 -10 -6 -18 -22 -18 -35 0 -13 8 -29 18 -35 16 -10 16 -10 0 -20 -10
-6 -18 -22 -18 -35 0 -13 8 -29 18 -35 16 -10 16 -10 0 -20 -24 -15 -23 -57 1
-70 25 -13 27 -13 45 6 20 20 20 38 0 58 -14 15 -14 17 0 32 20 20 20 38 0 58
-14 15 -14 17 0 32 9 8 16 22 16 29 0 7 -7 21 -16 29 -14 15 -14 17 0 32 9 8
16 22 16 29 0 14 -27 45 -38 45 -4 0 -15 -5 -24 -11z"/>
<path d="M6328 5949 c-10 -5 -18 -21 -18 -34 0 -13 8 -29 18 -35 16 -10 16
-10 0 -20 -10 -6 -18 -22 -18 -35 0 -13 8 -29 18 -35 16 -10 16 -10 0 -20 -10
-6 -18 -22 -18 -35 0 -13 8 -29 18 -35 16 -10 16 -10 0 -20 -24 -15 -23 -57 1
-70 25 -13 27 -13 45 6 20 20 20 38 0 58 -14 15 -14 17 0 32 20 20 20 38 0 58
-14 15 -14 17 0 32 9 8 16 22 16 29 0 7 -7 21 -16 29 -14 15 -14 17 0 32 9 8
16 22 16 29 0 14 -27 45 -38 45 -4 0 -15 -5 -24 -11z"/>
<path d="M6668 5949 c-10 -5 -18 -21 -18 -34 0 -13 8 -29 18 -35 16 -10 16
-10 0 -20 -10 -6 -18 -22 -18 -35 0 -13 8 -29 18 -35 16 -10 16 -10 0 -20 -10
-6 -18 -22 -18 -35 0 -13 8 -29 18 -35 16 -10 16 -10 0 -20 -24 -15 -23 -57 1
-70 25 -13 27 -13 45 6 20 20 20 38 0 58 -14 15 -14 17 0 32 20 20 20 38 0 58
-14 15 -14 17 0 32 9 8 16 22 16 29 0 7 -7 21 -16 29 -14 15 -14 17 0 32 9 8
16 22 16 29 0 14 -27 45 -38 45 -4 0 -15 -5 -24 -11z"/>
<path d="M6408 5629 c-33 -19 -13 -79 26 -79 10 0 36 32 36 45 0 14 -27 45
-38 45 -4 0 -15 -5 -24 -11z"/>
<path d="M6498 5629 c-33 -19 -13 -79 26 -79 10 0 36 32 36 45 0 14 -27 45
-38 45 -4 0 -15 -5 -24 -11z"/>
<path d="M6588 5629 c-33 -19 -13 -79 26 -79 10 0 36 32 36 45 0 14 -27 45
-38 45 -4 0 -15 -5 -24 -11z"/>
<path d="M6068 5479 c-33 -19 -13 -79 26 -79 10 0 36 32 36 45 0 14 -27 45
-38 45 -4 0 -15 -5 -24 -11z"/>
<path d="M6158 5479 c-33 -19 -13 -79 26 -79 10 0 36 32 36 45 0 14 -27 45
-38 45 -4 0 -15 -5 -24 -11z"/>
<path d="M6248 5479 c-33 -19 -13 -79 26 -79 10 0 36 32 36 45 0 14 -27 45
-38 45 -4 0 -15 -5 -24 -11z"/>
<path d="M5988 5429 c-10 -5 -18 -21 -18 -34 0 -13 8 -29 18 -35 16 -10 16
-10 0 -20 -10 -6 -18 -22 -18 -35 0 -13 8 -29 18 -35 16 -10 16 -10 0 -20 -10
-6 -18 -22 -18 -35 0 -13 8 -29 18 -35 16 -10 16 -10 0 -20 -24 -15 -23 -57 1
-70 25 -13 27 -13 45 6 20 20 20 38 0 58 -14 15 -14 17 0 32 20 20 20 38 0 58
-14 15 -14 17 0 32 9 8 16 22 16 29 0 7 -7 21 -16 29 -14 15 -14 17 0 32 9 8
16 22 16 29 0 14 -27 45 -38 45 -4 0 -15 -5 -24 -11z"/>
<path d="M6328 5429 c-10 -5 -18 -21 -18 -34 0 -13 8 -29 18 -35 16 -10 16
-10 0 -20 -10 -6 -18 -22 -18 -35 0 -13 8 -29 18 -35 16 -10 16 -10 0 -20 -10
-6 -18 -22 -18 -35 0 -13 8 -29 18 -35 16 -10 16 -10 0 -20 -24 -15 -23 -57 1
-70 25 -13 27 -13 45 6 20 20 20 38 0 58 -14 15 -14 17 0 32 20 20 20 38 0 58
-14 15 -14 17 0 32 9 8 16 22 16 29 0 7 -7 21 -16 29 -14 15 -14 17 0 32 9 8
16 22 16 29 0 14 -27 45 -38 45 -4 0 -15 -5 -24 -11z"/>
<path d="M6668 5429 c-10 -5 -18 -21 -18 -34 0 -13 8 -29 18 -35 16 -10 16
-10 0 -20 -10 -6 -18 -22 -18 -35 0 -13 8 -29 18 -35 16 -10 16 -10 0 -20 -10
-6 -18 -22 -18 -35 0 -13 8 -29 18 -35 16 -10 16 -10 0 -20 -24 -15 -23 -57 1
-70 25 -13 27 -13 45 6 20 20 20 38 0 58 -14 15 -14 17 0 32 20 20 20 38 0 58
-14 15 -14 17 0 32 9 8 16 22 16 29 0 7 -7 21 -16 29 -14 15 -14 17 0 32 9 8
16 22 16 29 0 14 -27 45 -38 45 -4 0 -15 -5 -24 -11z"/>
<path d="M6408 5109 c-33 -19 -13 -79 26 -79 10 0 36 32 36 45 0 14 -27 45
-38 45 -4 0 -15 -5 -24 -11z"/>
<path d="M6498 5109 c-33 -19 -13 -79 26 -79 10 0 36 32 36 45 0 14 -27 45
-38 45 -4 0 -15 -5 -24 -11z"/>
<path d="M6588 5109 c-33 -19 -13 -79 26 -79 10 0 36 32 36 45 0 14 -27 45
-38 45 -4 0 -15 -5 -24 -11z"/>
<path d="M3568 3709 c-33 -19 -13 -79 26 -79 10 0 36 32 36 45 0 14 -27 45
-38 45 -4 0 -15 -5 -24 -11z"/>
<path d="M3658 3709 c-33 -19 -13 -79 26 -79 10 0 36 32 36 45 0 14 -27 45
-38 45 -4 0 -15 -5 -24 -11z"/>
<path d="M3748 3709 c-33 -19 -13 -79 26 -79 10 0 36 32 36 45 0 14 -27 45
-38 45 -4 0 -15 -5 -24 -11z"/>
<path d="M3488 3659 c-10 -5 -18 -21 -18 -34 0 -13 8 -29 18 -35 16 -10 16
-10 0 -20 -10 -6 -18 -22 -18 -35 0 -13 8 -29 18 -35 16 -10 16 -10 0 -20 -10
-6 -18 -22 -18 -35 0 -13 8 -29 18 -35 16 -10 16 -10 0 -20 -24 -15 -23 -57 1
-70 11 -5 22 -10 25 -10 10 0 36 32 36 45 0 7 -7 21 -16 29 -14 15 -14 17 0
32 9 8 16 22 16 29 0 7 -7 21 -16 29 -14 15 -14 17 0 32 9 8 16 22 16 29 0 7
-7 21 -16 29 -14 15 -14 17 0 32 9 8 16 22 16 29 0 14 -27 45 -38 45 -4 0 -15
-5 -24 -11z"/>
<path d="M3828 3659 c-10 -5 -18 -21 -18 -34 0 -13 8 -29 18 -35 16 -10 16
-10 0 -20 -10 -6 -18 -22 -18 -35 0 -13 8 -29 18 -35 16 -10 16 -10 0 -20 -10
-6 -18 -22 -18 -35 0 -13 8 -29 18 -35 16 -10 16 -10 0 -20 -24 -15 -23 -57 1
-70 11 -5 22 -10 25 -10 10 0 36 32 36 45 0 7 -7 21 -16 29 -14 15 -14 17 0
32 9 8 16 22 16 29 0 7 -7 21 -16 29 -14 15 -14 17 0 32 9 8 16 22 16 29 0 7
-7 21 -16 29 -14 15 -14 17 0 32 9 8 16 22 16 29 0 14 -27 45 -38 45 -4 0 -15
-5 -24 -11z"/>
<path d="M3568 3339 c-33 -19 -13 -79 26 -79 10 0 36 32 36 45 0 14 -27 45
-38 45 -4 0 -15 -5 -24 -11z"/>
<path d="M3658 3339 c-33 -19 -13 -79 26 -79 10 0 36 32 36 45 0 14 -27 45
-38 45 -4 0 -15 -5 -24 -11z"/>
<path d="M3748 3339 c-33 -19 -13 -79 26 -79 10 0 36 32 36 45 0 14 -27 45
-38 45 -4 0 -15 -5 -24 -11z"/>
<path d="M2215 3238 l-50 -61 -80 -1 -80 -1 -3 -62 -3 -63 31 0 31 0 -51 -62
c-27 -35 -50 -65 -50 -68 1 -3 22 -31 48 -63 26 -32 94 -116 152 -187 58 -71
109 -129 113 -129 4 -1 20 10 34 24 25 22 26 26 11 42 -8 10 -70 84 -137 166
l-122 147 122 148 c67 81 129 155 137 165 14 16 13 20 -8 42 -13 14 -28 25
-34 24 -6 0 -33 -28 -61 -61z"/>
<path d="M3568 3199 c-33 -19 -13 -79 26 -79 10 0 36 32 36 45 0 14 -27 45
-38 45 -4 0 -15 -5 -24 -11z"/>
<path d="M3658 3199 c-33 -19 -13 -79 26 -79 10 0 36 32 36 45 0 14 -27 45
-38 45 -4 0 -15 -5 -24 -11z"/>
<path d="M3748 3199 c-33 -19 -13 -79 26 -79 10 0 36 32 36 45 0 14 -27 45
-38 45 -4 0 -15 -5 -24 -11z"/>
<path d="M2206 3060 l-116 -140 116 -140 116 -140 139 0 139 0 0 110 0 110
-100 0 -101 0 3 63 3 62 95 1 95 2 3 106 3 106 -140 0 -139 0 -116 -140z"/>
<path d="M3488 3149 c-10 -5 -18 -21 -18 -34 0 -13 8 -29 18 -35 16 -10 16
-10 0 -20 -10 -6 -18 -22 -18 -35 0 -13 8 -29 18 -35 16 -10 16 -10 0 -20 -10
-6 -18 -22 -18 -35 0 -13 8 -29 18 -35 16 -10 16 -10 0 -20 -24 -15 -23 -57 1
-70 11 -5 22 -10 25 -10 10 0 36 32 36 45 0 7 -7 21 -16 29 -14 15 -14 17 0
32 9 8 16 22 16 29 0 7 -7 21 -16 29 -14 15 -14 17 0 32 9 8 16 22 16 29 0 7
-7 21 -16 29 -14 15 -14 17 0 32 9 8 16 22 16 29 0 14 -27 45 -38 45 -4 0 -15
-5 -24 -11z"/>
<path d="M3828 3149 c-10 -5 -18 -21 -18 -34 0 -13 8 -29 18 -35 16 -10 16
-10 0 -20 -10 -6 -18 -22 -18 -35 0 -13 8 -29 18 -35 16 -10 16 -10 0 -20 -10
-6 -18 -22 -18 -35 0 -13 8 -29 18 -35 16 -10 16 -10 0 -20 -24 -15 -23 -57 1
-70 11 -5 22 -10 25 -10 10 0 36 32 36 45 0 7 -7 21 -16 29 -14 15 -14 17 0
32 9 8 16 22 16 29 0 7 -7 21 -16 29 -14 15 -14 17 0 32 9 8 16 22 16 29 0 7
-7 21 -16 29 -14 15 -14 17 0 32 9 8 16 22 16 29 0 14 -27 45 -38 45 -4 0 -15
-5 -24 -11z"/>
<path d="M4168 3149 c-10 -5 -18 -21 -18 -34 0 -13 8 -29 18 -35 16 -10 16
-10 0 -20 -10 -6 -18 -22 -18 -35 0 -13 8 -29 18 -35 16 -10 16 -10 0 -20 -10
-6 -18 -22 -18 -35 0 -13 8 -29 18 -35 16 -10 16 -10 0 -20 -24 -15 -23 -57 1
-70 11 -5 22 -10 25 -10 10 0 36 32 36 45 0 7 -7 21 -16 29 -14 15 -14 17 0
32 9 8 16 22 16 29 0 7 -7 21 -16 29 -14 15 -14 17 0 32 9 8 16 22 16 29 0 7
-7 21 -16 29 -14 15 -14 17 0 32 9 8 16 22 16 29 0 14 -27 45 -38 45 -4 0 -15
-5 -24 -11z"/>
<path d="M3908 2829 c-33 -19 -13 -79 26 -79 10 0 36 32 36 45 0 14 -27 45
-38 45 -4 0 -15 -5 -24 -11z"/>
<path d="M3998 2829 c-33 -19 -13 -79 26 -79 10 0 36 32 36 45 0 14 -27 45
-38 45 -4 0 -15 -5 -24 -11z"/>
<path d="M4088 2829 c-33 -19 -13 -79 26 -79 10 0 36 32 36 45 0 14 -27 45
-38 45 -4 0 -15 -5 -24 -11z"/>
<path d="M3568 2679 c-33 -19 -13 -79 26 -79 10 0 36 32 36 45 0 14 -27 45
-38 45 -4 0 -15 -5 -24 -11z"/>
<path d="M3658 2679 c-33 -19 -13 -79 26 -79 10 0 36 32 36 45 0 14 -27 45
-38 45 -4 0 -15 -5 -24 -11z"/>
<path d="M3748 2679 c-33 -19 -13 -79 26 -79 10 0 36 32 36 45 0 14 -27 45
-38 45 -4 0 -15 -5 -24 -11z"/>
<path d="M3488 2629 c-10 -5 -18 -21 -18 -34 0 -13 8 -29 18 -35 16 -10 16
-10 0 -20 -10 -6 -18 -22 -18 -35 0 -13 8 -29 18 -35 16 -10 16 -10 0 -20 -10
-6 -18 -22 -18 -35 0 -13 8 -29 18 -35 16 -10 16 -10 0 -20 -24 -15 -23 -57 1
-70 11 -5 22 -10 25 -10 10 0 36 32 36 45 0 7 -7 21 -16 29 -14 15 -14 17 0
32 9 8 16 22 16 29 0 7 -7 21 -16 29 -14 15 -14 17 0 32 9 8 16 22 16 29 0 7
-7 21 -16 29 -14 15 -14 17 0 32 9 8 16 22 16 29 0 14 -27 45 -38 45 -4 0 -15
-5 -24 -11z"/>
<path d="M3828 2629 c-10 -5 -18 -21 -18 -34 0 -13 8 -29 18 -35 16 -10 16
-10 0 -20 -10 -6 -18 -22 -18 -35 0 -13 8 -29 18 -35 16 -10 16 -10 0 -20 -10
-6 -18 -22 -18 -35 0 -13 8 -29 18 -35 16 -10 16 -10 0 -20 -24 -15 -23 -57 1
-70 11 -5 22 -10 25 -10 10 0 36 32 36 45 0 7 -7 21 -16 29 -14 15 -14 17 0
32 9 8 16 22 16 29 0 7 -7 21 -16 29 -14 15 -14 17 0 32 9 8 16 22 16 29 0 7
-7 21 -16 29 -14 15 -14 17 0 32 9 8 16 22 16 29 0 14 -27 45 -38 45 -4 0 -15
-5 -24 -11z"/>
<path d="M4168 2629 c-10 -5 -18 -21 -18 -34 0 -13 8 -29 18 -35 16 -10 16
-10 0 -20 -10 -6 -18 -22 -18 -35 0 -13 8 -29 18 -35 16 -10 16 -10 0 -20 -10
-6 -18 -22 -18 -35 0 -13 8 -29 18 -35 16 -10 16 -10 0 -20 -24 -15 -23 -57 1
-70 11 -5 22 -10 25 -10 10 0 36 32 36 45 0 7 -7 21 -16 29 -14 15 -14 17 0
32 9 8 16 22 16 29 0 7 -7 21 -16 29 -14 15 -14 17 0 32 9 8 16 22 16 29 0 7
-7 21 -16 29 -14 15 -14 17 0 32 9 8 16 22 16 29 0 14 -27 45 -38 45 -4 0 -15
-5 -24 -11z"/>
<path d="M3908 2309 c-33 -19 -13 -79 26 -79 10 0 36 32 36 45 0 14 -27 45
-38 45 -4 0 -15 -5 -24 -11z"/>
<path d="M3998 2309 c-33 -19 -13 -79 26 -79 10 0 36 32 36 45 0 14 -27 45
-38 45 -4 0 -15 -5 -24 -11z"/>
<path d="M4088 2309 c-33 -19 -13 -79 26 -79 10 0 36 32 36 45 0 14 -27 45
-38 45 -4 0 -15 -5 -24 -11z"/>
</g>
</svg>
