<?xml version="1.0" standalone="no"?>
<!DOCTYPE svg PUBLIC "-//W3C//DTD SVG 20010904//EN"
 "http://www.w3.org/TR/2001/REC-SVG-20010904/DTD/svg10.dtd">
<svg version="1.0" xmlns="http://www.w3.org/2000/svg"
 width="891.000000pt" height="891.000000pt" viewBox="0 0 891.000000 891.000000"
 preserveAspectRatio="xMidYMid meet">
<metadata>
Created by potrace 1.13, written by Peter Selinger 2001-2015
</metadata>
<g transform="translate(0.000000,891.000000) scale(0.100000,-0.100000)"
fill="#000000" stroke="none">
<path d="M3877 8612 l-117 -288 0 -237 0 -237 -154 0 -153 0 -5 83 c-5 103
-25 143 -88 175 -45 22 -45 22 -480 20 l-435 -3 -3 -862 -2 -862 -828 -4
c-894 -4 -859 -2 -1012 -58 -294 -109 -517 -371 -581 -686 -19 -89 -19 -171
-17 -2485 l3 -2393 22 -77 c99 -346 353 -590 703 -674 71 -17 201 -18 2385
-22 1555 -2 2348 1 2427 8 136 12 250 44 356 101 273 146 463 424 488 714 3
39 6 909 7 1935 l2 1865 300 1 c288 2 608 10 745 19 36 3 232 12 435 21 204 9
482 21 619 27 l249 12 78 255 79 254 0 1552 0 1551 -61 194 c-34 107 -68 219
-77 249 -8 30 -16 56 -16 57 -1 1 -193 11 -786 38 -970 45 -975 45 -2490 45
l-1476 0 -117 -288z m3031 172 l22 -6 0 -2019 0 -2018 -32 -6 c-18 -3 -652 -4
-1408 -3 l-1375 3 -3 2015 c-1 1108 0 2021 3 2028 3 9 290 12 1387 12 761 0
1393 -3 1406 -6z m552 -14 c246 -9 517 -22 933 -44 187 -10 251 -16 261 -27 7
-8 35 -86 61 -174 26 -88 56 -184 66 -213 18 -51 19 -110 19 -1541 l0 -1489
-71 -233 c-39 -129 -72 -235 -72 -235 -6 -6 -1168 -62 -1434 -70 l-213 -7 0
2028 0 2028 108 -7 c59 -4 213 -11 342 -16z m-3451 -2012 c0 -2039 2 -1926
-40 -1823 -68 168 -93 227 -109 263 -20 42 -20 71 -20 1563 0 1303 2 1525 14
1552 13 29 29 67 121 290 15 37 30 67 32 67 1 0 3 -861 2 -1912z m-721 1252
c20 -13 41 -38 53 -65 19 -43 19 -72 17 -1189 -3 -1138 -3 -1145 -24 -1172
-11 -15 -33 -37 -48 -48 -26 -20 -42 -21 -364 -24 -185 -2 -347 0 -359 3 -13
3 -23 12 -23 20 0 12 52 15 346 17 329 3 346 4 360 22 18 25 18 37 0 62 -14
18 -31 19 -352 22 -251 2 -340 6 -346 15 -4 7 -8 31 -8 54 l0 42 346 3 c329 3
346 4 360 22 18 25 18 37 0 62 -14 18 -33 19 -358 24 l-343 5 -3 73 -3 72 339
0 c314 0 341 1 362 18 30 24 21 68 -16 82 -14 6 -167 10 -355 10 l-329 0 0
105 0 105 329 0 c188 0 341 4 355 10 37 14 46 58 16 82 -21 17 -48 18 -361 18
l-340 0 3 128 3 127 350 5 350 5 10 29 c8 24 6 31 -14 47 -22 18 -44 19 -362
19 l-340 0 3 128 3 127 348 5 c294 4 349 7 357 20 14 22 12 41 -7 62 -15 17
-40 18 -360 18 l-344 0 3 108 3 107 339 3 c299 2 342 4 358 19 22 20 23 41 1
65 -15 17 -40 18 -360 18 l-344 0 3 78 3 77 339 3 c299 2 342 4 358 19 22 20
23 41 1 65 -15 17 -40 18 -360 18 l-343 0 0 44 c0 82 -28 76 348 76 298 0 337
2 354 17 22 20 23 41 1 65 -15 17 -40 18 -360 18 l-343 0 0 25 0 25 358 0
c341 0 359 -1 390 -20z m462 -1240 l0 -980 -145 0 -145 0 0 175 0 174 93 3 92
3 0 50 0 50 -92 3 -93 3 0 519 0 519 93 3 92 3 0 45 0 45 -92 3 -93 3 0 179 0
180 145 0 145 0 0 -980z m-1308 -932 l3 -413 452 0 c440 0 452 1 480 21 46 33
73 98 73 176 l0 68 155 0 155 0 0 -245 0 -246 111 -272 c61 -150 114 -278 118
-285 5 -10 238 -13 1131 -15 l1125 -2 0 -1900 0 -1900 -23 -78 c-88 -306 -339
-535 -642 -587 -46 -8 -742 -10 -2425 -8 l-2360 3 -70 24 c-287 97 -477 293
-557 577 l-23 79 -3 2300 c-2 1568 0 2329 8 2392 34 300 220 551 492 665 135
57 125 56 995 57 l803 1 2 -412z"/>
<path d="M5978 7509 c-33 -19 -13 -79 26 -79 10 0 36 32 36 45 0 14 -27 45
-38 45 -4 0 -15 -5 -24 -11z"/>
<path d="M6068 7509 c-33 -19 -13 -79 26 -79 10 0 36 32 36 45 0 14 -27 45
-38 45 -4 0 -15 -5 -24 -11z"/>
<path d="M6158 7509 c-33 -19 -13 -79 26 -79 10 0 36 32 36 45 0 14 -27 45
-38 45 -4 0 -15 -5 -24 -11z"/>
<path d="M5898 7459 c-10 -5 -18 -21 -18 -34 0 -13 8 -29 18 -35 16 -10 16
-10 0 -20 -10 -6 -18 -22 -18 -35 0 -13 8 -29 18 -35 16 -10 16 -10 0 -20 -10
-6 -18 -22 -18 -35 0 -13 8 -29 18 -35 16 -10 16 -10 0 -20 -24 -15 -23 -57 1
-70 25 -13 27 -13 45 6 20 20 20 38 0 58 -14 15 -14 17 0 32 20 20 20 38 0 58
-14 15 -14 17 0 32 9 8 16 22 16 29 0 7 -7 21 -16 29 -14 15 -14 17 0 32 9 8
16 22 16 29 0 14 -27 45 -38 45 -4 0 -15 -5 -24 -11z"/>
<path d="M6238 7459 c-10 -5 -18 -21 -18 -34 0 -13 8 -29 18 -35 16 -10 16
-10 0 -20 -10 -6 -18 -22 -18 -35 0 -13 8 -29 18 -35 16 -10 16 -10 0 -20 -10
-6 -18 -22 -18 -35 0 -13 8 -29 18 -35 16 -10 16 -10 0 -20 -24 -15 -23 -57 1
-70 25 -13 27 -13 45 6 20 20 20 38 0 58 -14 15 -14 17 0 32 20 20 20 38 0 58
-14 15 -14 17 0 32 9 8 16 22 16 29 0 7 -7 21 -16 29 -14 15 -14 17 0 32 9 8
16 22 16 29 0 14 -27 45 -38 45 -4 0 -15 -5 -24 -11z"/>
<path d="M5978 7139 c-33 -19 -13 -79 26 -79 10 0 36 32 36 45 0 14 -27 45
-38 45 -4 0 -15 -5 -24 -11z"/>
<path d="M6068 7139 c-33 -19 -13 -79 26 -79 10 0 36 32 36 45 0 14 -27 45
-38 45 -4 0 -15 -5 -24 -11z"/>
<path d="M6158 7139 c-33 -19 -13 -79 26 -79 10 0 36 32 36 45 0 14 -27 45
-38 45 -4 0 -15 -5 -24 -11z"/>
<path d="M4625 7038 l-50 -61 -80 -1 -80 -1 -3 -62 -3 -63 31 0 31 0 -51 -62
c-27 -35 -50 -65 -50 -68 1 -3 22 -31 48 -63 26 -32 94 -116 152 -187 58 -71
109 -129 113 -129 4 -1 20 10 34 24 25 22 26 26 11 42 -8 10 -70 84 -137 166
l-122 147 122 148 c67 81 129 155 137 165 14 16 13 20 -8 42 -13 14 -28 25
-34 24 -6 0 -33 -28 -61 -61z"/>
<path d="M5978 6999 c-33 -19 -13 -79 26 -79 10 0 36 32 36 45 0 14 -27 45
-38 45 -4 0 -15 -5 -24 -11z"/>
<path d="M6068 6999 c-33 -19 -13 -79 26 -79 10 0 36 32 36 45 0 14 -27 45
-38 45 -4 0 -15 -5 -24 -11z"/>
<path d="M6158 6999 c-33 -19 -13 -79 26 -79 10 0 36 32 36 45 0 14 -27 45
-38 45 -4 0 -15 -5 -24 -11z"/>
<path d="M4616 6860 l-116 -140 116 -140 116 -140 139 0 139 0 0 110 0 110
-100 0 -101 0 3 63 3 62 95 1 95 2 3 106 3 106 -140 0 -139 0 -116 -140z"/>
<path d="M5898 6949 c-10 -5 -18 -21 -18 -34 0 -13 8 -29 18 -35 16 -10 16
-10 0 -20 -10 -6 -18 -22 -18 -35 0 -13 8 -29 18 -35 16 -10 16 -10 0 -20 -10
-6 -18 -22 -18 -35 0 -13 8 -29 18 -35 16 -10 16 -10 0 -20 -24 -15 -23 -57 1
-70 25 -13 27 -13 45 6 20 20 20 38 0 58 -14 15 -14 17 0 32 20 20 20 38 0 58
-14 15 -14 17 0 32 9 8 16 22 16 29 0 7 -7 21 -16 29 -14 15 -14 17 0 32 9 8
16 22 16 29 0 14 -27 45 -38 45 -4 0 -15 -5 -24 -11z"/>
<path d="M6238 6949 c-10 -5 -18 -21 -18 -34 0 -13 8 -29 18 -35 16 -10 16
-10 0 -20 -10 -6 -18 -22 -18 -35 0 -13 8 -29 18 -35 16 -10 16 -10 0 -20 -10
-6 -18 -22 -18 -35 0 -13 8 -29 18 -35 16 -10 16 -10 0 -20 -24 -15 -23 -57 1
-70 25 -13 27 -13 45 6 20 20 20 38 0 58 -14 15 -14 17 0 32 20 20 20 38 0 58
-14 15 -14 17 0 32 9 8 16 22 16 29 0 7 -7 21 -16 29 -14 15 -14 17 0 32 9 8
16 22 16 29 0 14 -27 45 -38 45 -4 0 -15 -5 -24 -11z"/>
<path d="M6578 6949 c-10 -5 -18 -21 -18 -34 0 -13 8 -29 18 -35 16 -10 16
-10 0 -20 -10 -6 -18 -22 -18 -35 0 -13 8 -29 18 -35 16 -10 16 -10 0 -20 -10
-6 -18 -22 -18 -35 0 -13 8 -29 18 -35 16 -10 16 -10 0 -20 -24 -15 -23 -57 1
-70 25 -13 27 -13 45 6 20 20 20 38 0 58 -14 15 -14 17 0 32 20 20 20 38 0 58
-14 15 -14 17 0 32 9 8 16 22 16 29 0 7 -7 21 -16 29 -14 15 -14 17 0 32 9 8
16 22 16 29 0 14 -27 45 -38 45 -4 0 -15 -5 -24 -11z"/>
<path d="M6318 6629 c-33 -19 -13 -79 26 -79 10 0 36 32 36 45 0 14 -27 45
-38 45 -4 0 -15 -5 -24 -11z"/>
<path d="M6408 6629 c-33 -19 -13 -79 26 -79 10 0 36 32 36 45 0 14 -27 45
-38 45 -4 0 -15 -5 -24 -11z"/>
<path d="M6498 6629 c-33 -19 -13 -79 26 -79 10 0 36 32 36 45 0 14 -27 45
-38 45 -4 0 -15 -5 -24 -11z"/>
<path d="M5978 6479 c-33 -19 -13 -79 26 -79 10 0 36 32 36 45 0 14 -27 45
-38 45 -4 0 -15 -5 -24 -11z"/>
<path d="M6068 6479 c-33 -19 -13 -79 26 -79 10 0 36 32 36 45 0 14 -27 45
-38 45 -4 0 -15 -5 -24 -11z"/>
<path d="M6158 6479 c-33 -19 -13 -79 26 -79 10 0 36 32 36 45 0 14 -27 45
-38 45 -4 0 -15 -5 -24 -11z"/>
<path d="M5898 6429 c-10 -5 -18 -21 -18 -34 0 -13 8 -29 18 -35 16 -10 16
-10 0 -20 -10 -6 -18 -22 -18 -35 0 -13 8 -29 18 -35 16 -10 16 -10 0 -20 -10
-6 -18 -22 -18 -35 0 -13 8 -29 18 -35 16 -10 16 -10 0 -20 -24 -15 -23 -57 1
-70 25 -13 27 -13 45 6 20 20 20 38 0 58 -14 15 -14 17 0 32 20 20 20 38 0 58
-14 15 -14 17 0 32 9 8 16 22 16 29 0 7 -7 21 -16 29 -14 15 -14 17 0 32 9 8
16 22 16 29 0 14 -27 45 -38 45 -4 0 -15 -5 -24 -11z"/>
<path d="M6238 6429 c-10 -5 -18 -21 -18 -34 0 -13 8 -29 18 -35 16 -10 16
-10 0 -20 -10 -6 -18 -22 -18 -35 0 -13 8 -29 18 -35 16 -10 16 -10 0 -20 -10
-6 -18 -22 -18 -35 0 -13 8 -29 18 -35 16 -10 16 -10 0 -20 -24 -15 -23 -57 1
-70 25 -13 27 -13 45 6 20 20 20 38 0 58 -14 15 -14 17 0 32 20 20 20 38 0 58
-14 15 -14 17 0 32 9 8 16 22 16 29 0 7 -7 21 -16 29 -14 15 -14 17 0 32 9 8
16 22 16 29 0 14 -27 45 -38 45 -4 0 -15 -5 -24 -11z"/>
<path d="M6578 6429 c-10 -5 -18 -21 -18 -34 0 -13 8 -29 18 -35 16 -10 16
-10 0 -20 -10 -6 -18 -22 -18 -35 0 -13 8 -29 18 -35 16 -10 16 -10 0 -20 -10
-6 -18 -22 -18 -35 0 -13 8 -29 18 -35 16 -10 16 -10 0 -20 -24 -15 -23 -57 1
-70 25 -13 27 -13 45 6 20 20 20 38 0 58 -14 15 -14 17 0 32 20 20 20 38 0 58
-14 15 -14 17 0 32 9 8 16 22 16 29 0 7 -7 21 -16 29 -14 15 -14 17 0 32 9 8
16 22 16 29 0 14 -27 45 -38 45 -4 0 -15 -5 -24 -11z"/>
<path d="M6318 6109 c-33 -19 -13 -79 26 -79 10 0 36 32 36 45 0 14 -27 45
-38 45 -4 0 -15 -5 -24 -11z"/>
<path d="M6408 6109 c-33 -19 -13 -79 26 -79 10 0 36 32 36 45 0 14 -27 45
-38 45 -4 0 -15 -5 -24 -11z"/>
<path d="M6498 6109 c-33 -19 -13 -79 26 -79 10 0 36 32 36 45 0 14 -27 45
-38 45 -4 0 -15 -5 -24 -11z"/>
<path d="M1359 4175 c-14 -8 -32 -28 -39 -45 -26 -62 33 -130 101 -115 76 17
89 124 18 160 -34 18 -47 18 -80 0z"/>
<path d="M1559 4175 c-14 -8 -32 -28 -39 -45 -26 -62 33 -130 101 -115 76 17
89 124 18 160 -34 18 -47 18 -80 0z"/>
<path d="M1759 4175 c-90 -49 -35 -180 67 -160 81 15 96 123 23 160 -35 18
-56 18 -90 0z"/>
<path d="M1959 4175 c-14 -8 -32 -28 -39 -45 -26 -62 33 -130 101 -115 76 17
89 124 18 160 -34 18 -47 18 -80 0z"/>
<path d="M2159 4175 c-14 -8 -32 -28 -39 -45 -26 -62 33 -130 101 -115 76 17
89 124 18 160 -34 18 -47 18 -80 0z"/>
<path d="M2759 4175 c-14 -8 -32 -28 -39 -45 -26 -62 33 -130 101 -115 76 17
89 124 18 160 -34 18 -47 18 -80 0z"/>
<path d="M2959 4175 c-14 -8 -32 -28 -39 -45 -26 -62 33 -130 101 -115 76 17
89 124 18 160 -34 18 -47 18 -80 0z"/>
<path d="M3159 4175 c-14 -8 -32 -28 -39 -45 -26 -62 33 -130 101 -115 76 17
89 124 18 160 -34 18 -47 18 -80 0z"/>
<path d="M3359 4175 c-14 -8 -32 -28 -39 -45 -26 -62 33 -130 101 -115 76 17
89 124 18 160 -34 18 -47 18 -80 0z"/>
<path d="M3559 4175 c-14 -8 -32 -28 -39 -45 -26 -62 33 -130 101 -115 76 17
89 124 18 160 -34 18 -47 18 -80 0z"/>
<path d="M4759 4175 c-14 -8 -32 -28 -39 -45 -26 -62 33 -130 101 -115 76 17
89 124 18 160 -34 18 -47 18 -80 0z"/>
<path d="M4959 4175 c-14 -8 -32 -28 -39 -45 -26 -62 33 -130 101 -115 76 17
89 124 18 160 -34 18 -47 18 -80 0z"/>
<path d="M1359 3975 c-14 -8 -32 -28 -39 -45 -26 -62 33 -130 101 -115 76 17
89 124 18 160 -34 18 -47 18 -80 0z"/>
<path d="M1559 3975 c-14 -8 -32 -28 -39 -45 -26 -62 33 -130 101 -115 76 17
89 124 18 160 -34 18 -47 18 -80 0z"/>
<path d="M1759 3975 c-90 -49 -35 -180 67 -160 81 15 96 123 23 160 -35 18
-56 18 -90 0z"/>
<path d="M1959 3975 c-14 -8 -32 -28 -39 -45 -26 -62 33 -130 101 -115 76 17
89 124 18 160 -34 18 -47 18 -80 0z"/>
<path d="M2159 3975 c-14 -8 -32 -28 -39 -45 -26 -62 33 -130 101 -115 76 17
89 124 18 160 -34 18 -47 18 -80 0z"/>
<path d="M2359 3975 c-14 -8 -32 -28 -39 -45 -26 -62 33 -130 101 -115 76 17
89 124 18 160 -34 18 -47 18 -80 0z"/>
<path d="M2759 3975 c-14 -8 -32 -28 -39 -45 -26 -62 33 -130 101 -115 76 17
89 124 18 160 -34 18 -47 18 -80 0z"/>
<path d="M2959 3975 c-14 -8 -32 -28 -39 -45 -26 -62 33 -130 101 -115 76 17
89 124 18 160 -34 18 -47 18 -80 0z"/>
<path d="M3159 3975 c-14 -8 -32 -28 -39 -45 -26 -62 33 -130 101 -115 76 17
89 124 18 160 -34 18 -47 18 -80 0z"/>
<path d="M3359 3975 c-14 -8 -32 -28 -39 -45 -26 -62 33 -130 101 -115 76 17
89 124 18 160 -34 18 -47 18 -80 0z"/>
<path d="M3559 3975 c-14 -8 -32 -28 -39 -45 -26 -62 33 -130 101 -115 76 17
89 124 18 160 -34 18 -47 18 -80 0z"/>
<path d="M3759 3975 c-14 -8 -32 -28 -39 -45 -26 -62 33 -130 101 -115 76 17
89 124 18 160 -34 18 -47 18 -80 0z"/>
<path d="M4759 3975 c-14 -8 -32 -28 -39 -45 -26 -62 33 -130 101 -115 76 17
89 124 18 160 -34 18 -47 18 -80 0z"/>
<path d="M4959 3975 c-14 -8 -32 -28 -39 -45 -26 -62 33 -130 101 -115 76 17
89 124 18 160 -34 18 -47 18 -80 0z"/>
<path d="M2159 3775 c-14 -8 -32 -28 -39 -45 -26 -62 33 -130 101 -115 76 17
89 124 18 160 -34 18 -47 18 -80 0z"/>
<path d="M2359 3775 c-14 -8 -32 -28 -39 -45 -26 -62 33 -130 101 -115 76 17
89 124 18 160 -34 18 -47 18 -80 0z"/>
<path d="M3559 3775 c-14 -8 -32 -28 -39 -45 -26 -62 33 -130 101 -115 76 17
89 124 18 160 -34 18 -47 18 -80 0z"/>
<path d="M3759 3775 c-14 -8 -32 -28 -39 -45 -26 -62 33 -130 101 -115 76 17
89 124 18 160 -34 18 -47 18 -80 0z"/>
<path d="M2159 3575 c-14 -8 -32 -28 -39 -45 -26 -62 33 -130 101 -115 76 17
89 124 18 160 -34 18 -47 18 -80 0z"/>
<path d="M2359 3575 c-14 -8 -32 -28 -39 -45 -26 -62 33 -130 101 -115 76 17
89 124 18 160 -34 18 -47 18 -80 0z"/>
<path d="M3559 3575 c-14 -8 -32 -28 -39 -45 -26 -62 33 -130 101 -115 76 17
89 124 18 160 -34 18 -47 18 -80 0z"/>
<path d="M3759 3575 c-14 -8 -32 -28 -39 -45 -26 -62 33 -130 101 -115 76 17
89 124 18 160 -34 18 -47 18 -80 0z"/>
<path d="M1559 3375 c-14 -8 -32 -28 -39 -45 -26 -62 33 -130 101 -115 76 17
89 124 18 160 -34 18 -47 18 -80 0z"/>
<path d="M1759 3375 c-90 -49 -35 -180 67 -160 81 15 96 123 23 160 -35 18
-56 18 -90 0z"/>
<path d="M1959 3375 c-14 -8 -32 -28 -39 -45 -26 -62 33 -130 101 -115 76 17
89 124 18 160 -34 18 -47 18 -80 0z"/>
<path d="M2159 3375 c-14 -8 -32 -28 -39 -45 -26 -62 33 -130 101 -115 76 17
89 124 18 160 -34 18 -47 18 -80 0z"/>
<path d="M2359 3375 c-14 -8 -32 -28 -39 -45 -26 -62 33 -130 101 -115 76 17
89 124 18 160 -34 18 -47 18 -80 0z"/>
<path d="M2959 3375 c-14 -8 -32 -28 -39 -45 -26 -62 33 -130 101 -115 76 17
89 124 18 160 -34 18 -47 18 -80 0z"/>
<path d="M3159 3375 c-14 -8 -32 -28 -39 -45 -26 -62 33 -130 101 -115 76 17
89 124 18 160 -34 18 -47 18 -80 0z"/>
<path d="M3359 3375 c-14 -8 -32 -28 -39 -45 -26 -62 33 -130 101 -115 76 17
89 124 18 160 -34 18 -47 18 -80 0z"/>
<path d="M3559 3375 c-14 -8 -32 -28 -39 -45 -26 -62 33 -130 101 -115 76 17
89 124 18 160 -34 18 -47 18 -80 0z"/>
<path d="M3759 3375 c-14 -8 -32 -28 -39 -45 -26 -62 33 -130 101 -115 76 17
89 124 18 160 -34 18 -47 18 -80 0z"/>
<path d="M1359 3175 c-14 -8 -32 -28 -39 -45 -26 -62 33 -130 101 -115 76 17
89 124 18 160 -34 18 -47 18 -80 0z"/>
<path d="M1559 3175 c-14 -8 -32 -28 -39 -45 -26 -62 33 -130 101 -115 76 17
89 124 18 160 -34 18 -47 18 -80 0z"/>
<path d="M1759 3175 c-90 -49 -35 -180 67 -160 81 15 96 123 23 160 -35 18
-56 18 -90 0z"/>
<path d="M1959 3175 c-14 -8 -32 -28 -39 -45 -26 -62 33 -130 101 -115 76 17
89 124 18 160 -34 18 -47 18 -80 0z"/>
<path d="M2159 3175 c-14 -8 -32 -28 -39 -45 -26 -62 33 -130 101 -115 76 17
89 124 18 160 -34 18 -47 18 -80 0z"/>
<path d="M2759 3175 c-14 -8 -32 -28 -39 -45 -26 -62 33 -130 101 -115 76 17
89 124 18 160 -34 18 -47 18 -80 0z"/>
<path d="M2959 3175 c-14 -8 -32 -28 -39 -45 -26 -62 33 -130 101 -115 76 17
89 124 18 160 -34 18 -47 18 -80 0z"/>
<path d="M3159 3175 c-14 -8 -32 -28 -39 -45 -26 -62 33 -130 101 -115 76 17
89 124 18 160 -34 18 -47 18 -80 0z"/>
<path d="M3359 3175 c-14 -8 -32 -28 -39 -45 -26 -62 33 -130 101 -115 76 17
89 124 18 160 -34 18 -47 18 -80 0z"/>
<path d="M3559 3175 c-14 -8 -32 -28 -39 -45 -26 -62 33 -130 101 -115 76 17
89 124 18 160 -34 18 -47 18 -80 0z"/>
<path d="M4559 3175 c-14 -8 -32 -28 -39 -45 -26 -62 33 -130 101 -115 76 17
89 124 18 160 -34 18 -47 18 -80 0z"/>
<path d="M4759 3175 c-14 -8 -32 -28 -39 -45 -26 -62 33 -130 101 -115 76 17
89 124 18 160 -34 18 -47 18 -80 0z"/>
<path d="M4959 3175 c-14 -8 -32 -28 -39 -45 -26 -62 33 -130 101 -115 76 17
89 124 18 160 -34 18 -47 18 -80 0z"/>
<path d="M1359 2975 c-14 -8 -32 -28 -39 -45 -26 -62 33 -130 101 -115 76 17
89 124 18 160 -34 18 -47 18 -80 0z"/>
<path d="M1559 2975 c-14 -8 -32 -28 -39 -45 -26 -62 33 -130 101 -115 76 17
89 124 18 160 -34 18 -47 18 -80 0z"/>
<path d="M2759 2975 c-14 -8 -32 -28 -39 -45 -26 -62 33 -130 101 -115 76 17
89 124 18 160 -34 18 -47 18 -80 0z"/>
<path d="M2959 2975 c-14 -8 -32 -28 -39 -45 -26 -62 33 -130 101 -115 76 17
89 124 18 160 -34 18 -47 18 -80 0z"/>
<path d="M4559 2975 c-14 -8 -32 -28 -39 -45 -26 -62 33 -130 101 -115 76 17
89 124 18 160 -34 18 -47 18 -80 0z"/>
<path d="M4959 2975 c-14 -8 -32 -28 -39 -45 -26 -62 33 -130 101 -115 76 17
89 124 18 160 -34 18 -47 18 -80 0z"/>
<path d="M1359 2775 c-14 -8 -32 -28 -39 -45 -26 -62 33 -130 101 -115 76 17
89 124 18 160 -34 18 -47 18 -80 0z"/>
<path d="M1559 2775 c-14 -8 -32 -28 -39 -45 -26 -62 33 -130 101 -115 76 17
89 124 18 160 -34 18 -47 18 -80 0z"/>
<path d="M2759 2775 c-14 -8 -32 -28 -39 -45 -26 -62 33 -130 101 -115 76 17
89 124 18 160 -34 18 -47 18 -80 0z"/>
<path d="M2959 2775 c-14 -8 -32 -28 -39 -45 -26 -62 33 -130 101 -115 76 17
89 124 18 160 -34 18 -47 18 -80 0z"/>
<path d="M4559 2775 c-14 -8 -32 -28 -39 -45 -26 -62 33 -130 101 -115 76 17
89 124 18 160 -34 18 -47 18 -80 0z"/>
<path d="M4959 2775 c-14 -8 -32 -28 -39 -45 -26 -62 33 -130 101 -115 76 17
89 124 18 160 -34 18 -47 18 -80 0z"/>
<path d="M1359 2575 c-14 -8 -32 -28 -39 -45 -26 -62 33 -130 101 -115 76 17
89 124 18 160 -34 18 -47 18 -80 0z"/>
<path d="M1559 2575 c-14 -8 -32 -28 -39 -45 -26 -62 33 -130 101 -115 76 17
89 124 18 160 -34 18 -47 18 -80 0z"/>
<path d="M1759 2575 c-90 -49 -35 -180 67 -160 81 15 96 123 23 160 -35 18
-56 18 -90 0z"/>
<path d="M1959 2575 c-14 -8 -32 -28 -39 -45 -26 -62 33 -130 101 -115 76 17
89 124 18 160 -34 18 -47 18 -80 0z"/>
<path d="M2159 2575 c-14 -8 -32 -28 -39 -45 -26 -62 33 -130 101 -115 76 17
89 124 18 160 -34 18 -47 18 -80 0z"/>
<path d="M2359 2575 c-14 -8 -32 -28 -39 -45 -26 -62 33 -130 101 -115 76 17
89 124 18 160 -34 18 -47 18 -80 0z"/>
<path d="M2759 2575 c-14 -8 -32 -28 -39 -45 -26 -62 33 -130 101 -115 76 17
89 124 18 160 -34 18 -47 18 -80 0z"/>
<path d="M2959 2575 c-14 -8 -32 -28 -39 -45 -26 -62 33 -130 101 -115 76 17
89 124 18 160 -34 18 -47 18 -80 0z"/>
<path d="M3159 2575 c-14 -8 -32 -28 -39 -45 -26 -62 33 -130 101 -115 76 17
89 124 18 160 -34 18 -47 18 -80 0z"/>
<path d="M3359 2575 c-14 -8 -32 -28 -39 -45 -26 -62 33 -130 101 -115 76 17
89 124 18 160 -34 18 -47 18 -80 0z"/>
<path d="M3559 2575 c-14 -8 -32 -28 -39 -45 -26 -62 33 -130 101 -115 76 17
89 124 18 160 -34 18 -47 18 -80 0z"/>
<path d="M3759 2575 c-14 -8 -32 -28 -39 -45 -26 -62 33 -130 101 -115 76 17
89 124 18 160 -34 18 -47 18 -80 0z"/>
<path d="M4559 2575 c-14 -8 -32 -28 -39 -45 -26 -62 33 -130 101 -115 76 17
89 124 18 160 -34 18 -47 18 -80 0z"/>
<path d="M4959 2575 c-14 -8 -32 -28 -39 -45 -26 -62 33 -130 101 -115 76 17
89 124 18 160 -34 18 -47 18 -80 0z"/>
<path d="M1359 2375 c-14 -8 -32 -28 -39 -45 -26 -62 33 -130 101 -115 76 17
89 124 18 160 -34 18 -47 18 -80 0z"/>
<path d="M1559 2375 c-14 -8 -32 -28 -39 -45 -26 -62 33 -130 101 -115 76 17
89 124 18 160 -34 18 -47 18 -80 0z"/>
<path d="M1759 2375 c-90 -49 -35 -180 67 -160 81 15 96 123 23 160 -35 18
-56 18 -90 0z"/>
<path d="M1959 2375 c-14 -8 -32 -28 -39 -45 -26 -62 33 -130 101 -115 76 17
89 124 18 160 -34 18 -47 18 -80 0z"/>
<path d="M2159 2375 c-14 -8 -32 -28 -39 -45 -26 -62 33 -130 101 -115 76 17
89 124 18 160 -34 18 -47 18 -80 0z"/>
<path d="M2359 2375 c-14 -8 -32 -28 -39 -45 -26 -62 33 -130 101 -115 76 17
89 124 18 160 -34 18 -47 18 -80 0z"/>
<path d="M2759 2375 c-14 -8 -32 -28 -39 -45 -26 -62 33 -130 101 -115 76 17
89 124 18 160 -34 18 -47 18 -80 0z"/>
<path d="M2959 2375 c-14 -8 -32 -28 -39 -45 -26 -62 33 -130 101 -115 76 17
89 124 18 160 -34 18 -47 18 -80 0z"/>
<path d="M3159 2375 c-14 -8 -32 -28 -39 -45 -26 -62 33 -130 101 -115 76 17
89 124 18 160 -34 18 -47 18 -80 0z"/>
<path d="M3359 2375 c-14 -8 -32 -28 -39 -45 -26 -62 33 -130 101 -115 76 17
89 124 18 160 -34 18 -47 18 -80 0z"/>
<path d="M3559 2375 c-14 -8 -32 -28 -39 -45 -26 -62 33 -130 101 -115 76 17
89 124 18 160 -34 18 -47 18 -80 0z"/>
<path d="M3759 2375 c-14 -8 -32 -28 -39 -45 -26 -62 33 -130 101 -115 76 17
89 124 18 160 -34 18 -47 18 -80 0z"/>
<path d="M4159 2375 c-14 -8 -32 -28 -39 -45 -26 -62 33 -130 101 -115 76 17
89 124 18 160 -34 18 -47 18 -80 0z"/>
<path d="M4559 2375 c-14 -8 -32 -28 -39 -45 -26 -62 33 -130 101 -115 76 17
89 124 18 160 -34 18 -47 18 -80 0z"/>
<path d="M4759 2375 c-14 -8 -32 -28 -39 -45 -26 -62 33 -130 101 -115 76 17
89 124 18 160 -34 18 -47 18 -80 0z"/>
<path d="M4959 2375 c-14 -8 -32 -28 -39 -45 -26 -62 33 -130 101 -115 76 17
89 124 18 160 -34 18 -47 18 -80 0z"/>
<path d="M5153 1615 c-86 -24 -154 -64 -224 -134 -105 -105 -149 -210 -149
-357 0 -143 46 -253 150 -355 160 -158 375 -193 577 -94 194 95 308 315 274
526 -31 196 -181 364 -372 414 -68 18 -188 18 -256 0z m218 -40 c107 -13 247
-114 312 -225 62 -106 73 -274 27 -390 -49 -125 -166 -233 -292 -271 -55 -17
-88 -21 -161 -17 -81 3 -102 8 -167 39 -318 152 -360 571 -78 784 78 59 207
98 288 89 14 -2 46 -6 71 -9z"/>
<path d="M1450 1229 c0 -55 -2 -60 -17 -53 -10 4 -41 9 -69 12 -46 3 -55 1
-88 -28 -42 -37 -61 -94 -52 -155 17 -112 122 -169 207 -112 60 40 69 72 69
245 l0 152 -25 0 c-24 0 -25 -3 -25 -61z m-47 -99 c51 -40 59 -129 16 -184
-16 -20 -29 -26 -59 -26 -55 0 -80 34 -80 109 0 61 17 96 54 111 32 13 41 12
69 -10z"/>
<path d="M1826 1269 c-52 -41 -23 -129 42 -129 36 0 72 37 72 74 0 31 -40 76
-68 76 -11 0 -31 -9 -46 -21z m70 -7 c6 -4 16 -17 23 -30 27 -52 -51 -99 -93
-56 -43 43 19 120 70 86z"/>
<path d="M803 1273 c-8 -2 -13 -22 -13 -44 0 -32 -3 -39 -20 -39 -13 0 -20 -7
-20 -20 0 -13 7 -20 20 -20 19 0 20 -7 20 -110 0 -104 1 -112 25 -135 32 -33
105 -36 105 -5 0 14 -7 20 -21 20 -11 0 -29 5 -40 10 -17 10 -19 22 -19 115
l0 105 80 0 c73 0 80 2 80 20 0 18 -7 20 -80 20 l-80 0 0 45 c0 44 -6 51 -37
38z"/>
<path d="M1025 1180 c-12 -19 7 -30 54 -30 52 0 71 -12 71 -47 0 -21 -5 -23
-46 -23 -25 0 -61 -7 -79 -15 -94 -45 -60 -185 45 -185 23 0 50 5 61 10 13 7
19 7 19 0 0 -5 11 -10 25 -10 l25 0 0 129 c0 115 -2 131 -21 155 -18 23 -27
26 -84 26 -35 0 -67 -4 -70 -10z m123 -182 c6 -70 -77 -109 -114 -53 -33 50 5
96 76 92 33 -2 35 -4 38 -39z"/>
<path d="M1574 1157 c-79 -72 -61 -234 31 -273 49 -20 87 -17 126 9 67 45 89
148 49 227 -24 48 -64 70 -125 70 -37 0 -52 -6 -81 -33z m136 -36 c34 -33 45
-68 36 -115 -13 -69 -63 -102 -121 -80 -42 16 -61 136 -29 182 16 23 46 40 72
41 8 1 26 -12 42 -28z"/>
</g>
</svg>
