<?xml version="1.0" standalone="no"?>
<!DOCTYPE svg PUBLIC "-//W3C//DTD SVG 20010904//EN"
 "http://www.w3.org/TR/2001/REC-SVG-20010904/DTD/svg10.dtd">
<svg version="1.0" xmlns="http://www.w3.org/2000/svg"
 width="612.000000pt" height="612.000000pt" viewBox="0 0 612.000000 612.000000"
 preserveAspectRatio="xMidYMid meet">
<metadata>
Created by potrace 1.13, written by Peter Selinger 2001-2015
</metadata>
<g transform="translate(0.000000,612.000000) scale(0.100000,-0.100000)"
fill="#000000" stroke="none">
<path d="M4455 6106 c-219 -50 -393 -211 -467 -431 l-23 -70 -3 -1638 -2
-1638 -84 -82 c-204 -201 -340 -463 -382 -739 -19 -125 -14 -354 11 -468 177
-810 1045 -1259 1803 -932 542 234 864 809 777 1387 -45 298 -166 537 -381
749 l-83 82 -4 1635 c-3 1539 -4 1638 -21 1694 -61 203 -217 367 -411 432 -79
27 -85 27 -375 30 -220 2 -310 -1 -355 -11z m660 -267 c74 -28 132 -73 177
-139 72 -106 68 10 68 -1823 0 -1399 2 -1652 14 -1675 8 -15 37 -44 64 -65
108 -82 225 -224 289 -352 237 -471 89 -1052 -341 -1339 -196 -131 -374 -186
-598 -186 -499 0 -928 350 -1030 840 -26 126 -21 356 10 471 58 210 130 327
307 503 l140 139 5 1686 5 1686 27 57 c46 98 137 178 238 209 14 4 147 8 297
8 253 1 276 -1 328 -20z"/>
<path d="M4614 5366 c-34 -34 -34 -35 -34 -122 0 -155 33 -179 240 -172 166 5
190 27 190 172 0 81 -22 130 -66 146 -14 6 -86 10 -161 10 l-135 0 -34 -34z"/>
<path d="M4634 4699 c-39 -19 -54 -61 -54 -149 0 -90 15 -130 57 -149 14 -6
84 -11 163 -11 l140 0 32 29 33 29 0 102 0 102 -33 29 -32 29 -143 -1 c-78 0
-151 -5 -163 -10z"/>
<path d="M4652 4019 c-53 -16 -72 -58 -72 -162 0 -88 0 -89 34 -123 l34 -34
135 0 c75 0 147 4 161 10 44 16 66 65 66 146 0 148 -23 168 -200 171 -69 1
-140 -2 -158 -8z"/>
<path d="M4633 3320 c-45 -27 -53 -48 -53 -140 0 -146 30 -170 215 -170 183 0
215 25 215 170 0 137 -31 160 -217 160 -109 0 -133 -3 -160 -20z"/>
<path d="M4520 2351 l0 -289 -42 -17 c-73 -28 -180 -101 -246 -165 -167 -162
-252 -379 -239 -610 7 -126 25 -197 78 -307 191 -398 674 -564 1071 -368 169
84 310 232 381 401 48 112 61 180 60 314 0 153 -21 239 -90 373 -38 75 -64
109 -143 188 -80 80 -110 103 -192 145 l-98 49 0 288 0 287 -270 0 -270 0 0
-289z m70 -636 c36 -19 50 -43 50 -89 0 -28 -10 -46 -45 -86 -79 -89 -98 -141
-96 -273 1 -85 0 -90 -28 -118 -57 -57 -142 -27 -161 56 -32 137 15 311 119
441 38 48 88 83 119 84 7 0 26 -7 42 -15z"/>
<path d="M367 3882 l-367 -367 0 -430 0 -430 370 370 370 370 810 -810 810
-810 0 -735 c0 -559 -3 -739 -12 -748 -17 -17 -639 -17 -656 0 -9 9 -12 165
-12 640 l0 628 -300 0 -300 0 0 -628 c0 -475 -3 -631 -12 -640 -9 -9 -143 -12
-540 -12 l-528 0 0 -140 0 -140 1320 0 1320 0 0 723 c0 539 3 726 12 735 9 9
30 -6 88 -62 58 -55 90 -78 131 -92 107 -36 229 -15 307 51 45 39 122 183 122
229 0 15 -16 62 -36 104 -35 75 -52 93 -560 602 l-524 525 0 563 0 562 -300 0
-300 0 0 -262 0 -263 -418 418 c-229 229 -419 417 -422 417 -3 0 -170 -165
-373 -368z"/>
<path d="M440 2260 l0 -300 300 0 300 0 0 300 0 300 -300 0 -300 0 0 -300z"/>
</g>
</svg>
