<?xml version="1.0" standalone="no"?>
<!DOCTYPE svg PUBLIC "-//W3C//DTD SVG 20010904//EN"
 "http://www.w3.org/TR/2001/REC-SVG-20010904/DTD/svg10.dtd">
<svg version="1.0" xmlns="http://www.w3.org/2000/svg"
 width="700.000000pt" height="700.000000pt" viewBox="0 0 700.000000 700.000000"
 preserveAspectRatio="xMidYMid meet">
<metadata>
Created by potrace 1.13, written by Peter Selinger 2001-2015
</metadata>
<g transform="translate(0.000000,700.000000) scale(0.100000,-0.100000)"
fill="#000000" stroke="none">
<path d="M710 6994 c0 -3 73 -132 161 -285 127 -220 166 -280 185 -285 60 -15
119 47 94 98 -7 12 -71 125 -143 251 l-131 227 -83 0 c-46 0 -83 -3 -83 -6z"/>
<path d="M1740 6831 l0 -170 26 -20 c15 -12 37 -21 49 -21 12 0 34 9 49 21
l26 20 0 170 0 169 -75 0 -75 0 0 -169z"/>
<path d="M2611 6754 c-151 -262 -156 -277 -107 -309 38 -25 64 -26 90 -2 21
19 326 536 326 552 0 3 -38 5 -84 5 l-83 0 -142 -246z"/>
<path d="M5030 6810 c-253 -30 -480 -189 -588 -411 l-37 -76 -72 -11 c-39 -7
-95 -21 -123 -32 -184 -73 -320 -266 -320 -455 0 -56 -4 -66 -36 -108 -20 -26
-39 -47 -42 -47 -2 0 -45 14 -94 31 -284 97 -585 76 -845 -60 -42 -22 -78 -39
-79 -38 -1 1 -19 36 -39 77 -75 151 -183 282 -313 381 -418 317 -1021 265
-1384 -119 -296 -314 -367 -778 -178 -1167 162 -334 476 -551 845 -584 55 -5
103 -7 106 -5 3 2 13 -32 23 -76 49 -228 228 -408 451 -455 53 -11 147 -15
383 -15 171 0 312 -3 312 -7 0 -3 -32 -66 -70 -139 l-71 -134 46 -29 c62 -39
104 -56 115 -45 5 5 49 86 98 179 l88 170 397 3 c218 1 397 -1 397 -5 0 -3
-41 -84 -90 -180 l-90 -173 45 -29 c62 -39 104 -56 115 -45 5 5 58 104 119
219 l109 210 451 3 c442 2 451 2 451 -17 0 -11 -31 -238 -70 -504 -38 -266
-70 -502 -70 -523 0 -22 7 -50 16 -62 14 -20 24 -22 100 -22 l86 0 -6 -28
c-17 -81 -146 -980 -146 -1018 0 -81 32 -108 68 -56 10 15 130 331 267 702
202 547 249 685 250 726 0 64 -16 84 -66 84 -22 0 -39 3 -39 8 0 4 56 165 124
357 l124 350 100 3 c89 2 101 1 106 -15 9 -31 76 -315 76 -324 0 -5 -11 -9
-23 -9 -36 0 -57 -30 -57 -81 0 -29 46 -193 130 -464 159 -516 156 -507 183
-503 46 7 49 36 38 359 -6 164 -11 315 -11 334 l0 35 59 0 c114 0 116 16 51
398 -28 167 -48 307 -45 312 4 6 12 10 18 10 23 0 161 71 222 114 70 51 165
146 208 208 45 65 113 215 133 293 14 52 18 105 18 210 -1 123 -4 151 -28 230
-58 192 -187 373 -336 471 l-44 29 95 6 c64 4 109 12 141 27 70 31 141 102
174 175 25 54 29 74 29 157 0 123 -22 184 -92 260 -45 49 -100 84 -164 103
-11 4 -19 22 -24 54 -16 106 -78 231 -163 325 -55 61 -173 134 -266 164 -71
24 -98 27 -216 28 -78 0 -160 -5 -193 -13 l-58 -13 -70 71 c-174 177 -423 254
-709 221z m265 -165 c135 -36 270 -132 363 -257 l43 -58 58 0 c41 0 75 7 112
24 170 78 360 36 506 -111 80 -80 127 -176 146 -296 8 -48 17 -90 19 -92 3 -3
31 -12 63 -20 181 -47 250 -224 138 -354 -66 -78 -79 -81 -393 -81 l-275 0
-34 75 c-75 168 -230 361 -385 480 -150 115 -351 204 -551 247 -88 18 -382 16
-470 -4 -38 -9 -71 -15 -72 -14 -2 2 9 32 23 67 79 194 239 340 434 395 63 17
205 17 275 -1z m-865 -504 c-77 -29 -189 -83 -250 -122 l-35 -23 25 29 c78 90
187 143 295 144 38 0 37 -1 -35 -28z m-2452 -51 c200 -33 418 -168 544 -338
41 -56 112 -191 123 -235 6 -23 -1 -36 -53 -92 -77 -81 -132 -162 -183 -267
-45 -93 -64 -152 -88 -275 l-16 -84 -65 -22 c-94 -32 -156 -71 -231 -147 -68
-69 -132 -178 -145 -247 l-7 -36 -86 6 c-134 9 -225 33 -346 92 -177 88 -308
217 -394 390 -69 139 -85 214 -85 395 1 140 3 164 28 245 73 240 230 427 453
539 64 32 172 67 243 79 51 9 247 7 308 -3z m3027 -51 c126 -16 243 -51 360
-109 264 -130 451 -340 560 -628 15 -42 36 -79 49 -86 13 -9 65 -16 136 -19
131 -6 220 -29 315 -82 247 -138 390 -413 356 -685 -26 -205 -135 -384 -300
-494 -100 -67 -113 -68 -58 -6 56 64 130 207 154 300 26 99 24 273 -5 375 -86
298 -347 516 -649 542 l-73 6 -39 82 c-106 227 -288 415 -507 524 -167 83
-298 114 -489 115 -241 1 -438 -57 -629 -187 -71 -48 -201 -171 -252 -237
l-36 -48 -85 30 c-109 38 -174 48 -303 49 -222 0 -405 -64 -578 -205 -154
-124 -279 -331 -312 -516 -19 -107 -20 -110 -35 -110 -43 0 -148 -56 -207
-110 -79 -72 -114 -121 -143 -203 -59 -160 -32 -347 66 -469 37 -47 23 -48
-57 -8 -80 39 -150 110 -188 190 -29 61 -31 72 -31 175 0 102 2 115 31 175 62
131 175 211 330 235 51 8 82 35 88 77 2 18 9 69 15 114 27 216 135 408 316
561 80 67 128 96 228 138 230 95 487 84 727 -29 58 -27 99 -32 129 -17 10 6
42 45 71 87 67 97 195 227 279 284 226 153 504 221 766 189z m17 -325 c213
-44 431 -187 566 -369 48 -65 112 -186 132 -250 22 -71 43 -85 127 -85 161 0
307 -57 420 -164 305 -287 233 -795 -138 -974 -132 -64 -139 -63 -67 10 227
229 249 563 55 824 -101 136 -304 243 -465 244 -30 0 -34 5 -57 57 -90 202
-291 399 -494 482 -132 55 -192 66 -366 65 -144 0 -169 -3 -248 -27 -189 -58
-366 -177 -473 -317 -27 -35 -43 -48 -54 -44 -118 50 -155 57 -300 58 -160 1
-232 -14 -354 -76 -213 -107 -377 -331 -410 -561 -5 -32 -13 -50 -24 -54 -176
-58 -285 -180 -314 -350 -20 -117 10 -225 89 -329 l36 -47 -49 7 c-190 27
-319 215 -284 415 15 84 51 151 113 206 45 42 136 85 176 85 39 0 79 22 89 48
6 15 13 55 17 89 17 178 89 327 220 458 159 159 320 227 540 227 136 0 232
-21 346 -73 43 -20 74 -29 87 -24 12 3 41 34 65 68 132 185 283 300 485 372
61 21 147 39 242 49 60 7 218 -4 292 -20z m-64 -298 c238 -63 434 -234 534
-469 22 -51 47 -98 56 -104 9 -8 44 -13 82 -13 137 0 262 -54 358 -154 33 -34
71 -84 85 -112 102 -201 65 -442 -91 -598 -60 -61 -163 -118 -240 -135 l-43
-9 49 52 c93 98 139 199 148 325 20 260 -168 492 -430 534 l-78 12 -35 70
c-118 233 -332 384 -592 415 -244 30 -493 -68 -654 -259 -26 -31 -51 -56 -55
-56 -4 1 -41 12 -82 25 -107 35 -263 34 -368 -3 -224 -78 -381 -261 -420 -487
-7 -43 -10 -45 -62 -65 -39 -14 -74 -38 -117 -81 -54 -53 -64 -70 -83 -133
-35 -113 -15 -225 56 -318 l25 -33 -44 0 c-24 0 -66 8 -93 17 -67 23 -154 110
-177 177 -38 110 -11 240 66 317 44 44 126 89 164 89 31 0 71 20 78 39 4 9 11
48 15 87 26 218 158 405 354 498 116 56 161 66 286 66 110 0 186 -15 277 -55
84 -38 96 -35 144 36 136 201 354 328 599 348 93 7 205 -2 288 -23z m-135
-292 c93 -21 164 -53 242 -109 92 -65 150 -136 207 -255 29 -58 53 -107 55
-110 3 -3 44 -8 92 -11 64 -4 104 -13 145 -32 78 -36 159 -116 199 -196 30
-62 32 -72 32 -176 0 -88 -4 -120 -20 -155 -62 -144 -177 -233 -330 -255 l-50
-8 48 52 c27 28 60 77 75 109 23 49 27 70 27 152 0 86 -3 101 -32 162 -57 120
-174 208 -299 224 l-54 6 -37 72 c-96 183 -301 306 -508 306 -158 0 -290 -55
-407 -170 l-77 -76 -53 19 c-76 26 -214 25 -292 -2 -160 -56 -286 -197 -318
-355 -10 -52 -12 -55 -56 -72 -92 -35 -162 -139 -162 -240 0 -49 21 -114 51
-156 l22 -30 -74 4 c-83 4 -130 23 -179 71 -46 44 -70 101 -70 167 0 84 16
127 68 179 38 38 60 51 112 65 74 20 90 35 90 85 1 143 114 325 254 410 146
87 338 95 504 19 24 -11 50 -17 57 -14 8 2 31 29 53 58 161 218 428 320 685
262z m-123 -305 c159 -25 297 -131 370 -284 l40 -82 66 -6 c179 -17 298 -144
298 -318 0 -97 -32 -168 -105 -233 -67 -60 -122 -76 -262 -76 l-109 0 32 31
c43 44 61 84 67 148 11 124 -93 251 -205 251 -24 0 -32 7 -47 40 -44 98 -176
187 -293 197 -96 9 -247 -57 -294 -128 -13 -21 -17 -21 -67 -9 -153 36 -305
-48 -350 -193 -14 -48 -23 -62 -47 -72 -89 -37 -122 -164 -63 -239 l20 -26
-144 0 c-131 0 -148 2 -188 23 -95 50 -123 188 -57 277 21 28 76 60 132 77 28
7 31 13 44 83 17 95 62 179 124 235 116 105 256 131 416 79 l86 -28 20 29
c103 145 250 226 426 234 14 0 54 -4 90 -10z m-72 -394 c67 -20 152 -97 180
-163 21 -49 22 -49 72 -54 101 -10 173 -90 173 -192 0 -57 -12 -86 -52 -129
-44 -49 -71 -57 -181 -57 l-101 0 16 30 c19 37 19 73 0 110 -15 28 -60 60 -87
60 -7 1 -26 19 -41 41 -30 44 -93 79 -142 79 -37 0 -104 -30 -128 -58 -15 -16
-24 -19 -47 -12 -63 18 -152 -30 -167 -89 -3 -14 -22 -40 -41 -58 -30 -29 -34
-37 -29 -68 l6 -35 -123 0 c-140 0 -167 11 -185 76 -18 67 15 127 81 144 30 9
38 16 38 34 0 35 27 105 54 141 29 37 107 81 161 89 36 6 107 -7 156 -28 11
-5 23 4 40 29 70 103 215 149 347 110z m-86 -321 c27 -14 68 -64 68 -83 0 -6
9 -11 20 -11 82 0 127 -102 73 -162 -15 -16 -43 -18 -314 -18 -294 0 -298 0
-310 21 -15 28 2 66 36 79 18 7 25 17 25 36 0 16 13 39 35 61 34 34 38 35 93
30 51 -4 60 -2 83 20 54 50 125 60 191 27z"/>
<path d="M3596 6342 c-312 -181 -573 -336 -578 -346 -22 -40 21 -106 70 -106
41 0 1143 639 1160 673 21 42 -16 107 -61 107 -12 0 -278 -148 -591 -328z"/>
<path d="M0 6272 l0 -87 264 -152 c146 -84 274 -153 286 -153 31 0 70 44 70
78 0 17 -9 37 -22 49 -13 11 -115 73 -228 138 -113 65 -242 140 -287 166 l-83
49 0 -88z"/>
<path d="M0 5224 l0 -75 189 3 c169 3 191 5 210 22 27 25 29 86 3 109 -16 15
-46 17 -210 17 l-192 0 0 -76z"/>
<path d="M262 4418 l-262 -152 0 -83 c0 -46 3 -83 7 -83 19 0 588 338 600 357
27 41 -11 113 -59 113 -13 0 -141 -69 -286 -152z"/>
<path d="M1038 4018 c-22 -18 -668 -1142 -668 -1162 0 -9 11 -28 25 -41 29
-30 74 -33 103 -7 16 14 590 1000 646 1110 20 39 14 64 -21 92 -29 23 -62 26
-85 8z"/>
<path d="M1766 3809 l-26 -20 0 -399 0 -399 26 -20 c34 -27 64 -27 98 0 l26
20 0 399 0 399 -26 20 c-15 12 -37 21 -49 21 -12 0 -34 -9 -49 -21z"/>
<path d="M3397 3418 c-24 -46 -77 -145 -116 -220 l-72 -138 46 -29 c62 -39
104 -56 115 -45 16 16 228 429 224 436 -6 10 -105 65 -131 72 -19 6 -27 -3
-66 -76z"/>
<path d="M4347 3338 c-24 -46 -77 -145 -116 -220 l-72 -138 46 -29 c62 -39
104 -56 115 -45 16 16 228 429 224 436 -6 10 -105 65 -131 72 -19 6 -27 -3
-66 -76z"/>
<path d="M2747 3118 c-24 -46 -77 -145 -116 -220 l-72 -138 46 -29 c62 -39
104 -56 115 -45 16 16 228 429 224 436 -6 10 -105 65 -131 72 -19 6 -27 -3
-66 -76z"/>
<path d="M3670 2934 c-55 -103 -102 -192 -103 -198 -2 -12 112 -77 131 -73 16
2 223 378 215 390 -6 9 -119 67 -132 67 -5 0 -55 -84 -111 -186z"/>
<path d="M4047 2738 c-24 -46 -77 -145 -116 -220 l-72 -138 46 -29 c62 -39
104 -56 115 -45 16 16 228 429 224 436 -6 10 -105 65 -131 72 -19 6 -27 -3
-66 -76z"/>
<path d="M3027 2718 c-24 -46 -77 -145 -116 -220 l-72 -138 46 -29 c62 -39
104 -56 115 -45 16 16 228 429 224 436 -6 10 -105 65 -131 72 -19 6 -27 -3
-66 -76z"/>
<path d="M2447 2518 c-24 -46 -77 -145 -116 -220 l-72 -138 46 -29 c62 -39
104 -56 115 -45 16 16 228 429 224 436 -6 10 -105 65 -131 72 -19 6 -27 -3
-66 -76z"/>
<path d="M3361 2341 c-57 -104 -104 -193 -104 -198 0 -10 113 -72 133 -73 9 0
56 74 119 189 58 104 105 193 105 197 1 11 -89 60 -124 68 -24 6 -31 -5 -129
-183z"/>
<path d="M2727 2118 c-24 -46 -77 -145 -116 -220 l-72 -138 46 -29 c62 -39
104 -56 115 -45 16 16 228 429 224 436 -6 10 -105 65 -131 72 -19 6 -27 -3
-66 -76z"/>
<path d="M3707 2038 c-24 -46 -77 -145 -116 -220 l-72 -138 46 -29 c62 -39
104 -56 115 -45 16 16 228 429 224 436 -6 10 -105 65 -131 72 -19 6 -27 -3
-66 -76z"/>
<path d="M3147 1938 c-24 -46 -77 -145 -116 -220 l-72 -138 46 -29 c62 -39
104 -56 115 -45 16 16 228 429 224 436 -6 10 -105 65 -131 72 -19 6 -27 -3
-66 -76z"/>
<path d="M2097 1818 c-24 -46 -77 -145 -116 -220 l-72 -138 46 -29 c62 -39
104 -56 115 -45 16 16 228 429 224 436 -6 10 -105 65 -131 72 -19 6 -27 -3
-66 -76z"/>
<path d="M5866 1068 c-9 -12 -16 -43 -16 -68 0 -25 7 -56 16 -68 l15 -22 560
0 559 0 0 90 0 90 -559 0 -560 0 -15 -22z"/>
<path d="M849 1061 c-20 -16 -24 -29 -24 -71 0 -42 4 -55 24 -71 23 -19 71
-19 2150 -19 l2128 0 21 23 c31 33 31 105 -1 135 l-23 22 -2126 0 c-2078 0
-2126 0 -2149 -19z"/>
<path d="M22 575 c-15 -33 -15 -97 0 -130 l11 -25 1137 0 1137 0 11 25 c17 37
15 107 -4 133 l-15 22 -1133 0 -1133 0 -11 -25z"/>
<path d="M3101 554 c-13 -16 -21 -41 -21 -64 0 -23 8 -48 21 -64 l20 -26 1759
0 1759 0 20 26 c13 16 21 41 21 64 0 23 -8 48 -21 64 l-20 26 -1759 0 -1759 0
-20 -26z"/>
<path d="M1149 151 c-20 -20 -29 -39 -29 -61 0 -22 9 -41 29 -61 l29 -29 2877
0 2877 0 29 29 c39 40 39 82 0 122 l-29 29 -2877 0 -2877 0 -29 -29z"/>
</g>
</svg>
